<?xml version="1.0" standalone="no"?>
<!DOCTYPE svg PUBLIC "-//W3C//DTD SVG 1.1//EN" "http://www.w3.org/Graphics/SVG/1.1/DTD/svg11.dtd" >
<svg xmlns="http://www.w3.org/2000/svg" xmlns:xlink="http://www.w3.org/1999/xlink" version="1.1">
<metadata>
Created by FontForge 20170731 at Sat Dec  1 16:44:25 2018
 By Aleksey,,,
Copyright (c) 2017 by Polem. All rights reserved.
</metadata>
<defs>
<font id="Memories" horiz-adv-x="694" >
  <font-face 
    font-family="Memories"
    font-weight="400"
    font-stretch="normal"
    units-per-em="1000"
    panose-1="2 0 5 5 0 0 0 2 0 3"
    ascent="800"
    descent="-200"
    x-height="348"
    cap-height="925"
    bbox="-1182 -717.173 1439.7 1135.05"
    underline-thickness="50"
    underline-position="-150"
    unicode-range="U+000D-E001"
  />
<missing-glyph horiz-adv-x="395" 
 />
    <glyph glyph-name=".notdef" horiz-adv-x="395" 
 />
    <glyph glyph-name=".null" horiz-adv-x="0" 
 />
    <glyph glyph-name="nonmarkingreturn" unicode="&#xd;" horiz-adv-x="395" 
 />
    <glyph glyph-name="NULL" horiz-adv-x="0" 
 />
    <glyph glyph-name="NULL" horiz-adv-x="0" 
 />
    <glyph glyph-name="space" unicode=" " horiz-adv-x="395" 
 />
    <glyph glyph-name="exclam" unicode="!" horiz-adv-x="299" 
d="M373 822q-44 -95 -79.5 -176.5t-67.5 -155.5t-61.5 -143.5t-60 -140t-63.5 -146t-72 -160.5q-1 -2 -5.5 -3.5t-10 -2.5t-10.5 -0.5t-7 1.5q-5 2 -8 6t-1 9q63 135 120 265t104.5 247.5t85.5 218.5t64 177q0 2 5.5 5t12 5.5t12.5 4t8 1.5q5 0 12.5 -3.5t21.5 -8.5z
M-111 -172q2 4 5 10.5t7 12.5t9.5 9t12.5 0q6 -3 6 -12t-2 -19t-5.5 -18t-4.5 -11q-2 -5 -7.5 -3t-11 7t-8.5 12t-1 12z" />
    <glyph glyph-name="quotedbl" unicode="&#x22;" horiz-adv-x="260" 
d="M227 586q-2 -4 -7 -18t-11 -29t-13.5 -25.5t-13.5 -7.5q-6 4 -4.5 20.5t6 35t10 34.5t6.5 19q3 5 8 3t10 -7.5t8 -12.5t1 -12zM67 566q-2 -4 -7 -18t-11 -29t-13.5 -25.5t-13.5 -7.5q-6 4 -4.5 20.5t6 35t10 34.5t6.5 19q3 5 8 3t10 -7.5t8 -12.5t1 -12z" />
    <glyph glyph-name="numbersign" unicode="#" horiz-adv-x="392" 
d="M349 408l-78 -8l-18 -78l67 8q5 0 8 -4.5t4 -9.5t-1.5 -10.5t-7.5 -5.5q-21 -3 -40 -5l-38 -4q-8 -36 -16.5 -71.5t-16.5 -71.5q-1 -5 -6.5 -7.5t-10.5 -1.5t-9.5 4.5t-3.5 8.5l16 68l16 68q-20 -2 -39.5 -3.5t-39.5 -3.5q-8 -33 -15.5 -66.5t-14.5 -66.5q-2 -5 -7 -7.5
t-10 -1.5t-9.5 4.5t-3.5 8.5q7 32 14 63t15 63l-75 -7q-5 0 -8.5 4.5t-4.5 9.5q0 5 2.5 10.5t7.5 5.5q23 3 44 4.5t41 3.5l19 77l-67 -6q-5 -1 -8.5 3.5t-4.5 9.5q0 5 2.5 10.5t7.5 6.5l77 7q8 35 15.5 68.5t15.5 67.5q1 5 6 7.5t10 1.5q5 0 10 -3.5t4 -8.5q-7 -32 -14 -65
t-15 -65l78 8q8 32 15 62.5t13 62.5q1 5 6.5 7.5t10.5 1.5q5 0 9.5 -3.5t3.5 -8.5q-6 -30 -12.5 -59.5t-13.5 -59.5l66 7q5 1 8.5 -3.5t4.5 -9.5t-1.5 -10.5t-7.5 -6.5zM143 312q20 2 39 3.5t39 3.5l19 78l-79 -8z" />
    <glyph glyph-name="dollar" unicode="$" horiz-adv-x="608" 
d="M411 377q15 19 32.5 44.5t34 54.5t30.5 60.5t22 63t7.5 61t-11.5 55.5q-2 5 -5 9l-6 8q-12 -28 -26.5 -57t-28.5 -57.5t-27.5 -56t-25.5 -51.5l-113 -231q8 -27 15.5 -51.5t12 -49t4 -51.5t-7.5 -58q-8 -32 -28 -68t-48 -62t-62.5 -35.5t-71.5 11.5l-4 -7l-14 -25
q-2 -4 -8.5 -5t-10.5 1t-7 6.5t-1 8.5l13 24l8 14q-27 24 -33.5 55t0.5 64t23.5 64.5t36.5 55.5l25 30q7 7 15 0q9 -7 1 -15q-18 -21 -39 -50.5t-33.5 -61.5t-11.5 -64t27 -58q44 83 87 168t85 172l-2 10t-3 10q-15 51 -17 111.5t9.5 120t37 112.5t66.5 89q31 28 70.5 36
t71.5 -8l9 22q1 5 6.5 7t10.5 1t9.5 -4.5t3.5 -8.5q-4 -8 -7 -17t-7 -18q12 -12 21 -31q19 -42 12 -92t-28 -99.5t-49.5 -94.5t-53.5 -76q-7 -8 -15 -2q-8 7 -1 16zM490 750q-24 9 -53 -2.5t-57.5 -39t-53 -68.5t-39.5 -91.5t-18 -108.5t13 -118q20 42 39.5 82t39.5 79
l31.5 63t33.5 67.5t33.5 69t30.5 67.5zM118 -66q29 -18 54.5 -8t46 34t34.5 56t20 59q13 52 13.5 91.5t-8.5 81.5q-79 -162 -160 -314z" />
    <glyph glyph-name="percent" unicode="%" horiz-adv-x="395" 
d="M419 873q-11 -35 -26.5 -74.5t-32 -79.5t-33.5 -79t-32 -74q-72 -172 -145 -343t-149 -341l-33 -71q-2 -5 -8.5 -6t-10.5 1q-5 2 -8 6t-1 9l12 26q78 165 151 339.5t145 344.5q17 40 36 84t38 88.5t36 88t31 84.5q1 5 6 7.5t10 1.5q5 0 10 -3.5t4 -8.5zM182 717
q21 -4 28.5 -30t5 -63.5t-13.5 -79.5t-27.5 -76.5t-37 -56t-41.5 -17.5q-19 3 -26 29.5t-5 63.5t12 79t25.5 77t36 56.5t43.5 17.5zM292 297q21 -4 28.5 -30t5 -63.5t-13.5 -79.5t-27.5 -76.5t-37 -56t-41.5 -17.5q-19 3 -26 29.5t-5 63.5t12 79t25.5 77t36 56.5t43.5 17.5z
M288 274q-10 3 -21.5 -16t-23 -49t-21 -66.5t-15 -68.5t-5 -54.5t8.5 -24.5t19.5 17t23.5 49t23 66t17 67.5t5 54t-11 25.5zM178 694q-10 3 -21.5 -16t-23 -49t-21 -66.5t-15 -68.5t-5.5 -54t9 -25q8 -2 19.5 17t23.5 49t23 66t17 67.5t5 54t-11 25.5z" />
    <glyph glyph-name="ampersand" unicode="&#x26;" horiz-adv-x="833" 
d="M433 417q17 -60 20 -128.5t-9 -137t-39 -130.5t-70 -108q-36 -39 -78 -55.5t-82 -12.5q-53 5 -85 32.5t-47.5 68t-17 89.5t6 99t22 96t30.5 79q44 90 99 160t102 113q-1 30 3 69.5t12 80.5t21 79t30 65.5t38.5 40.5t48.5 3t35.5 -31t2.5 -49t-23 -62t-41 -69.5t-51.5 -71
t-54.5 -66.5q1 -11 2.5 -21.5t5.5 -22.5q4 -11 -6 -14q-4 -2 -8 -0.5t-6 6.5l-6 20q0 2 -0.5 4.5t-0.5 5.5q-14 -11 -34.5 -36t-43 -60t-45.5 -77t-42 -87q-12 -27 -24.5 -67t-20.5 -85t-9.5 -91t9.5 -84t36 -64t70 -32q32 -4 67.5 11t68.5 51q40 42 65.5 100t37 121.5
t10 128.5t-16.5 122l-38 -37q-14 -14 -34.5 -35t-37.5 -44.5t-26 -48.5t0 -48q1 -4 -7.5 -6t-12.5 -4t-8.5 -1t-6.5 6q-10 24 -5.5 47.5t16.5 45t29 41t33 36.5q15 16 37.5 37.5t47 45.5t48.5 50t43 52.5t29.5 52t8.5 48.5q-2 10 9 12q5 1 15.5 -3.5t12.5 -9.5
q3 -29 -8.5 -57.5t-31.5 -57t-45 -55t-50 -50.5zM305 607q35 42 69 88.5t56.5 87.5t28 72t-18.5 42q-15 6 -29.5 -8.5t-28.5 -41.5t-27 -62.5t-23 -69.5t-17 -63.5t-10 -44.5z" />
    <glyph glyph-name="quotesingle" unicode="'" horiz-adv-x="103" 
d="M78 566q-2 -4 -7 -18t-11 -29t-13.5 -25.5t-13.5 -7.5q-6 4 -4.5 20.5t6 35t10 34.5t6.5 19q3 5 8 3t10 -7.5t8 -12.5t1 -12z" />
    <glyph glyph-name="parenleft" unicode="(" horiz-adv-x="356" 
d="M465 778q-36 12 -75.5 -8.5t-78.5 -65.5t-77.5 -109.5t-72 -139t-61 -155t-45.5 -158t-26 -147.5t-1.5 -123t28 -84.5t61.5 -32.5q5 0 8 -2.5t2 -7.5q0 -11 -11 -11q-59 1 -87 50.5t-32 129.5t14.5 180.5t52.5 204t81.5 200t101.5 168.5t112.5 109t115.5 22q10 -3 5 -14
q-5 -10 -15 -6z" />
    <glyph glyph-name="parenright" unicode=")" horiz-adv-x="346" 
d="M-173 -250q36 -12 75.5 8.5t78.5 65.5t77.5 109.5t72 139t61 155t45.5 158t26 147.5t1.5 123t-28 84.5t-61.5 32.5q-5 0 -8 2.5t-2 7.5q0 11 11 11q59 -1 87 -50.5t32 -129.5t-14.5 -180.5t-52.5 -204t-81.5 -200t-101.5 -168.5t-112.5 -109t-115.5 -22q-10 3 -5 14
q5 10 15 6z" />
    <glyph glyph-name="asterisk" unicode="*" horiz-adv-x="214" 
d="M121 380l-9 46l-17 -48q-1 -5 -7 -7t-10 0q-5 2 -9.5 5.5t-2.5 8.5q5 12 8.5 24t7.5 24q-15 -14 -29.5 -28.5t-28.5 -29.5q-7 -8 -15 -2q-9 7 -2 16q21 23 44 44l46 42l3 8q-5 26 -10 50.5t-8 50.5q0 10 10 12q10 0 12 -10q2 -16 4.5 -31.5t4.5 -31.5q5 14 9.5 28.5
t9.5 28.5q2 4 8 6t10 1q5 -2 9.5 -5.5t2.5 -8.5q-5 -14 -9.5 -28t-9.5 -28q12 12 24.5 23.5t23.5 24.5q8 8 15 1q8 -7 1 -16q-19 -20 -39 -38.5t-40 -36.5l-3 -9q5 -21 9 -41.5t8 -40.5q2 -11 -9 -13q-10 -2 -12 9z" />
    <glyph glyph-name="plus" unicode="+" horiz-adv-x="355" 
d="M328 327q-40 -5 -72 -8t-63 -6q-13 -51 -25.5 -102.5t-23.5 -102.5q-1 -5 -6.5 -7.5t-9.5 -1.5q-5 1 -9.5 4.5t-3.5 8.5q11 50 22.5 99t23.5 99l-119 -11q-5 -1 -8 3.5t-4 9.5t1.5 10.5t7.5 6.5l129 12q11 43 21 86t18 86q1 5 6.5 7.5t10.5 1.5q5 0 9.5 -3.5t3.5 -8.5
q-8 -42 -17.5 -83t-19.5 -83q29 3 58.5 5.5t66.5 7.5q5 1 8 -4t4 -9q1 -5 -1.5 -10.5t-7.5 -6.5z" />
    <glyph glyph-name="comma" unicode="," horiz-adv-x="120" 
d="M24 79q-5 6 -2 13t9 12.5t13.5 7.5t12.5 -4q4 -6 0 -16t-10.5 -20t-12.5 -16t-7 -3t2.5 11t-5.5 15z" />
    <glyph glyph-name="hyphen" unicode="-" horiz-adv-x="352" 
d="M320 266q-42 -2 -76.5 -2.5t-67 -1t-67 -1t-76.5 -1.5q-5 -1 -8 4t-3 10q-1 5 2 10.5t8 5.5q42 1 76.5 1.5t67 1t67 1t76.5 2.5q5 1 8 -4t3 -10q1 -5 -2 -10t-8 -6z" />
    <glyph glyph-name="period" unicode="." horiz-adv-x="196" 
d="M21 64q2 4 5 10.5t7 12.5t9.5 9t12.5 0q6 -3 6 -12t-2 -19t-5.5 -18t-4.5 -11q-2 -5 -7.5 -3t-11 7t-8.5 12t-1 12z" />
    <glyph glyph-name="slash" unicode="/" horiz-adv-x="470" 
d="M479 921q-11 -35 -26.5 -74.5t-32 -79.5t-33.5 -79t-32 -74q-72 -172 -145 -343t-149 -341l-33 -71q-2 -5 -8.5 -6t-10.5 1q-5 2 -8 6t-1 9l12 26q78 165 151 339.5t145 344.5q17 40 36 84t38 88.5t36 88t31 84.5q1 5 6 7.5t10 1.5q5 0 10 -3.5t4 -8.5z" />
    <glyph glyph-name="zero" unicode="0" horiz-adv-x="315" 
d="M243 574q22 -3 29 -34t3.5 -80t-16 -110t-31 -124t-41.5 -123t-46.5 -106t-46 -73t-41.5 -24t-25 33.5t-2.5 79.5t15.5 110t29.5 124.5t39.5 123t44.5 106t45.5 73.5t43 24zM239 551q-12 1 -28 -25.5t-33.5 -70.5t-35.5 -100.5t-34.5 -115.5t-29.5 -116t-20 -101.5
t-8 -72t8 -28.5q10 -1 25.5 25.5t34 70.5t38 100.5t37.5 115.5t32 116t21.5 101.5t6.5 72t-14 28.5z" />
    <glyph glyph-name="one" unicode="1" horiz-adv-x="239" 
d="M123 521q15 7 27 13t23 12.5t22.5 13t25.5 15.5q16 10 25 8t12 -10t2 -18.5t-4 -17.5q-29 -67 -63 -146t-66.5 -161t-59 -163t-39.5 -151q0 -2 -4.5 -4t-10.5 -3t-11.5 -1.5t-7.5 -0.5q-11 2 -9 12q5 25 9.5 44.5t12.5 43.5q20 65 45 133t52 137t55.5 137t55.5 132
q-20 -13 -38.5 -23t-44.5 -21q-5 -2 -9 -0.5t-6 5.5q-4 11 6 14z" />
    <glyph glyph-name="two" unicode="2" horiz-adv-x="336" 
d="M135 458q4 25 15.5 48t29.5 40t41 26t49 5q30 -5 40.5 -26.5t8.5 -52t-14 -67t-27 -70t-29 -61t-22 -41.5q-9 -18 -29.5 -52.5t-46 -76t-52.5 -84t-50 -75.5q31 -16 53 -31t37 -17.5t23 13.5t11 61q0 2 4 3.5t9.5 2l11 1t7.5 0.5q11 0 11 -11l-2 -29q-6 -45 -26 -56.5
t-46.5 -5.5t-54.5 22.5t-49 27.5q-1 1 -2 1q-12 -16 -25 -27t-20 -16q-16 -10 -26.5 -7t-14.5 13t-1.5 24t11.5 25t24.5 16.5t37.5 -1.5q4 6 21.5 33.5t42 68t53.5 90.5t56 101.5t49.5 101t34.5 88.5t10.5 64t-22.5 28t-40 -4t-33.5 -21.5t-24 -33.5t-12.5 -40q-1 -5 -4 -8
t-8 -2q-5 0 -7.5 3.5t-2.5 8.5zM7 -40q-16 2 -28.5 -5.5t-10.5 -24.5q2 -11 12 -2t27 32z" />
    <glyph glyph-name="three" unicode="3" horiz-adv-x="291" 
d="M108 448q4 25 15.5 48.5t29.5 40.5t41 25.5t49 4.5q33 -5 44 -30t9 -57t-13 -63.5t-24 -49.5l-19 -21q16 -42 19.5 -91.5t-3.5 -99.5t-23.5 -97t-40.5 -84q-14 -21 -33.5 -40t-42 -28.5t-47 -7.5t-48.5 22q-27 22 -35 57.5t-4.5 74t14 76.5t21.5 65q2 5 6 6.5t8 -0.5
q5 -2 6.5 -6t-0.5 -8q-14 -37 -23 -69t-11 -72q-1 -16 1 -33.5t7 -33t13.5 -29t21.5 -20.5q10 -6 16 -8t21 1q27 5 48 25.5t37.5 49.5t28 65t18.5 73q14 75 16 131t-15 83q-1 2 5 7t20 24q11 16 17 45t4 56.5t-13 47.5t-33 18q-17 -2 -31.5 -11t-26 -23t-18.5 -31t-10 -35
q0 -5 -3.5 -7.5t-8.5 -2.5q-10 2 -10 12z" />
    <glyph glyph-name="four" unicode="4" horiz-adv-x="340" 
d="M361 567q-32 -75 -65.5 -155t-65.5 -161q20 -3 34.5 -8t20.5 -14q3 -5 3.5 -8.5t1.5 -8.5q-2 -11 -12 -11t-10 11v2q-2 6 -14 10t-32 6q-23 -59 -44 -116.5t-38 -113.5q-7 -23 -11.5 -42t-9.5 -43q-1 -5 -12.5 -7.5t-16.5 -1.5q-5 0 -7.5 3.5t-2.5 8.5q5 25 10 44t13 44
q17 55 37 111.5t42 114.5q-29 2 -61 0.5t-56 -3.5l-2 -3q-17 -24 -33.5 -24t-23 10.5t2 23t40.5 14.5h5q25 36 61 91t71.5 113.5t63.5 112t37 86.5q2 10 12 8q2 0 6 -3.5t8 -7.5t6.5 -8.5t2.5 -6.5q-9 -33 -37.5 -82.5t-65 -103.5t-74 -106t-64.5 -91q23 2 52 3t58 -1
q32 83 66.5 164t66.5 157q3 10 14 6q4 -2 14 -6t9 -8zM33 225l-6 -2q2 0 6 2z" />
    <glyph glyph-name="five" unicode="5" horiz-adv-x="344" 
d="M232 529q-12 -42 -20 -80t-18 -80q29 -20 45 -51.5t21 -69t1 -79t-14.5 -80.5t-26 -73t-32.5 -57q-15 -20 -35 -34.5t-42 -19t-44 2.5t-40 31q-20 25 -23.5 59.5t3 71t19.5 71.5t25 61q5 10 14 5q10 -5 5 -15q-11 -22 -24 -58t-19.5 -73.5t-1 -71t31.5 -50.5
q28 -18 55 -4.5t49.5 46t39.5 79t25.5 95t6 92t-17.5 71.5q-6 11 -11.5 16.5t-10.5 9t-10 6t-9 6.5q-3 3 0.5 25t10 50.5t14 56.5t12.5 44q-10 0 -14 -1q-2 -7 -10 -7q-5 0 -8 9.5t-3 14.5q1 12 13 15.5t29.5 2t38 -6t39 -7.5t32 -2.5t17.5 8.5q2 5 5.5 0.5t7.5 -6.5
q11 -4 7 -13q-6 -15 -21.5 -19.5t-34.5 -3.5t-39.5 5.5t-37.5 7.5z" />
    <glyph glyph-name="six" unicode="6" horiz-adv-x="289" 
d="M105 -94q-12 -5 -22 -4.5t-18 3.5q-28 12 -40.5 44t-12 78t11.5 101t30 113t43.5 114.5t51.5 104.5t54 83.5t52 51.5q10 5 15 -4q2 -4 1 -8.5t-5 -6.5q-19 -15 -40 -44t-41.5 -67.5t-40 -84.5t-35.5 -94q39 9 59 -13.5t26 -62t0 -89.5t-19.5 -95t-32 -79t-37.5 -41z
M82 -70q16 -2 31 24.5t27 66t18.5 85.5t4.5 84t-14 60.5t-37 14.5q-4 -3 -10 1q-21 -61 -35 -120t-18 -106t3 -77t30 -33z" />
    <glyph glyph-name="seven" unicode="7" horiz-adv-x="259" 
d="M-46 -79q5 21 22 67.5t40.5 105.5t52 125.5t56 128.5t52 114.5t41.5 83.5q-24 1 -58 2.5t-65.5 0t-53 -7.5t-19.5 -19q2 -10 -9 -12t-13 8q-2 28 22.5 39t61 13t76.5 -1.5t69 -3.5q0 2 2 4q11 16 23.5 21t23 2.5t17.5 -10t7 -15.5t-9 -14.5t-31 -7.5h-3q-15 -27 -39 -78
t-52 -113.5t-57 -130.5t-53.5 -128.5t-42.5 -108t-23 -68.5q-1 -5 -12.5 -7.5t-16.5 -1.5q-11 2 -9 12zM275 567q6 1 10 5q-2 1 -10 -5z" />
    <glyph glyph-name="eight" unicode="8" horiz-adv-x="239" 
d="M167 322q4 -27 6.5 -52.5t3.5 -47.5q0 -19 -0.5 -51.5t-4.5 -70t-12.5 -75.5t-23.5 -67t-38 -45t-55 -10q-41 7 -54.5 41t-8 82t24.5 104t43.5 108t49 93.5t40.5 61.5q-1 9 -1 27t1 39t4.5 42.5t10.5 39.5t17.5 28.5t26.5 9.5q20 -1 26.5 -18.5t4.5 -43t-10.5 -56.5
t-18 -59t-19 -50t-13.5 -30zM133 303q5 8 12 23l-4 35q-11 -17 -28.5 -53.5t-36 -82t-34 -95t-23.5 -92t-5 -73t23 -38.5q28 -12 48 1.5t33.5 41.5t21 66t11 74.5t4 67t0.5 43.5q0 17 -1.5 34t-3.5 34q-7 -5 -14 -1q-4 2 -4.5 6.5t1.5 8.5zM163 363q10 24 20 52t16.5 54
t7.5 48.5t-6 35.5q-4 8 -9 1.5t-9.5 -20.5t-9 -33.5t-8 -37.5t-5.5 -32t-2 -17q8 2 12 -4q7 -7 -1 -15l-9 -9z" />
    <glyph glyph-name="nine" unicode="9" horiz-adv-x="236" 
d="M138 211q-34 -6 -53 19t-25 66t-1 90t18 92.5t33.5 73t44.5 30.5q33 1 50 -25t20.5 -70t-4.5 -101t-25 -118t-40.5 -121.5t-51 -111t-57.5 -86.5t-59 -48q-4 -2 -8.5 -1t-6.5 5q-5 10 4 15q22 18 45 48t44 69t40 83.5t35 91.5q-1 -1 -3 -1zM158 560q-12 0 -25 -25
t-23 -62.5t-16 -81t-4.5 -80t11 -59.5t31.5 -20q11 2 13 -8q21 62 34 122t16 107.5t-5.5 76.5t-31.5 30z" />
    <glyph glyph-name="colon" unicode=":" horiz-adv-x="192" 
d="M34 66q2 4 5 10.5t7 12.5t9.5 9t12.5 0q6 -3 6 -12t-2 -19t-5.5 -18t-4.5 -11q-2 -5 -7.5 -3t-11 7t-8.5 12t-1 12zM137 368q2 4 5 10.5t7 12.5t9.5 9t12.5 0q6 -3 6 -12t-2 -19t-5.5 -18t-4.5 -11q-2 -5 -7.5 -3t-11 7t-8.5 12t-1 12z" />
    <glyph glyph-name="semicolon" unicode=";" horiz-adv-x="201" 
d="M54 79q-5 6 -2 13t9 12.5t13.5 7.5t12.5 -4q4 -6 0 -16t-10.5 -20t-12.5 -16t-7 -3t2.5 11t-5.5 15zM139 368q2 4 5 10.5t7 12.5t9.5 9t12.5 0q6 -3 6 -12t-2 -19t-5.5 -18t-4.5 -11q-2 -5 -7.5 -3t-11 7t-8.5 12t-1 12z" />
    <glyph glyph-name="less" unicode="&#x3c;" horiz-adv-x="562" 
d="M544 627q-34 -34 -86 -77.5t-111 -86t-119.5 -80.5t-112.5 -62q47 -6 86.5 -15t76 -23t71.5 -33t74 -45q2 -2 3 -8t1.5 -13t0 -13t-1.5 -8q-7 -9 -15 -3q-46 31 -88 58.5t-86 47t-92.5 29t-106.5 3.5v1q-9 0 -11.5 2.5t-1.5 6t4 7t6 4.5l13 3q60 15 126 56t129 92
t120 105t99 95q9 7 16 -1q1 -2 3 -8t3.5 -13t1.5 -13.5t-2 -7.5z" />
    <glyph glyph-name="equal" unicode="=" horiz-adv-x="388" 
d="M323 294q-42 -2 -78 -2.5t-70 -1t-70 -1t-78 -1.5q-5 0 -8 5t-4 10q0 5 3 10t8 5q42 1 78 1.5t70 1t69.5 1t77.5 2.5q5 1 8 -4t4 -10q0 -5 -2.5 -10t-7.5 -6zM356 400q-42 -2 -76.5 -2.5t-67 -1t-67 -1t-76.5 -1.5q-5 -1 -8 4t-3 10q-1 5 2 10.5t8 5.5q42 1 76.5 1.5
t67 1t67 1t76.5 2.5q5 1 8 -4t3 -10q1 -5 -2 -10t-8 -6z" />
    <glyph glyph-name="greater" unicode="&#x3e;" horiz-adv-x="577" 
d="M28 61q34 34 86 77.5t111 86t119.5 80.5t112.5 62q-47 6 -86.5 15t-76 23t-71.5 33t-74 45q-2 1 -3 7.5t-1.5 13.5t0 13t1.5 8q7 9 15 3q46 -31 88 -58.5t86 -47t92 -29t107 -3.5v-1q9 0 11.5 -2.5t1.5 -6t-4 -7t-6 -4.5l-13 -3q-60 -15 -126 -56t-129 -92t-120 -105
t-99 -95q-9 -7 -16 1q-2 1 -3.5 7.5t-3 13.5t-1.5 13t2 8z" />
    <glyph glyph-name="question" unicode="?" horiz-adv-x="555" 
d="M210 681q2 36 12.5 75.5t29 74t47 60.5t66.5 34q52 12 86 -6.5t53 -53t24 -78t1 -80.5q-5 -45 -20 -89.5t-36.5 -86t-48.5 -79t-56 -68.5q-56 -60 -107.5 -110.5t-94 -104t-74 -118t-49.5 -152.5q-2 -10 -3 -16.5l-2 -13l-2 -13t-2 -16.5q0 -5 -6.5 -7.5t-11.5 -1.5
t-10 4t-4 8q1 10 2 17t2 13.5l2 13t3 16.5q18 91 50.5 156.5t76 120.5t96 106t110.5 113q35 38 63.5 93.5t46.5 115.5t24 117.5t-2.5 101t-33.5 66.5t-69 12q-35 -8 -60.5 -32t-43 -55.5t-26.5 -67.5t-11 -69q0 -11 -11 -11t-11 11zM-28 -235q2 4 5 10.5t7 12.5t9.5 9
t12.5 0q6 -3 6 -12t-2 -19t-5.5 -18t-4.5 -11q-2 -5 -7.5 -3t-11 7t-8.5 12t-1 12z" />
    <glyph glyph-name="at" unicode="@" horiz-adv-x="501" 
d="M399 325q9 31 17.5 62t15 59t11.5 50.5t7 36.5q2 15 5.5 42t4.5 58.5t-1 63.5t-10 57.5t-24 41t-42 14.5q-31 -2 -61 -31t-58 -73.5t-53 -99t-45.5 -108t-35.5 -99.5t-22 -74q-6 -22 -16.5 -68.5t-19.5 -102.5t-13.5 -115t2 -107t27 -77t60.5 -26q32 2 61.5 23.5t55.5 54
t48.5 73t40 81t30 78t18.5 63.5l8 39q1 5 4.5 7.5t8.5 0.5q10 -2 8 -12l-8 -40q-7 -29 -20 -68.5t-31.5 -82t-42 -84t-52 -75t-60.5 -55.5t-67 -25q-42 -3 -66.5 20.5t-35.5 63t-12 89.5t3.5 98.5t12 91t12.5 66.5q7 34 23 91t38 122.5t50.5 132t61 121.5t69 90.5t75.5 37.5
q28 2 46.5 -10.5t30 -33t17 -47.5t7 -54.5t0.5 -53t-3 -43.5q-2 -17 -6.5 -43.5t-11 -58.5t-15 -68t-18.5 -72q-4 -15 -10 -38t-14 -49t-19.5 -53t-26.5 -49t-34 -36.5t-43 -16.5t-35.5 12t-14.5 37.5t1.5 54.5t12.5 64q-17 -32 -33 -55.5t-29 -23.5q-22 -1 -31 17.5t-8 45
t11 56t27 52t39.5 32t47.5 -4.5q3 -2 3 -4q13 30 18.5 43t7.5 15q7 3 13.5 -0.5t10.5 -10.5t5.5 -16t-0.5 -17q-3 -3 -12.5 -25t-21 -53.5t-22 -67.5t-14.5 -66t0.5 -48.5t23.5 -15.5q27 4 47 29t34 56.5t22.5 63.5t14.5 50zM256 375q-9 6 -20.5 -3t-22.5 -26t-20.5 -39
t-15 -41.5t-5 -33.5t8.5 -16q7 3 17 19t22 39.5t24 50t22 49.5q-4 -3 -10 1z" />
    <glyph glyph-name="A" unicode="A" horiz-adv-x="807" 
d="M-81 395q21 24 50 56t62.5 58.5t70.5 41t73 4.5q21 -6 30.5 -26t10 -49.5t-6.5 -65.5t-17.5 -73.5t-23.5 -74.5t-25 -68l35 6q43 81 91.5 168t100 169.5t103 156t99.5 126.5t90.5 80.5t75.5 19.5q40 -10 54.5 -44.5t12 -83t-18.5 -105t-36.5 -110t-40.5 -99t-32 -71.5
q-11 -28 -27 -62t-34 -74q70 5 120.5 -3.5t67.5 -37.5q4 -9 -6 -14q-9 -4 -14 4q-15 24 -63 28.5t-117 -3.5q-27 -58 -55.5 -122.5t-55.5 -131t-50.5 -132.5t-40 -126.5t-23 -112.5t0.5 -91q2 -11 4 -18t4 -12.5t5 -11.5l8 -16q2 -4 1.5 -8.5t-5.5 -6.5q-8 -7 -15 2l-14 31
q-15 39 -12 94.5t18 120t39 135.5t52.5 141.5t58.5 137.5t56 124q-42 -5 -88 -12.5t-94 -16t-95.5 -17.5t-91.5 -16q-37 -72 -69.5 -137.5t-58 -119.5t-43 -93t-24.5 -57q-2 -4 -6.5 -11t-9.5 -14.5t-10.5 -15t-8.5 -13.5q-7 -12 -11 -12q-9 0 -10 12v1q-2 14 3.5 39.5
t14.5 56.5t20.5 64t22 61.5t19 49t10.5 26.5q6 16 23 55.5t37 92.5q-72 -8 -117 -2.5t-49 33.5q-1 5 2.5 8.5t8.5 3.5q5 1 8 -2t2 -8q3 -19 44.5 -19t109.5 11q20 54 38.5 111.5t28.5 106.5t7 82.5t-25 39.5q-32 9 -65.5 -6t-65 -40.5t-58 -55.5t-45.5 -51q-3 -4 -7.5 -4
t-7.5 3q-4 3 -3.5 7.5t3.5 7.5zM592 273q11 26 22 47.5t19 40.5q10 23 31 68.5t43.5 101t42.5 115t28.5 112t1.5 90.5t-38 51q-27 11 -63 -12t-79 -71.5t-90.5 -117t-96 -148.5t-96.5 -166.5t-91 -170.5q44 8 91 17t94 17.5t93 15t88 10.5zM132 172l-21 -54
q-21 -53 -46 -113.5t-46 -122.5q7 16 20.5 45t32.5 67t42 84.5t50 97.5z" />
    <glyph glyph-name="B" unicode="B" horiz-adv-x="798" 
d="M-96 396q19 24 46 56t58.5 58.5t67 41t73.5 4.5q28 -8 38 -38t8.5 -72.5t-11.5 -92t-22.5 -95.5t-25 -83.5t-17.5 -55.5q-17 -53 -37 -113.5t-36 -121.5q20 54 45.5 115.5t53 124.5t56 125t55.5 117.5t50.5 101.5t40.5 78q9 17 29 53.5t47 81t59.5 90.5t67 82.5t69 57.5
t65.5 15q41 -9 62 -48.5t21.5 -95t-21.5 -119t-66.5 -119.5t-113.5 -97t-163 -52q66 -23 105.5 -67.5t56.5 -103t14.5 -127.5t-20 -140t-47.5 -140.5t-67.5 -130t-80.5 -107.5t-86 -73q-53 -32 -95 -30t-71.5 28t-43.5 71.5t-9 99.5q5 53 20 101.5t35 96.5q2 4 6 5.5t8 -0.5
q10 -3 6 -14q-9 -22 -20 -51t-20 -61t-14 -65.5t-3 -64t12.5 -56.5t33.5 -43q36 -27 82 -13t94 57.5t93 110t79.5 144t53.5 160.5t14 158.5t-39 137.5t-104 99q-18 4 -29 9q-10 5 -16 10.5t2 13.5q2 1 6 1.5t7 0.5q93 7 160.5 46t111 93t65 114.5t24.5 113t-11.5 87.5
t-43.5 38q-21 1 -47 -19.5t-54 -54t-55 -74.5t-50.5 -79.5t-41 -70t-25.5 -45.5q-45 -81 -94 -180.5t-95.5 -204t-87 -207.5t-67.5 -191q-1 -4 -6 -11t-10.5 -14.5l-11 -15t-8.5 -13.5q-5 -12 -11 -12q-7 0 -10 12v1q-3 14 0.5 39.5t10.5 56.5t16 64t17.5 61.5t15 49
t8.5 26.5q5 16 19.5 58.5t31 97.5t31.5 115t22 112t2 88t-29 42q-33 9 -65.5 -6t-61.5 -40.5t-54 -55.5t-42 -51q-6 -8 -15 -1q-8 8 -1 15z" />
    <glyph glyph-name="C" unicode="C" horiz-adv-x="596" 
d="M-165 472q8 30 21 47.5t32 26t43 9.5t54 0q66 -4 123 -11t114 -9q33 61 71.5 118.5t79.5 106.5t83 87t83 59q31 16 61.5 19t55.5 -6.5t41.5 -33t18.5 -59.5q3 -53 -19.5 -98.5t-60 -82t-84 -63t-92.5 -40.5q-57 -18 -107.5 -24t-98.5 -5q-51 -93 -93 -193t-67.5 -194
t-29.5 -175.5t21 -137.5q17 -38 44.5 -56.5t59.5 -20.5t65 11t61 39q27 25 50 57.5t42.5 68.5t35.5 73.5t29 71.5q2 5 6 6.5t8 -0.5q11 -4 6 -14q-12 -30 -28 -67.5t-36.5 -76t-45.5 -75t-55 -63.5t-64.5 -42t-73.5 -11q-48 5 -78.5 28.5t-48.5 58t-25 77.5t-6 86.5t7 84.5
t14 73q9 38 24.5 84t35.5 96.5t45 104.5t53 107q-54 3 -108.5 9.5t-117.5 9.5q-25 1 -45.5 0.5t-36.5 -6.5t-27.5 -19.5t-18.5 -38.5q-2 -11 -12 -9q-11 2 -9 12zM266 535q45 -1 90.5 5t97.5 22q42 13 85.5 37.5t79 58t57 76t18.5 90.5q-2 39 -18.5 57.5t-40.5 22t-52 -6.5
t-54 -28q-30 -21 -63 -54.5t-66.5 -77t-67.5 -95t-66 -107.5z" />
    <glyph glyph-name="D" unicode="D" horiz-adv-x="828" 
d="M-86 397q19 24 45.5 56t58.5 58.5t67.5 41t72.5 4.5q28 -8 38.5 -38t9 -72.5t-11.5 -92t-23 -95.5t-25 -83.5t-18 -55.5q-17 -54 -37 -115t-37 -124q20 56 46.5 119t55.5 128t59 129t58 121t52.5 104.5t42.5 79.5q10 19 33 59t54 87.5t66.5 94.5t72.5 79.5t71.5 42.5
t63.5 -17q23 -22 31.5 -64t5 -97.5t-16 -120t-30.5 -131.5t-39 -132.5t-41.5 -122.5t-38 -102t-28.5 -70q-8 -20 -26.5 -61t-44 -92.5t-57 -110t-66.5 -114t-72.5 -103t-75.5 -78t-74.5 -39t-69.5 14.5q-21 15 -29.5 42.5t-8 62.5t7.5 73.5t17 75t21 67.5t19 51q2 4 6 5.5
t9 -0.5q10 -4 5 -14q-6 -15 -18 -49t-22.5 -75t-17.5 -84t-4 -78t19.5 -55.5t52.5 -15.5q33 4 73 42t84 101t89.5 146.5t89.5 177.5t84 194t73 197t57.5 186.5t36 162t8.5 123.5t-24 71q-23 21 -52 8.5t-60.5 -45.5t-63 -79t-58 -91t-46.5 -82t-28 -52q-44 -79 -93 -177.5
t-95.5 -202t-87.5 -205t-68 -188.5q-1 -4 -5.5 -10.5t-10 -14t-10.5 -15t-7 -13.5h-1q-5 -12 -10 -12q-8 0 -11 12v1q-3 14 1 39.5t10.5 56.5t15.5 64t17.5 61.5t15 49t8.5 26.5q5 16 19.5 58.5t31 97.5t31.5 115t22 111.5t2.5 88t-28.5 42.5q-33 9 -65.5 -6t-62 -40.5
t-54 -55.5t-41.5 -51q-3 -4 -7.5 -4t-7.5 3q-4 3 -4 7.5t3 7.5z" />
    <glyph glyph-name="E" unicode="E" horiz-adv-x="657" 
d="M-76 436q8 35 29.5 56.5t52 33t67 15.5t75 5t77.5 1t73 4q-11 52 -3.5 104.5t36.5 108.5q17 32 51 68t75.5 61t86 32t83.5 -17q34 -22 39.5 -57t-7 -73t-36.5 -73.5t-49 -58.5q-52 -48 -108.5 -74.5t-119.5 -37.5q9 -38 25 -69q10 -23 14 -31t-2 -11.5t-23 -6t-47 -14.5
q-50 -20 -93 -55t-77 -80.5t-59 -98t-38.5 -107t-15 -109t10.5 -102.5q15 -60 46 -86.5t69.5 -25t80 28t76.5 71.5q41 51 71 111.5t54 120.5q5 10 15 7q9 -3 5 -14q-22 -54 -47.5 -107t-59.5 -102q-21 -30 -51.5 -61t-66.5 -51.5t-75 -25t-76 18.5q-46 29 -67.5 88.5
t-20 134t25 154t67 148t107 117.5t144.5 61q-23 47 -35 92q-45 -6 -94 -6q-30 0 -71.5 0.5t-81 -6.5t-70.5 -26t-41 -59q0 -5 -4 -7.5t-8 -1.5q-5 0 -7.5 3.5t-1.5 8.5zM341 554q12 2 20 4q43 10 91 33t89 55.5t70 74t34 90.5q4 42 -12.5 63t-44.5 25t-61 -6.5t-62 -31.5
q-40 -29 -67 -64.5t-42 -75t-19 -82.5t4 -85z" />
    <glyph glyph-name="F" unicode="F" horiz-adv-x="849" 
d="M434 520q16 31 38 45.5t48 18t54.5 -0.5t57.5 -11q33 91 56.5 158.5t33.5 95.5q2 5 6 7t9 1q3 -2 12.5 -5.5t7.5 -8.5q-11 -30 -34 -97.5t-57 -158.5q22 -6 43 -9.5t38 -2.5t29.5 9t19.5 25q3 10 14 8q5 -1 6.5 -4.5t0.5 -8.5q-11 -27 -27.5 -40t-38 -16.5t-46.5 -0.5
t-51 9q-27 -73 -59 -153.5t-68 -161.5t-75.5 -158t-80.5 -142.5t-83.5 -116t-85 -78.5t-84.5 -29t-82 33q-36 30 -51 75.5t-14.5 98t14 109.5t35.5 111t49 101t55 81q24 28 52.5 53.5t60.5 42.5t67 23.5t72 -2.5l27 -9q9 -3 5 -14q-6 -9 -15 -6l-24 8q-37 9 -72.5 0t-67 -29
t-59 -48t-49.5 -57q-23 -31 -46 -74t-41.5 -92t-30 -100.5t-11.5 -99t14 -88t46 -67.5q34 -28 70.5 -24t75 33t77 79t77 114t75 139t71 153t65.5 156t57 148q-25 6 -49.5 10t-46 2t-40 -11.5t-31.5 -30.5q-5 -9 -15 -6q-4 2 -5 6t1 8zM307 620q14 77 35.5 129.5t50.5 84
t65.5 46t82 16t99 -7.5t116.5 -23q28 -6 61 -13t67.5 -10.5t69.5 -2.5t67 9.5t60 27t48 49.5l15 24q4 11 14 6q9 -3 5 -14q-34 -58 -75.5 -88t-87.5 -41t-96 -6.5t-100 15t-100 23t-97 17.5t-90 -0.5t-79 -31.5t-64 -76.5t-45 -134.5q-3 -10 -13 -10q-11 2 -9 12z" />
    <glyph glyph-name="G" unicode="G" horiz-adv-x="643" 
d="M-172 486q8 30 21.5 47t32 25t43 8.5t54.5 -1.5q44 -3 80.5 -7t70 -7t66 -4.5t68.5 0.5q39 63 79.5 120.5t81.5 104t81 80.5t77 52t75 19t67 -14t44 -44t5 -71q-15 -60 -60 -105.5t-104.5 -77t-124 -50.5t-118.5 -27q-20 -3 -37 -4.5t-34 -3.5q-36 -62 -68 -125.5
t-58 -124.5t-45.5 -115.5t-31.5 -98.5q-6 -22 -13 -53.5t-10.5 -66t-2.5 -69t11 -62t31.5 -44.5t57.5 -16q31 0 62 24t60.5 61.5t56 84t48.5 92.5q21 51 42 92t27 61q3 0 8.5 -5t11.5 -12.5t9.5 -15.5t1.5 -13q-7 -8 -21 -32.5t-32 -60t-38 -78t-39 -86t-35.5 -85
t-26.5 -73.5q-9 -27 -18.5 -57.5t-16.5 -61t-9.5 -61.5t3.5 -59q4 -11 -6 -14q-4 -2 -8 -0.5t-6 5.5l-6 31q-3 30 6.5 77t24.5 97t31 96t27 76l13 33q-22 -32 -44 -59t-44 -44q-29 -23 -63 -31t-64.5 -0.5t-55 29.5t-33.5 60q-15 56 -3.5 138t42.5 176t77.5 194.5
t101.5 194.5q-36 -2 -67.5 0t-63.5 5t-66.5 7t-76.5 7q-25 1 -45.5 1.5t-36.5 -5.5t-27.5 -19.5t-18.5 -38.5q-2 -10 -12 -8q-11 2 -9 12zM309 549q41 3 91 12q32 6 70 17t77 27.5t75.5 38t65.5 49t47.5 60.5t20.5 71q2 31 -11.5 48.5t-35 24t-47.5 3t-50 -14.5
q-39 -19 -78.5 -52.5t-78 -77.5t-75.5 -96.5t-71 -109.5z" />
    <glyph glyph-name="H" unicode="H" horiz-adv-x="824" 
d="M-102 394q19 24 45.5 56t58.5 58.5t67.5 41t72.5 4.5q33 -9 42 -48.5t3.5 -92.5t-20.5 -111t-29 -105l36 6q24 52 47.5 102t45 94.5t40.5 81.5t33 63q12 22 33 59.5t47.5 80.5t57.5 87t63 78.5t63.5 56t60.5 19.5l11 -2q5 -2 7.5 -5.5t0.5 -7.5q-1 -5 -4.5 -7.5
t-8.5 -0.5q-30 -3 -64.5 -33t-72.5 -80.5t-78 -117t-80 -142t-79 -156.5t-74 -160q69 13 144 27t146 24q52 119 113.5 229.5t127 198.5t133 146.5t131.5 73.5q11 0 11 -10q2 -10 -9 -12q-55 -11 -115.5 -66t-121 -139.5t-119 -192t-110.5 -223.5q44 5 83 6.5t71 -2.5
t54.5 -13.5t33.5 -26.5q5 -9 -5 -14q-8 -5 -13 1t-12 11q-28 21 -87.5 22t-135.5 -10q-51 -117 -92.5 -235t-68.5 -222t-36.5 -187.5t2.5 -132.5q2 -9 -8 -13q-11 -2 -13 8q-13 59 -5.5 145.5t31.5 189.5t62 216t86 225q-70 -11 -145 -25.5t-145 -26.5q-30 -69 -56.5 -133
t-47.5 -118t-36 -95t-22 -63q-2 -4 -6.5 -11t-10.5 -14.5t-11.5 -15t-7.5 -13.5h-1q-5 -12 -10 -12q-8 0 -11 12v1q-3 14 1 39.5t10.5 56.5t15.5 64t17.5 61.5t15 49t8.5 26.5q5 16 18.5 56t29.5 94q-70 -8 -116.5 -3.5t-52.5 32.5q-1 5 2 8t8 4t8 -2t3 -8q5 -19 47.5 -19
t108.5 11q16 54 30 111.5t20 106.5t0.5 82.5t-28.5 39.5q-33 9 -65.5 -6t-62 -40.5t-54 -55.5t-41.5 -51q-3 -4 -7.5 -4t-7.5 3q-8 6 -1 15zM130 172l-18 -55q-17 -53 -37 -113.5t-36 -122.5q25 67 56.5 143t66.5 153z" />
    <glyph glyph-name="I" unicode="I" horiz-adv-x="765" 
d="M312 711q17 34 47 72t67.5 70t79.5 52.5t83 19.5q39 -1 59.5 -21t28 -51.5t4 -71.5t-11.5 -80q-9 -41 -27.5 -112t-45.5 -158.5t-61 -183.5t-73.5 -185.5t-84 -166t-91 -124.5t-95 -60t-97.5 26q-39 30 -58 75.5t-23.5 98t4.5 109.5t26 111t40.5 101t48.5 81
q21 28 47 53.5t56.5 42.5t64.5 23.5t72 -2.5l28 -8q5 -2 6.5 -6t-0.5 -8q-4 -11 -14 -6l-25 7q-60 14 -115 -16t-99 -87t-74 -132t-40.5 -151t1 -143.5t50.5 -109.5q43 -46 87.5 -37t88.5 56t87 125t82 170.5t73 191.5t61.5 189t46.5 162.5t28 112.5q7 31 9.5 60.5t-3 52
t-20 36.5t-41.5 14q-38 1 -77 -19t-74 -50t-63 -65t-43 -66q-5 -9 -15 -6q-4 2 -5.5 6t0.5 8z" />
    <glyph glyph-name="J" unicode="J" horiz-adv-x="741" 
d="M311 694q17 37 48.5 80t72 79t87 57t91.5 14q32 -5 52 -25.5t29.5 -51.5t10.5 -69.5t-6 -80.5q-6 -39 -22 -103.5t-39.5 -145t-53.5 -172.5t-65.5 -186t-74.5 -185.5t-80.5 -171t-84.5 -142.5t-85.5 -100.5t-83 -44t-78.5 26.5q-35 31 -50.5 80t-17 108.5t9 124t26.5 126
t35 115.5t36 91q13 28 31.5 64t42.5 72t52 70t60 58.5t67 37t73 5.5l29 -8q10 -3 6 -14q-3 -10 -14 -6l-24 7q-47 8 -91 -17.5t-81 -66.5t-66 -88t-46 -82q-19 -37 -39.5 -89.5t-39 -112.5t-31 -123.5t-15 -122.5t7.5 -109.5t37 -85.5q30 -38 66 -33.5t75.5 41.5t80.5 101
t82.5 145.5t81 175.5t75.5 190.5t67 190t54.5 174.5t38.5 144.5t19 99.5q4 34 3 65t-10 54t-26.5 36t-46.5 13q-39 -1 -78 -23t-73.5 -54.5t-62 -70t-42.5 -70.5q-4 -9 -14 -6q-9 6 -6 14z" />
    <glyph glyph-name="K" unicode="K" horiz-adv-x="601" 
d="M-66 398q22 25 53 57t65.5 58t71.5 40.5t73 4.5q27 -8 33.5 -38t0 -72.5t-23 -92t-35 -95.5t-35.5 -83.5t-25 -55.5q-23 -53 -51 -113t-51 -122q14 29 46.5 90t77 140.5t98.5 171.5t112 183t118 175t115.5 148t104 101t85.5 34l11 -2q5 -1 6.5 -4.5t-0.5 -8.5
q-1 -5 -5 -7t-9 -1q-22 4 -52 -15t-65.5 -55t-75 -86.5t-82 -111t-85.5 -128.5t-85 -138q31 -33 38 -78t2 -93q-6 -43 -20 -99.5t-31.5 -118t-35.5 -125.5t-32 -123t-21 -109.5t-2 -85.5q3 -24 12 -41t23 -24.5t32 -3.5t41 23l29 29q8 8 15 2q4 -2 4 -6.5t-3 -8.5l-32 -32
q-46 -38 -84.5 -28.5t-52.5 61.5q-9 29 -7 74.5t11 99.5t22.5 112t28 114t27.5 104.5t21 83.5q5 25 12 59t10 69.5t-0.5 68t-19.5 55.5q-56 -94 -107.5 -185.5t-93 -169t-70.5 -134.5t-40 -82q-1 -4 -5.5 -10.5t-10.5 -14t-11.5 -15t-8.5 -13.5v-1h-1q-7 -12 -12 -12
q-7 0 -9 12v1q-1 14 5.5 40t17 57t23.5 63.5t25 61t21 49t12 26.5q7 16 26.5 58.5t43.5 97.5t46.5 115.5t36.5 112t13.5 87.5t-23.5 43q-32 9 -66.5 -6t-67 -41t-60.5 -56t-47 -51q-9 -8 -16 -1q-3 3 -2.5 7.5t3.5 7.5z" />
    <glyph glyph-name="L" unicode="L" horiz-adv-x="719" 
d="M739 630q16 27 31.5 62t22.5 71t2.5 69t-26.5 56q-27 28 -67.5 4.5t-89.5 -82t-103.5 -144.5t-110 -183.5t-109.5 -199t-101 -190.5t-84.5 -157.5t-60.5 -101.5l10 -5q25 -13 66.5 -36t93.5 -49.5t111.5 -53.5t120.5 -47t120.5 -31t110.5 -6t90.5 29t61.5 74l10 27
q1 5 10 7.5t14 1.5q11 -2 7 -13l-11 -29q-24 -55 -66 -82.5t-95.5 -35t-115.5 2.5t-126 30t-126.5 47t-117.5 54.5t-99.5 52t-71.5 38.5q-3 2 -5.5 3t-5.5 2q-33 -46 -75 -77t-77 -45q-25 -10 -36.5 2t-11 34t13 49.5t35.5 48t56.5 29t75.5 -6.5q19 25 47.5 75t64 117
t76.5 146t85.5 161.5t91.5 163.5t93.5 152.5t91.5 129t86 91.5t76.5 41t63.5 -22q25 -26 30.5 -62t-1.5 -75t-23 -77.5t-35 -69.5q-2 -4 -7 -5.5t-8 0.5q-4 2 -4.5 6.5t1.5 8.5zM-4 -170q-29 9 -52 5.5t-40.5 -14.5t-29 -27.5t-17.5 -32.5t-6.5 -29t4.5 -18q9 -8 25.5 0.5
t36 26.5t40.5 42t39 47z" />
    <glyph glyph-name="M" unicode="M" horiz-adv-x="1102" 
d="M-95 384q19 24 45.5 56t58.5 58.5t67.5 41t72.5 4.5q28 -8 38.5 -38.5t9 -73t-11.5 -92t-23 -95.5t-25 -83.5t-18 -55.5q-17 -54 -38 -117.5t-37 -127.5q5 13 21.5 52t41.5 95t57.5 124.5t70 142t78.5 147.5t82.5 140t82.5 119.5t78.5 86.5t70.5 41.5t59 -16.5
q19 -19 22 -56.5t-5 -87.5t-24.5 -109t-37.5 -120.5t-43.5 -122.5t-42.5 -114q29 54 64 118t74 131t80.5 134t84.5 126t85.5 107.5t83 79t77 40t68.5 -9.5q23 -14 25.5 -49t-9 -84.5t-34.5 -109t-51 -121.5t-59 -123t-59 -113t-50 -92t-32 -60q-47 -90 -92 -184.5t-81 -185
t-58.5 -175t-24.5 -154.5q0 -5 -11.5 -7.5t-16.5 -2.5q-11 0 -11 10q1 64 18.5 136.5t44.5 148.5t62 153.5t71.5 151.5t72.5 141.5t66 124.5q7 13 22.5 42.5t36.5 70t45 88t46.5 96.5t41 96t29 85t10.5 64t-14 34q-30 17 -69.5 -4t-84.5 -67.5t-93 -113t-95 -141
t-90.5 -150.5t-80 -142t-63.5 -116.5t-40 -72.5q-21 -36 -37 -54.5t-23.5 -18.5t-5 19t16.5 58q15 42 38.5 102t49 127.5t49 137t39 131t19.5 109.5t-10 73q-22 24 -52.5 13.5t-67 -47t-77 -95t-82 -129.5t-83 -150.5t-79.5 -158t-71 -151.5t-58.5 -132t-42 -99.5
t-20.5 -53.5q-1 -2 -6 -12.5t-11.5 -22t-12.5 -20.5t-8 -9q-7 0 -9.5 8.5t-2.5 19t1.5 19.5t1.5 11q4 31 14.5 71.5t21 78t19.5 66t11 36.5q5 16 19.5 58.5t31 97.5t31.5 115t22 111.5t2.5 88t-28.5 42.5q-33 9 -65.5 -6t-62 -40.5t-54 -56t-41.5 -51.5q-3 -3 -7.5 -3.5
t-7.5 2.5q-8 7 -1 16z" />
    <glyph glyph-name="N" unicode="N" horiz-adv-x="845" 
d="M-88 391q19 25 45.5 57t58.5 58t67.5 40.5t72.5 4.5q28 -8 38 -38t8.5 -72.5t-11.5 -92t-22.5 -95.5t-25 -83.5t-17.5 -55.5q-14 -45 -31 -95.5t-32 -103.5q19 52 41.5 108.5t46 113t48.5 112t47.5 105t43 91t36.5 71.5q13 25 38 71.5t57 98.5t70.5 103t79.5 85t82 45
t79 -17q31 -23 40.5 -67t4 -99t-21.5 -116t-36 -117.5t-40 -104t-32 -74.5q-21 -45 -52.5 -112t-66.5 -145t-69.5 -161.5t-59.5 -161.5t-37 -146t-3 -115l9 -29q4 -11 -6 -14q-10 -5 -14 6l-10 33q-9 47 1 111.5t32.5 138t53.5 151.5t63 151t62 136t50 107q12 25 33.5 74.5
t44.5 111t43.5 128t30 126t3.5 105.5t-35 65q-30 20 -66.5 5.5t-76.5 -54.5t-82 -102t-84.5 -137t-83.5 -159t-78.5 -167.5t-70 -163t-58 -146t-43 -115.5t-24.5 -72q-2 -8 -12 -24.5t-15 -28.5v-1q-5 -12 -11 -12q-7 0 -10 12v1q-3 14 0.5 40t10.5 57t16 63.5t17.5 61
t15 49t8.5 26.5q5 16 19.5 58.5t31 97.5t31.5 115.5t22 112t2 88t-29 42.5q-33 9 -65.5 -6t-61.5 -41t-53.5 -56t-41.5 -51q-7 -8 -16 -1q-3 3 -3 7.5t3 7.5z" />
    <glyph glyph-name="O" unicode="O" 
d="M204 429q16 66 38.5 135.5t54 132.5t72.5 115.5t93 84.5q42 26 73 27.5t52.5 -15.5t32.5 -50t12 -76q2 -64 -15.5 -156t-49.5 -196.5t-75.5 -212t-93 -203t-103 -170t-105.5 -112.5q-36 -26 -67.5 -30.5t-55 9.5t-37.5 44t-16 72q-3 53 13 126t43 154t62 164t72 157z
M192 291l4 24t4 25q-6 -13 -20 -45.5t-31.5 -78t-36 -99t-34 -108t-25 -105t-8.5 -90.5t14.5 -64.5t45.5 -26.5t72 28q31 23 70 77t80.5 128.5t82.5 163.5t77 181.5t63.5 183.5t42 169.5t13.5 138.5t-23 91q-14 20 -41 20.5t-69 -25.5q-41 -26 -74.5 -65.5t-61 -87.5
t-49.5 -102t-38 -109q34 60 62 100q10 14 14.5 20.5t8.5 10.5t9 8.5t16 14.5q9 5 15 -4q2 -4 8.5 -8t2.5 -6q-9 -8 -13 -12t-7 -8l-7.5 -10l-13.5 -18q-24 -34 -51 -80.5t-54 -100.5q-9 -36 -15.5 -70t-11.5 -64q-2 -11 -12 -9q-11 2 -9 12z" />
    <glyph glyph-name="P" unicode="P" horiz-adv-x="601" 
d="M-90 391q19 24 45.5 56t58.5 58.5t67.5 41t72.5 4.5q28 -8 38.5 -38.5t9 -73t-11.5 -92t-23 -95.5t-25 -83.5t-18 -55.5q-11 -35 -24 -74t-25.5 -79.5t-23.5 -82t-18 -80.5q26 74 50.5 155t47.5 151q9 27 25.5 78.5t39.5 116.5t51.5 139t60.5 146t67.5 136.5t72.5 111.5
t75 71.5t76 15.5q42 -10 68.5 -40t37 -73t5 -94.5t-27 -103.5t-59 -101t-91.5 -87t-124.5 -61t-157.5 -24l-18 -53q-5 -13 -18 -53.5t-31 -95t-38.5 -117t-40 -120t-35.5 -103.5t-25 -68q-2 -3 -12.5 -9t-12.5 -7q-14 -8 -16 11t3 52t15.5 74t21 78t19 63.5t9.5 30.5
q4 12 13 39.5t21 64t24.5 80t23.5 87.5t18.5 85.5t8.5 74.5t-6 55t-25 27q-33 9 -65.5 -6t-62 -40.5t-54 -56t-41.5 -51.5q-3 -3 -7.5 -3.5t-8.5 2.5q-7 7 0 16zM258 356q64 1 118.5 14.5t100 41t83 70t68.5 101.5q12 23 23.5 53t18.5 62.5t8.5 64.5t-6.5 59t-26.5 47
t-51.5 28t-66 -16t-64.5 -69t-61 -104.5t-56 -122t-49 -123t-39.5 -106.5z" />
    <glyph glyph-name="Q" unicode="Q" horiz-adv-x="662" 
d="M239 -209q13 -34 28 -69t31 -63.5t32.5 -47.5t33.5 -22q13 -2 22 3t19 12q1 1 4.5 -3t6 -10t3 -12t-3.5 -9q-13 -8 -23 -13.5t-26 -5.5q-23 0 -43.5 20.5t-38.5 52t-34 70.5t-29 77q-12 -12 -23.5 -22.5t-22.5 -18.5q-36 -26 -67.5 -30.5t-55 9.5t-37.5 44t-16 72
q-3 53 13 126t43 154t62 164t72 157q16 66 38.5 135.5t54 132.5t72.5 115.5t93 84.5q41 26 72.5 27.5t52.5 -15.5t32.5 -50t12.5 -76t-6.5 -99.5t-23 -121.5t-37 -135.5t-48.5 -142.5t-58 -142t-64.5 -134t-69 -118.5t-71.5 -95.5zM68 -26q24 16 43 16t33.5 -11t26.5 -30.5
t23 -41.5q7 -15 15.5 -38t19.5 -50q34 45 70.5 109t72.5 138.5t70 156.5t62 163t49 158.5t30.5 143t6.5 116t-22 77.5q-14 20 -41 20.5t-69 -25.5q-41 -26 -74.5 -65.5t-61.5 -87.5t-49.5 -102.5t-38.5 -109.5q17 30 33 55.5t30 45.5q10 14 14.5 20.5t8.5 10.5t9 8.5
t16 14.5q9 5 14 -4q2 -4 9 -8.5t3 -6.5l-13.5 -12t-7.5 -7.5t-7 -9.5t-13 -19q-24 -33 -51 -79.5t-54 -101.5q-9 -36 -15.5 -69.5t-11.5 -63.5q-2 -11 -12 -9q-11 2 -9 12l4 24l4 24q-6 -12 -20 -45t-31.5 -78t-36 -98.5t-34 -108t-25 -105t-8.5 -90.5t14.5 -64.5
t45.5 -26.5t72 27q11 8 23.5 21t26.5 29q-11 31 -20.5 57t-17.5 43q-8 18 -17 34t-19.5 25.5t-24.5 11t-32 -10.5q-8 -7 -15 2q-7 8 2 15z" />
    <glyph glyph-name="R" unicode="R" horiz-adv-x="698" 
d="M-90 395q19 24 45.5 56t58.5 58.5t67.5 41t72.5 4.5q28 -8 38.5 -38t9 -72.5t-11.5 -92t-23 -95.5t-25 -83.5t-18 -55.5q-11 -35 -24 -74t-25.5 -79.5t-23.5 -82t-18 -80.5q13 37 26 76t25 78.5t24 77.5t23 73q9 27 25.5 78.5t39.5 117t51.5 139t60.5 145.5t67.5 137
t72.5 112t75 71.5t76 15.5q55 -13 83.5 -60.5t29 -111t-26.5 -134.5t-82.5 -131.5t-139 -101.5t-195.5 -45q42 -35 67 -66.5t36 -69t10.5 -84t-9.5 -111.5q-9 -64 -20 -132.5t-18.5 -133t-8.5 -120t9 -93.5q6 -24 17.5 -41t26.5 -24.5t33 -4t38 22.5l24 29q7 9 15 3t3 -15
l-28 -32q-41 -38 -81 -28.5t-61 61.5q-12 29 -16 73.5t-2.5 96t7.5 108t12.5 110t13 100.5t9.5 82q3 27 -1 62.5t-15 72t-31.5 69.5t-50.5 56l-15 -44q-5 -13 -18 -53.5t-31 -95t-38.5 -117t-40 -120.5t-35.5 -104t-25 -68q-2 -2 -12.5 -8.5t-12.5 -7.5q-14 -7 -16 12t3 52
t15.5 74t21 78t19 63t9.5 30q5 16 19.5 58.5t31 97.5t31.5 115t22 112t2.5 88t-28.5 42q-33 9 -65.5 -6t-62 -40.5t-54 -55.5t-41.5 -51q-3 -4 -7.5 -4t-7.5 3q-4 3 -4 7.5t3 7.5zM258 360q64 1 118.5 14.5t100 41.5t83 70.5t68.5 101.5q12 23 23.5 53t18.5 62t8.5 64.5
t-6.5 59.5t-26.5 47t-51.5 28t-66 -16.5t-64.5 -69t-61 -104.5t-56 -122.5t-49 -123t-39.5 -106.5z" />
    <glyph glyph-name="S" unicode="S" horiz-adv-x="719" 
d="M663 497q27 32 50 69t37 76.5t17 80.5t-11 82q-15 46 -46.5 67.5t-70.5 24t-81.5 -13.5t-80.5 -45q-52 -40 -87 -89.5t-53.5 -105t-22.5 -115t6 -119.5q7 -45 19 -92.5t23.5 -96t19.5 -98t7.5 -98t-12.5 -96.5t-40 -93q-34 -55 -80.5 -83t-93.5 -32t-89 15.5t-67 58
t-27 95t30 128.5q23 53 56 92t75 76q8 7 16 -1q6 -7 -2 -15q-34 -29 -60.5 -58.5t-49.5 -68.5q-37 -65 -44 -118t7 -92t45 -61.5t69.5 -26t80.5 15t78 61.5q53 63 66 137t5 151.5t-27 153t-29 141.5q-10 63 -6.5 128t22.5 126t54.5 115.5t90.5 96.5q43 33 91.5 47t93.5 8
t81 -33.5t54 -78.5q15 -44 12.5 -88t-17.5 -86t-39.5 -81.5t-53.5 -74.5q-3 -3 -7.5 -3.5t-7.5 2.5q-4 3 -4 7.5t3 7.5z" />
    <glyph glyph-name="T" unicode="T" horiz-adv-x="759" 
d="M683 828q-10 -25 -29.5 -76t-46.5 -119t-61.5 -149t-74.5 -164.5t-83.5 -165.5t-90 -152.5t-93.5 -125t-94 -84t-92.5 -28.5t-87.5 41q-36 34 -50.5 81t-14 100t15 109t37 107.5t50.5 96.5t56 76q24 26 53 48.5t60.5 36.5t66.5 17t71 -9l28 -12q8 -5 4 -14q-2 -5 -6 -6.5
t-8 2.5l-25 9q-37 12 -72 6.5t-66.5 -22.5t-59.5 -42t-50 -52q-23 -29 -46.5 -70t-42.5 -88t-31 -97.5t-13 -98.5t12 -90.5t44 -72.5q46 -43 98.5 -28t107 70t110 141t107.5 185.5t98.5 203t84 193.5t63.5 157.5t37 95.5q3 10 13 6q5 -2 14 -6.5t7 -9.5zM233 672
q23 114 61 171.5t93.5 74.5t128.5 1.5t167 -46.5q42 -14 93.5 -28t103 -17t97.5 11t78 58l14 24q5 8 14 3q11 -4 4 -14q-35 -55 -76 -81t-87 -32.5t-95 3t-99 25t-99.5 33t-96.5 27.5t-89.5 8t-79 -24.5t-65 -70.5t-47.5 -130q0 -5 -3 -7.5t-8 -0.5q-5 1 -8 4t-1 8z" />
    <glyph glyph-name="U" unicode="U" horiz-adv-x="702" 
d="M20 533q21 32 49.5 73t63 75t74.5 52.5t84 6.5q36 -11 47.5 -44t5 -82t-28.5 -111.5t-51.5 -130.5t-64.5 -139.5t-68 -139.5t-60.5 -129t-44 -109t-17.5 -79t20 -39q25 -10 60 12.5t75.5 67.5t84.5 107t87.5 131.5t85 141.5t76.5 136q35 80 68.5 158.5t66.5 156.5
q4 9 14.5 32.5t23.5 54t27.5 63.5t27.5 61t23 46t14 19q16 4 17.5 -13t-5 -45.5t-19 -64t-26 -68t-24 -57l-13.5 -31.5q-6 -14 -20.5 -43.5t-35.5 -70.5t-47.5 -92t-56.5 -107q-5 -13 -22.5 -56t-42.5 -104t-54.5 -135t-59 -150t-57.5 -148.5t-49 -129.5t-32.5 -94t-9.5 -42
q3 -3 2 -7.5t-5 -7.5t-8.5 -3t-6.5 4q-7 12 -1.5 44.5t16.5 69.5t23.5 71.5t18.5 51.5q42 117 88.5 235.5t95.5 237.5q-39 -67 -79 -131.5t-80.5 -120.5t-79 -100.5t-73 -71.5t-64.5 -33t-52 15q-17 17 -16 52.5t13.5 81.5t32.5 97.5t42 99.5t41.5 88.5t30.5 64.5
q10 21 32 64.5t46.5 97t47.5 111.5t34.5 107.5t7.5 84.5t-32 43q-38 11 -74 -7.5t-67.5 -51t-58 -71t-45.5 -66.5q-5 -9 -13 -5q-11 5 -3 15zM736 829q-17 -45 -42.5 -101t-47.5 -105q11 23 23.5 49.5t24.5 53.5t22.5 53.5t19.5 49.5z" />
    <glyph glyph-name="V" unicode="V" horiz-adv-x="559" 
d="M-73 537q16 32 39 73t53 75t67.5 52.5t82.5 6.5q37 -11 53 -44t16.5 -83t-12.5 -112.5t-33 -131.5t-44 -141t-47 -140t-42 -129t-27.5 -108.5t-5 -78t26.5 -36.5q27 -8 61 27t71 98.5t75.5 148.5t75.5 177.5t70.5 185.5t61.5 173t47.5 139t28.5 84q13 35 28 76t33 74
q2 4 6.5 5t8.5 -2q4 -2 4.5 -6.5t-1.5 -8.5q-11 -19 -18.5 -38.5t-15.5 -39.5q-50 -132 -94.5 -265.5t-94.5 -266.5q-6 -17 -19.5 -54.5t-33 -86.5t-43.5 -105.5t-51 -111t-56 -102t-58 -79t-57.5 -42t-53.5 8.5q-20 15 -25 48.5t0 76.5t17 92t26.5 95t28 84.5t20.5 60.5
q7 21 23 67t33.5 103t33 118t20.5 113.5t-4 90t-39 45.5q-39 11 -72.5 -7.5t-61 -51t-48 -71t-34.5 -66.5q-5 -8 -15 -5q-8 5 -5 15z" />
    <glyph glyph-name="W" unicode="W" horiz-adv-x="833" 
d="M-67 726q18 31 44 70t58.5 70.5t71 47.5t82.5 0q37 -14 50.5 -50.5t9 -89t-23.5 -117.5t-45 -135.5t-56.5 -142.5t-59 -139.5t-50.5 -126.5t-32 -102.5t-4 -68t35 -23.5q27 1 64 40.5t78.5 101t84 136.5t80.5 147t67.5 133.5t45.5 95.5q10 22 18 21t13 -11t8 -22.5
l3 -12.5q-30 -77 -69.5 -163.5t-81.5 -178.5t-82.5 -187t-71.5 -190q-2 -7 -9.5 -26t-15.5 -42.5t-14 -48.5t-6 -43.5t8.5 -27.5t30.5 0q35 14 81 69.5t99 139t110.5 187.5t114.5 215.5t111.5 223t102 209.5t85.5 175.5t62 121.5q4 8 6.5 12t4 6.5t3.5 5t5 8.5q3 4 8 5t7 -2
q8 -6 3 -15q-14 -21 -28.5 -47.5t-28.5 -55t-27 -56t-25 -50.5q-15 -32 -47 -99.5t-74.5 -156t-94 -191t-106 -204.5t-110 -196.5t-106.5 -167.5t-95 -117t-75 -45q-24 -1 -35.5 12t-15 34t-0.5 47t9 51t12 46t10 32q39 120 91.5 237t105.5 235q-14 -28 -29 -54.5t-30 -52.5
q-9 -15 -27.5 -48t-43.5 -72t-54.5 -78.5t-59.5 -66.5t-58.5 -36.5t-51.5 10.5q-19 16 -21.5 50t6 77t24 91t33 92.5t34 82t25.5 59.5q9 21 28.5 65t41.5 99.5t41.5 115.5t28.5 111.5t3 89.5t-36 48q-38 14 -72.5 -2t-64 -46t-53.5 -66.5t-40 -63.5q-5 -11 -14 -4
q-11 6 -4 15z" />
    <glyph glyph-name="X" unicode="X" horiz-adv-x="668" 
d="M954 883q-31 21 -61 20.5t-58.5 -14t-54.5 -35t-48 -43.5q-47 -45 -95.5 -105.5t-97 -129t-96 -140.5t-91.5 -140q-4 -87 -8.5 -176t-6.5 -174t-1 -162t9 -138t23 -103t41 -57q9 -5 5 -14q-5 -10 -15 -5l-13 8q-26 18 -42.5 57t-26 88.5t-13.5 105.5t-5 109.5t0 99
t2 74.5q2 38 5 97t6 129l-68 -103q-18 -26 -48.5 -71t-69.5 -96.5t-84 -101.5t-91 -85t-91.5 -48.5t-85.5 8.5q-34 19 -53.5 51t-34.5 65q-4 11 6 14q4 2 8 0.5t6 -5.5q14 -30 31.5 -59.5t46.5 -46.5q35 -20 77 -5t86 50.5t87.5 85t81 99t66.5 92.5t44 65q20 30 42.5 63.5
t45.5 69.5q3 72 5 147.5t0.5 143.5t-7 122.5t-17.5 84.5q-11 27 -27 33.5t-34.5 -1t-38 -25t-37 -37.5t-31.5 -38.5t-22 -28.5q-6 -8 -15 -2q-9 7 -2 15q96 125 159 141t91 -75q9 -30 14 -74.5t6 -98.5t0 -116.5t-4 -129.5q43 66 88 134t91.5 132.5t92.5 121t91 100.5
q26 25 55 49t60.5 37.5t65.5 12.5t69 -25q9 -7 2 -15q-6 -9 -15 -2z" />
    <glyph glyph-name="Y" unicode="Y" horiz-adv-x="716" 
d="M25 537q20 33 48.5 74t63 74.5t74.5 52t83 6.5q36 -10 48 -43t5.5 -82.5t-28 -111.5t-50.5 -130.5t-63 -140t-66.5 -139t-60 -129t-43 -109t-16 -79t20.5 -39.5q28 -11 66.5 16.5t83 80.5t92.5 125.5t95 151.5t90 159.5t78 148.5q8 19 14 34.5t10 26.5q5 13 19 49.5
t32.5 85t39.5 101t41 98t36 76t25 34.5q21 10 24 -7.5t-5.5 -52t-27 -82t-40.5 -98.5t-45.5 -101.5t-43.5 -90.5l-32.5 -65t-13.5 -26l-59 -152q-14 -34 -39.5 -96t-60.5 -140.5t-78 -166.5t-91 -173t-100 -161.5t-105 -131.5t-106.5 -82.5t-103.5 -14.5q-12 4 -18.5 6.5
t-19.5 8.5q-2 2 -3 6t1 8q7 10 16 5q10 -5 15.5 -7.5t16.5 -5.5q51 -12 107.5 28t115 114t116 174t111 209t101 218t84.5 201q-41 -74 -84 -148t-86.5 -139.5t-86 -119t-80.5 -86.5t-71 -42t-57 14q-17 17 -16 52.5t13 81.5t31.5 97.5t40.5 99.5t40.5 88.5t30.5 64.5
q10 21 31.5 64.5t45.5 97.5t46.5 111.5t33.5 107t7 84.5t-33 43q-38 11 -73.5 -7.5t-67 -51t-57.5 -70.5t-44 -66q-7 -10 -16 -5q-3 2 -3.5 6t1.5 8zM646 623q9 21 24 54t31 70t30 72t22 60q-9 -18 -21 -45.5t-26 -61t-29 -71.5t-31 -78z" />
    <glyph glyph-name="Z" unicode="Z" horiz-adv-x="748" 
d="M259 599q10 22 22.5 52t28 63t33 66t37.5 61.5t42.5 49.5t46.5 30q39 13 69 8.5t60.5 -11t67 -8t88.5 19.5l4 5q2 4 14 23t27 36.5t30.5 26t25.5 -7.5q8 -14 0 -29t-23 -29t-32.5 -25t-28.5 -16q-32 -60 -62.5 -120t-64 -118.5t-73 -114.5t-90.5 -108q37 -34 49 -99.5
t3 -147.5t-36 -174.5t-68 -181.5t-93.5 -167.5t-111 -133.5t-122 -78.5t-126.5 -2.5q-45 15 -71 47.5t-37.5 75.5t-10.5 93t10.5 100t25 96t32.5 82q23 48 54 94t69 85t84 68t99 43l34 7q5 1 8.5 -1.5t3.5 -7.5q-2 -10 -10 -12l-33 -7q-50 -13 -93.5 -41t-80 -65.5
t-65.5 -81.5t-50 -89q-16 -33 -30.5 -76t-23.5 -90t-11 -94.5t7.5 -88.5t33 -71.5t64.5 -44.5q55 -18 111 5.5t109 76.5t101 128t86.5 160t66.5 172.5t40 165.5t7 139t-32 92l-9 9q-23 -24 -45 -38t-39 -14q-19 0 -28.5 12t-10.5 28t6 32.5t22 25.5t37.5 7t52.5 -23
q40 46 76 99.5t70.5 109.5t68 114t66.5 113q-49 -16 -84.5 -14t-65 8.5t-57 10.5t-60.5 -7q-22 -8 -42.5 -28t-39 -48t-35.5 -60t-31.5 -64t-26 -60.5t-20.5 -48.5q-6 -9 -15 -6q-9 4 -5 13zM445 450q-18 13 -35 16.5t-29 -1.5t-16.5 -17t1.5 -29q8 -21 29 -10t50 41z
M789 947q18 11 33.5 25.5t12.5 27.5q-9 -1 -20.5 -16t-25.5 -37z" />
    <glyph glyph-name="bracketleft" unicode="[" horiz-adv-x="323" 
d="M386 854q-8 0 -23 2t-30.5 2.5t-29.5 -2t-20 -10.5q-5 -6 -15.5 -36t-24.5 -75.5t-29.5 -102.5t-32 -117.5t-32 -120.5t-29 -111t-23 -89.5t-13.5 -55.5q-3 -13 -9 -38t-12.5 -56.5t-13 -66t-11 -65t-6.5 -53.5t1 -33q27 0 53 1.5t53 1.5q11 0 11 -10q0 -11 -11 -11
q-12 0 -29 -1t-35 -1.5t-34.5 -1t-28.5 0.5q-11 0 -15 14.5t-4 36t3.5 47t8 49t8.5 41t5 23.5q18 88 40.5 182.5t47 189t51.5 187.5t54 179q16 51 27.5 77.5t28 37t44 10t75.5 -2.5q11 0 11 -11t-11 -11z" />
    <glyph glyph-name="backslash" unicode="\" horiz-adv-x="521" 
d="M-2 921q-1 5 4 8.5t10 3.5q5 1 10 -1.5t6 -7.5q14 -41 31 -84.5t36 -88t38 -88.5t36 -84q72 -170 145 -344.5t151 -339.5l12 -26q2 -5 -1 -9t-8 -6q-4 -2 -10.5 -1t-8.5 6l-33 71q-76 170 -149 341t-145 343q-15 35 -32 74t-33.5 79t-32 79.5t-26.5 74.5z" />
    <glyph glyph-name="bracketright" unicode="]" horiz-adv-x="310" 
d="M-111 -160q8 0 23 -2t30.5 -2.5t29.5 2t20 10.5q5 6 15.5 36t24 75.5t29.5 102.5t32.5 117.5t32 120.5t29 111t23 89.5t13.5 55.5q3 13 9 38t12.5 56.5t13 66t11 65t6.5 53.5t-1 33q-27 0 -53 -1.5t-53 -1.5q-11 0 -11 10q0 11 11 11q12 0 29 1t35 1.5t34.5 1t28.5 -0.5
q11 -1 15 -15t4 -35.5t-3.5 -47t-8 -49t-8.5 -41t-5 -23.5q-18 -89 -40.5 -183t-47 -188.5t-51.5 -187.5t-54 -179q-16 -51 -27.5 -77.5t-28 -37t-44 -10t-75.5 2.5q-11 0 -11 11t11 11z" />
    <glyph glyph-name="asciicircum" unicode="^" horiz-adv-x="833" 
d="M636 471q-45 18 -105 49t-122 69t-120.5 79t-100.5 80q13 -46 19.5 -86t8 -79t-2.5 -79t-13 -85q-1 -3 -6 -6.5t-11.5 -6.5t-12.5 -4.5t-8 -1.5q-11 2 -8 12q10 54 19.5 104t10.5 98t-9 96t-38 100h1q-3 8 -2 11.5t4.5 4t8 -1t6.5 -4.5l8 -10q37 -50 100 -94.5
t134.5 -83.5t143.5 -70.5t126 -53.5q10 -5 5 -16q-1 -2 -6 -6t-11 -7.5t-11.5 -6t-7.5 -1.5z" />
    <glyph glyph-name="underscore" unicode="_" horiz-adv-x="608" 
d="M573 -197q-28 -1 -70 -2t-90 -2t-100 -1.5t-100 -1t-90 -1t-70 -1.5q-5 -1 -8 4t-3 10q-1 5 2 10.5t8 5.5q28 1 70 1.5t90 1t100 1.5t100 1.5t90 1.5t70 2q5 1 8 -4t3 -10q1 -5 -2 -10t-8 -6z" />
    <glyph glyph-name="grave" unicode="`" horiz-adv-x="108" 
d="M6 496q1 0 5.5 2t10 5t10 5t5.5 2q-5 -6 -3.5 -23t5.5 -35.5t7.5 -33.5t3.5 -16q-2 -3 -11.5 8t-18.5 27.5t-14 33t0 25.5z" />
    <glyph glyph-name="a" unicode="a" horiz-adv-x="303" 
d="M90 300q13 29 18 42t7 15q8 3 14.5 0t10.5 -10t5 -16.5t-1 -17.5q-3 -3 -14.5 -30.5t-24.5 -65t-22.5 -77t-9.5 -67t14.5 -35.5t50.5 19q21 16 42.5 40t41.5 51t37.5 54t30.5 50q2 4 6.5 5t8.5 -1t5 -6.5t-1 -8.5q-13 -23 -37 -60t-53 -73t-61 -63t-60 -29
q-24 -2 -35.5 12t-14.5 37.5t1.5 54.5t12.5 64q-17 -32 -32.5 -55t-29.5 -24q-22 -1 -31 17.5t-8 45.5t11.5 56.5t27.5 52t39.5 32t47.5 -4.5zM73 287q-9 6 -20.5 -3.5t-22.5 -26.5t-20.5 -39t-15 -41.5t-5 -33.5t8.5 -16q7 3 17.5 19.5t22.5 39.5t23.5 49.5t21.5 49.5
q-6 -2 -10 2z" />
    <glyph glyph-name="b" unicode="b" horiz-adv-x="445" 
d="M23 243l-33 -76q15 16 32 32.5t33.5 30.5t32.5 23t29 10q23 1 30 -11t3.5 -31.5t-14 -43t-22.5 -44.5q52 24 106 46.5t100.5 40t82 29.5t49.5 16q10 2 12 -9q2 -10 -8 -12q-16 -5 -55.5 -18.5t-90.5 -33.5t-108 -44.5t-109 -49.5q-6 -10 -20 -28t-31.5 -39t-37.5 -40.5
t-38.5 -31.5t-33.5 -13t-23 16q-8 16 0 34.5t28.5 38t52 40.5t72.5 41q1 1 8 11.5t16.5 25t19 31.5t15 30.5t5 21.5t-11.5 6q-13 -3 -33.5 -19.5t-41.5 -37t-40.5 -40.5t-29.5 -30l-1 -1l-9 -7q-11 -2 -14 5.5t-4 17.5q-1 11 2 26q16 40 46.5 105.5t69 142.5t82.5 158
t88.5 152.5t86 126t75.5 78.5q9 6 21 8.5t23 1t19 -7.5t9 -18q1 -29 -23.5 -82.5t-64 -119t-89 -136t-97.5 -133.5t-89.5 -113t-64.5 -73q-4 -5 -12 -3zM42 285q28 32 68 81.5t83 108t86 120.5t78 118.5t58 104t26 75.5q2 17 -6.5 15.5t-22.5 -13.5t-31 -31.5t-32 -38.5
t-25.5 -33t-12.5 -16q-74 -107 -142 -235t-127 -256zM33 76q-55 -29 -83 -55.5t-23 -44.5q2 -7 11 -2.5t23 18.5t32.5 35.5t39.5 48.5z" />
    <glyph glyph-name="c" unicode="c" horiz-adv-x="230" 
d="M71 282q2 28 -2 36.5t-10 3.5q-10 -9 -23 -35t-24 -59.5t-18 -69t-6.5 -63t11.5 -43.5t36 -9q24 6 50.5 31.5t51 58t45.5 65.5t34 53q2 4 6.5 5t8.5 -1q8 -6 3 -15q-14 -23 -37 -59t-50.5 -71t-57.5 -61t-58 -29q-36 -3 -53.5 17.5t-21.5 54t4 74t22 77t32.5 64
t36.5 35.5q15 7 24 1t13 -17t4.5 -24.5t-0.5 -22.5q0 -5 -3.5 -7.5t-8.5 -1.5q-4 0 -7 3.5t-2 8.5z" />
    <glyph glyph-name="d" unicode="d" horiz-adv-x="446" 
d="M503 917q9 6 21.5 10.5t24 4.5t20 -6t9.5 -20q2 -30 -22.5 -83.5t-64.5 -118.5t-89 -135.5t-97 -134t-89.5 -113t-64.5 -73.5q-4 -4 -12 -2q-31 -68 -57 -133.5t-44.5 -124t-27 -107.5t-4.5 -84q5 -40 22.5 -47.5t42.5 8t55.5 48.5t62.5 74t62 85.5t54.5 82.5t41 64.5
t19.5 32.5l66 108q2 4 6.5 4.5t8.5 -1.5q8 -5 3 -15q-12 -20 -35 -59t-53 -87.5t-65 -101.5t-71 -101.5t-71.5 -88t-66.5 -59.5q-15 -10 -36 -14.5t-33 -2.5q-27 4 -38.5 26.5t-13 56t6 74t18 81t23 76.5t21.5 61q-25 -38 -41.5 -52.5t-37.5 -12.5q-22 2 -32 21.5t-7 48.5
q3 28 13.5 58.5t28 57t40.5 45.5t51 25q19 4 34.5 -2t23.5 -19q26 56 58 119.5t66.5 128.5t71 127t71.5 115.5t67.5 93.5t59.5 61zM158 289q29 32 68.5 82t83 108t86.5 119.5t77.5 118.5t57.5 104t26 75q2 18 -7 16t-24 -15t-32.5 -33.5t-33 -39.5t-26 -33l-10.5 -14
q-23 -33 -54 -85.5t-66.5 -117t-73 -138t-72.5 -147.5zM94 249q0 7 -4.5 13t-9.5 8q-18 4 -36.5 -8t-35 -33.5t-30 -48.5t-21.5 -52t-9 -44t8 -25q6 -5 17 4.5t24 25.5q14 18 26.5 36.5t22.5 35t17.5 29.5t10.5 19t9 6l12 27q-2 4 -1 7z" />
    <glyph glyph-name="e" unicode="e" horiz-adv-x="208" 
d="M-31 115q0 -29 6 -49.5t25 -22.5q10 -1 24.5 6t33.5 23.5t41.5 43.5t48.5 67q11 17 22.5 34.5t22.5 34.5q2 4 6.5 5t8.5 -2q4 -2 5 -6t-2 -8q-17 -28 -34.5 -55.5t-37.5 -53.5q-43 -60 -77 -86t-69 -25q-26 1 -40 23t-16.5 54.5t7 71t30.5 72.5q8 13 20.5 20t24 7
t20.5 -6t11 -17q3 -18 -5 -36.5t-20.5 -36t-27.5 -32.5t-26 -25q-1 -1 -2 -1zM-29 145q9 9 19.5 21t20 25.5t15 26t3.5 23.5q-1 5 -4.5 4.5t-7.5 -3.5t-8 -7t-5 -6q-12 -17 -21 -39t-12 -45z" />
    <glyph glyph-name="f" unicode="f" horiz-adv-x="307" 
d="M-13 151q-31 -90 -59 -182.5t-48.5 -175.5t-31 -151.5t-7.5 -110.5q2 -32 11 -35.5t21 9.5t25.5 37.5t25.5 49.5t20.5 45t10.5 25q16 44 31 99.5t23.5 113t8 114t-13.5 102.5q-4 15 -6 21.5t1 9.5t13 4.5l30 4.5q28 5 59 12.5t61 18t57 25.5t49 36l26 30q2 4 6.5 4.5
t8.5 -1.5q9 -6 2 -15l-28 -34q-25 -24 -56.5 -40.5t-66 -28t-70 -19t-69.5 -13.5q18 -62 16.5 -139.5t-17 -156t-42.5 -151.5t-59 -126q-5 -8 -13 -19.5t-18 -21t-20.5 -15.5t-20.5 -4q-7 2 -20 7.5t-17 17.5q-11 28 -6 86t21 135t41.5 168t55.5 184t63 183.5t65 167
t61 133.5t50 84q16 20 37.5 27.5t32.5 4.5q13 -4 19 -21.5t2 -44.5q-6 -51 -33 -113.5t-63.5 -125.5t-78 -119.5t-77.5 -94.5q-7 -5 -13 -1zM-3 181q34 38 73 92t72.5 113t58 117t30.5 105q3 24 0 33t-9 8t-15 -9.5t-17.5 -20t-16 -23t-11.5 -18.5q-16 -28 -35.5 -69.5
t-41 -93.5t-44 -111.5t-44.5 -122.5z" />
    <glyph glyph-name="g" unicode="g" horiz-adv-x="349" 
d="M122 327q8 20 13.5 38t10.5 32q2 6 8 4.5t12 -7.5t9.5 -14t1.5 -16l-8 -28q-23 -80 -41.5 -152t-38.5 -153l7 3q40 18 73.5 41t62.5 50t54 58.5t48 67.5q7 9 15 4q4 -2 5 -6.5t-1 -8.5q-25 -38 -51 -70.5t-56 -61t-65 -52t-77 -42.5l-22 -11l-8 -28q-4 -15 -15 -58
t-26.5 -99.5t-35 -118.5t-41 -113.5t-43 -84.5t-40.5 -32q-22 1 -35 15.5t-19.5 37.5t-7.5 50.5t1 54.5t6 50t8 37q26 100 79.5 177.5t142.5 126.5l48 193q-20 -41 -42.5 -71t-42.5 -35q-23 -5 -34 13.5t-10.5 48.5t11.5 64.5t30.5 61.5t46.5 41.5t61 2.5q6 -3 6 -10z
M41 -11q-72 -44 -116.5 -108.5t-70.5 -148.5q-4 -12 -9 -34t-8.5 -48.5t-5 -54.5t1.5 -51t12.5 -38t26.5 -16q7 3 16 19.5t17.5 37t15.5 39.5t10 25q32 93 58.5 187t51.5 191zM106 318q-20 5 -38.5 -11.5t-33 -42.5t-24.5 -55.5t-12 -51t5 -28.5t25 12q11 12 23 32t23.5 44
t22.5 50.5t21 52.5q-4 -6 -12 -2z" />
    <glyph glyph-name="h" unicode="h" horiz-adv-x="508" 
d="M24 242l-45 -107q26 39 58.5 82t66 77.5t65 54.5t55.5 13q37 -12 37.5 -49t-19.5 -88.5t-52.5 -112.5t-62.5 -120q-26 -50 -43.5 -94.5t-19.5 -79.5q-2 -41 11.5 -53t33.5 -7.5t43 21t40 33.5q29 28 59.5 66.5t60.5 81.5t58 87t52 83t43 71t30 51q2 4 6.5 5t8.5 -2
q8 -5 3 -14q-31 -53 -61.5 -104t-63.5 -102l-31 -46.5t-48.5 -69t-59 -75.5t-61.5 -66q-21 -19 -46 -32t-48 -13t-39.5 15t-20.5 51q-4 39 14 93.5t45.5 113.5t58.5 117t52.5 105.5t27 78.5t-16.5 35q-13 2 -30 -7.5t-36 -26.5t-38 -37.5t-34.5 -39.5t-26.5 -34t-14 -19
l-16 -24t-27 -40t-29 -43.5t-23 -33.5l-2 -4h-1q-5 -7 -6 -7q-10 -3 -21.5 2.5t-9.5 13.5h-1l1 1q2 6 3.5 11t2.5 7q18 49 50.5 125.5t73.5 164.5t87.5 179.5t94 171t92 139t81.5 83.5q12 7 25.5 8.5t25.5 -2.5t19 -13.5t5 -24.5q-4 -33 -30.5 -86.5t-65.5 -117t-86.5 -131
t-94 -128.5t-87 -109.5t-66.5 -74.5q-2 -3 -7 -3zM47 294q31 35 69.5 83t79 102.5t80 112t72.5 111.5t57 101t33 80q4 18 1 23.5t-10.5 3.5t-18 -9.5t-20 -16t-17.5 -16.5l-10 -10q-38 -44 -78.5 -108t-81.5 -139t-80.5 -157t-75.5 -161z" />
    <glyph glyph-name="i" unicode="i" horiz-adv-x="215" 
d="M26 244q-4 -7 -12.5 -24t-18 -38t-18.5 -44.5t-14.5 -44t-5 -35.5t9.5 -20q5 -3 13 -1.5t16 4.5t15.5 7t12.5 7q27 16 54 43t51 56t42.5 56t29.5 43q7 7 15 3q9 -7 3 -15q-18 -27 -43.5 -62t-55.5 -68t-62.5 -58.5t-63.5 -33.5q-33 -8 -48 3t-18 33.5t3.5 52.5t17 59
t22 53.5t17.5 35.5q2 4 7.5 4.5t9.5 -1.5t13.5 -6.5t7.5 -8.5zM6 300q2 4 5 10.5t7 12.5t9.5 9t12.5 0q6 -3 6 -12t-2 -19t-5.5 -18t-4.5 -11q-2 -5 -7.5 -3t-11 7t-8.5 12t-1 12z" />
    <glyph glyph-name="j" unicode="j" horiz-adv-x="312" 
d="M-18 245q3 4 15 25t28.5 45.5t34 46.5t30.5 30q3 2 8 0t10 -5.5t9 -7.5t5 -7q1 -4 -4.5 -34.5t-16.5 -79t-25.5 -109.5t-30.5 -125q43 22 77.5 44t64.5 48.5t57 59t54 76.5q2 4 6.5 5t8.5 -1t5 -6.5t-1 -8.5q-30 -47 -59 -82.5t-62 -63.5t-71.5 -51t-86.5 -47
q-5 -19 -16 -65t-27 -104t-35.5 -121.5t-40.5 -115.5t-42.5 -86.5t-41.5 -34.5q-23 0 -35.5 15.5t-19 40t-7 54.5t2 58.5t6.5 52.5t7 35q12 45 30 88t44 80t60 67t78 51l2 1q20 86 39 170.5t37 166.5q-23 -26 -42 -55.5t-36 -59.5q-2 -5 -6.5 -5.5t-8.5 1.5q-9 5 -4 14z
M-3 -14q-76 -42 -121 -112.5t-66 -152.5q-2 -9 -5.5 -28.5t-6 -45t-3.5 -52.5t2.5 -49.5t12.5 -37.5t25 -16q10 3 25.5 37.5t32.5 85t34 110t31.5 113t25 94.5t13.5 54zM104 433q1 4 4 11t7 13.5t9 9.5t12 0q6 -3 7 -12t-1 -19t-5 -18t-4 -11q-2 -5 -7.5 -3.5t-11 6.5
t-9 11.5t-1.5 11.5z" />
    <glyph glyph-name="k" unicode="k" horiz-adv-x="505" 
d="M23 246l-46 -107q25 39 55.5 80t61 72t58.5 44t49 -3q20 -16 18.5 -38t-17.5 -46t-41.5 -48t-53 -44.5t-52.5 -35.5t-39 -20q36 -16 47.5 -44t10 -62.5t-10 -71.5t-13 -70t1.5 -59t34 -37q18 -8 43.5 6t55 43.5t61 70t62.5 85.5t60.5 91t53.5 86t41.5 70t25.5 44
q5 9 15 4q4 -2 4.5 -6.5t-1.5 -8.5q-14 -23 -42 -71.5t-64.5 -107.5t-79.5 -120.5t-85.5 -110.5t-82 -77.5t-69.5 -20.5q-35 9 -48 37t-14 63t4.5 70.5t8.5 59.5q7 51 1 75.5t-17.5 34t-25 11t-19.5 7.5q-11 -19 -22 -36t-19 -28q0 -2 -0.5 -2.5t-0.5 -2.5l-2 1q-4 -7 -6 -7
q-10 -3 -20.5 2t-8.5 13l1 2l3.5 10.5t2.5 6.5q18 50 51 127t74 166t88 182t94.5 173.5t92.5 140.5t82 85q12 7 25.5 9t24.5 -2t18 -13.5t5 -24.5q-4 -33 -30.5 -86t-65.5 -116.5t-86.5 -130.5t-94 -128t-87.5 -109.5t-66 -74.5q-2 -2 -4 -2zM49 304q31 35 69.5 83t78 101.5
t78.5 110t71.5 109.5t55.5 98.5t32 78.5q7 27 -2.5 27.5t-24 -10t-29 -25l-17.5 -17.5q-37 -43 -77 -106t-80.5 -137t-79.5 -154.5t-75 -158.5zM-11 115q5 2 9.5 3.5t8.5 2.5t9 2q10 4 28.5 17.5t40.5 33t43.5 41t37.5 42t23 36t-1 22.5q-10 8 -25 1.5t-32.5 -21.5
t-35.5 -35.5t-34 -40.5t-27.5 -35.5t-15.5 -21.5z" />
    <glyph glyph-name="l" unicode="l" horiz-adv-x="331" 
d="M24 245q-31 -68 -57.5 -133.5t-44.5 -124t-27 -107.5t-4 -84q5 -40 22 -47.5t42.5 8t56 48.5t62 74t62 85.5t55 82.5t40.5 64.5t20 32.5l65 108q5 8 14 3q5 -2 5.5 -6.5t-1.5 -8.5q-12 -20 -35 -59t-53 -87.5t-64.5 -101.5t-70.5 -101.5t-71.5 -88t-66.5 -59.5
q-15 -10 -36.5 -14.5t-32.5 -2.5q-30 5 -41.5 32t-10.5 66t11 85t23 89t25.5 78t19.5 51q17 43 47.5 111t70 147t84.5 162t90.5 156.5t88 130t76.5 82.5q9 6 21.5 10.5t24 4t20 -6.5t9.5 -19q2 -30 -22.5 -83.5t-64.5 -118.5t-89.5 -135.5t-97.5 -134t-89.5 -113
t-64.5 -73.5q-6 -6 -11 -2zM43 287q29 32 68.5 82t83 108t86 120t77.5 119t57.5 104t25.5 75q2 18 -7 16t-23.5 -15t-32.5 -33.5t-33 -39.5t-25.5 -33l-10.5 -14q-23 -33 -54 -86t-66.5 -117.5t-73 -137.5t-72.5 -148z" />
    <glyph glyph-name="m" unicode="m" horiz-adv-x="762" 
d="M24 258q-3 -17 -7.5 -36.5t-9.5 -39.5q14 25 31.5 54t37 58t40.5 54t41 42t39 22.5t35 -5.5q20 -15 18 -47.5t-15.5 -73.5t-34 -85.5t-37.5 -82.5q25 40 58.5 91.5t71 103t77 98t76.5 76t69.5 36.5t55.5 -20q18 -21 10.5 -62t-30.5 -94t-56 -115t-67 -124.5t-63 -121.5
t-44 -107t-11 -81.5t38 -43.5q23 -7 58 22t75.5 77.5t83 110t79 119t64.5 104t40 66.5q2 4 6.5 5t8.5 -1t5 -6.5t-1 -8.5q-10 -17 -29.5 -49.5t-44.5 -73.5t-55 -87.5t-62 -91t-65 -85t-63.5 -69.5t-58 -43.5t-48.5 -8.5q-41 12 -51.5 48t0.5 86.5t38.5 112.5t60.5 126
t67.5 126t60.5 114t37.5 89.5t-0.5 52.5q-15 18 -38 12.5t-49.5 -25.5t-54 -50t-51.5 -60t-42 -54.5t-25 -34.5q-5 -7 -18.5 -27.5t-31 -47.5t-37.5 -57.5t-36.5 -55.5t-28 -42t-13.5 -17q-6 -2 -13 -0.5t-9 5.5q-3 11 7 40.5t25.5 67t33.5 78.5t31 77t18 61t-5 31
q-14 8 -33 -5.5t-41 -38.5t-44 -57.5t-40.5 -63.5t-32.5 -56t-19 -34q-2 -2 -5.5 -11t-9.5 -14q-4 -4 -15 -5t-16 4q-3 4 0 25.5t9 48t11.5 49.5t7.5 30q1 5 12 7.5t16 0.5q10 -2 8 -12z" />
    <glyph glyph-name="n" unicode="n" horiz-adv-x="589" 
d="M27 258q-10 -26 -18.5 -51t-15.5 -51q19 26 38.5 56.5t35.5 52.5q11 15 33.5 45.5t51.5 65.5t62.5 68.5t66.5 55t63 25t53 -22.5q17 -20 9.5 -60.5t-30.5 -93.5t-56 -115t-66.5 -124.5t-63 -122t-44 -108t-10.5 -82t38 -43.5q23 -7 58 22t76 78t83 110t79 119t64.5 104.5
t39.5 66.5q2 4 6.5 5t8.5 -1t5 -6.5t-1 -8.5q-14 -23 -43 -72.5t-67 -109t-81.5 -121t-86 -110.5t-81.5 -77t-67 -19q-47 14 -58 52t1.5 91.5t42.5 118t66.5 130t72.5 129t60 115t30 87t-17 45.5q-24 10 -56.5 -9t-64.5 -49t-58 -61t-37 -44q-4 -5 -13 -17.5t-21.5 -30
t-27.5 -37.5t-30 -41q-35 -48 -77 -108q-8 -5 -19 -2t-12 11q-1 13 5.5 38t14.5 49.5t15 44t8 21.5q2 4 13.5 6t15.5 0q11 -4 6 -14z" />
    <glyph glyph-name="o" unicode="o" horiz-adv-x="306" 
d="M120 213q22 -14 46.5 -17.5t47.5 2t44 20.5t35 38q5 9 15 4q9 -5 4 -14q-22 -36 -54 -56t-76 -18q-44 3 -72 20q-7 -14 -18.5 -32t-26.5 -32.5t-33 -23t-37 -2.5q-20 6 -27.5 24.5t-6.5 43.5t11 52t25.5 50t36.5 38t44 16q11 19 27 22q18 4 26.5 -7t9.5 -30.5t-5 -45.5
t-16 -52zM66 297q-18 -11 -35 -38t-27 -56t-10.5 -52.5t13.5 -27.5q13 -4 26.5 5t25.5 23.5t21 30t13 24.5q-21 21 -25 44t-2 47zM101 228q8 22 12.5 43t5 35.5t-3.5 20t-12 -3.5q-1 -1 -1 -2q8 -6 2 -13q-2 -4 -6.5 -8.5t-7.5 -3.5q-3 -16 -1.5 -35t12.5 -33z" />
    <glyph glyph-name="p" unicode="p" horiz-adv-x="404" 
d="M-23 237q2 4 11.5 19.5t23.5 35.5t30.5 41t31.5 35.5t27 19t18 -7.5q1 -3 -2 -20t-9 -45t-14.5 -64.5t-18.5 -78.5q11 21 18.5 36.5t12.5 23.5q20 30 42 36t36.5 -8.5t17 -47t-17.5 -78.5l77 35q32 16 68.5 34.5t59.5 47.5q5 9 14 4q4 -2 5 -6.5t-1 -8.5q-18 -22 -46 -41
t-61 -36t-67.5 -32.5t-64.5 -30.5q-6 -11 -19.5 -31.5t-30 -36.5t-32.5 -19t-28 22q-5 9 0.5 19.5t16.5 21t27.5 21t34.5 20.5q13 26 21 51.5t10 37.5q2 13 0.5 23t-6 15t-12.5 2.5t-18 -15.5q-11 -14 -34.5 -63t-51.5 -117q-14 -58 -28 -114.5t-25.5 -103t-20 -79
t-11.5 -43.5q-1 -3 -7.5 -26.5t-17 -55.5t-24.5 -67t-29.5 -61t-32 -37.5t-32.5 4.5q-7 8 -1 40.5t20 81.5t34.5 109t44.5 124t49 127.5t48 117.5q16 70 31 138.5t29 134.5q-23 -26 -41.5 -55.5t-36.5 -59.5q-5 -9 -14 -4q-5 2 -5.5 6.5t1.5 8.5zM-20 -72
q-27 -70 -53.5 -141t-47 -132.5t-32.5 -106.5t-12 -62q7 7 16.5 26t18 40.5t15 40.5t8.5 26q24 73 45.5 150.5t41.5 158.5zM119 80l-2 -1q-2 -1 -10.5 -7.5t-17 -13.5t-12.5 -12t4 -4q9 1 18.5 11.5t19.5 26.5z" />
    <glyph glyph-name="q" unicode="q" horiz-adv-x="393" 
d="M80 284q-11 9 -24 1.5t-25 -23.5t-22.5 -37.5t-16.5 -41.5t-6 -34.5t8 -16.5q9 1 22 16.5t28 38t29.5 47.5t25.5 46q-3 -3 -9.5 -1t-9.5 5zM171 346q-11 -28 -29 -72.5t-39 -100.5t-44 -119t-44.5 -127.5t-40.5 -127.5t-31 -118t-17 -99t2 -70q5 -20 14.5 -17.5t21.5 18
t25 39.5t24 47.5t18.5 41.5t8.5 21q16 44 31 99.5t23.5 113.5t8.5 114t-13 103q-5 16 -6 23t4 10t18.5 4t38.5 5q33 6 65.5 15t63 22.5t57.5 33t47 47.5q2 4 6.5 5t8.5 -1t5 -6.5t-1 -8.5q-25 -35 -58.5 -58t-71 -38t-78.5 -23.5t-81 -14.5q14 -48 16.5 -99.5t-3 -103.5
t-17.5 -103t-27 -97q-3 -10 -12 -35.5t-23 -56.5t-30.5 -62t-34.5 -52t-36.5 -26.5t-34.5 14.5q-14 17 -14 58t9.5 97.5t27.5 124t40 139t46 142t47 132.5q-18 -28 -35.5 -47.5t-31.5 -20.5q-21 -2 -29.5 16t-6.5 44.5t13 55.5t29.5 50.5t42.5 30t51 -7.5q2 -2 5 -7t2 -8
q4 7 9 20t10 27.5t10 28.5t8 23q4 10 10.5 7t11.5 -11.5t8.5 -19t1.5 -14.5z" />
    <glyph glyph-name="r" unicode="r" horiz-adv-x="364" 
d="M-14 253q2 3 9.5 16t19 33.5t25 46t26.5 52.5q-4 28 -7 63.5t-1 66.5t10.5 53t28.5 24q31 3 41 -15.5t5.5 -49.5t-20 -70.5t-34.5 -78.5q4 -42 11 -72.5t0 -56.5q-5 -20 -23 -59.5t-40 -85.5t-43 -90t-33 -73q-4 -9 -11.5 -28.5t-15.5 -43t-13 -48t-3.5 -43.5t12.5 -30
t35 -7q30 4 66 35.5t74 78t75.5 102t70 109t58.5 99t41 71.5q2 4 6.5 5t8.5 -1t5 -6.5t-1 -8.5q-15 -25 -42.5 -74t-63.5 -107t-77.5 -118.5t-84 -108t-83 -76t-73.5 -22.5q-37 6 -47.5 34.5t-3.5 71t27 95.5t45 109t50 111.5t41 103.5q10 30 12.5 55t2.5 45
q-23 -44 -42.5 -76.5t-24.5 -42.5q-2 -4 -6.5 -4.5t-8.5 1.5q-9 5 -4 15zM85 439q14 31 24.5 59.5t13.5 49.5t-2.5 31.5t-23.5 6.5q-8 -2 -12 -14.5t-4.5 -33t0.5 -46t4 -53.5z" />
    <glyph glyph-name="s" unicode="s" horiz-adv-x="301" 
d="M20 258q1 -1 1 -4q8 -28 17 -55t20 -54q53 42 111.5 69t128.5 35q9 0 11 -11q0 -11 -10 -11q-68 -7 -125 -34.5t-108 -69.5q13 -33 24.5 -66.5t18 -67.5t6.5 -70t-10 -73q-11 -43 -35 -67.5t-52.5 -32.5t-57.5 -0.5t-51 28.5t-32.5 53.5t-2 75.5t40 94.5t94.5 109.5
l19 17q-21 54 -38 107.5t-14 104.5q1 12 7.5 29.5t17 32t25 23t31.5 4.5q24 -7 25 -29t-9.5 -48.5t-26.5 -51.5t-26 -38zM37 103l-13 -12q-76 -70 -105 -129t-28 -101.5t24.5 -67.5t53.5 -28.5t59.5 17.5t42.5 70q9 34 9 66t-5.5 62.5t-15.5 61t-22 61.5zM15 287
q9 13 20 31.5t18.5 36t8.5 31t-10 17.5q-17 0 -26 -11.5t-12 -28.5t-2.5 -37.5t3.5 -38.5z" />
    <glyph glyph-name="t" unicode="t" horiz-adv-x="334" 
d="M-343 641q24 81 62.5 123t86 56t102 6t111.5 -26t114 -40.5t110 -38.5q20 29 41.5 55.5t42 47t39.5 33.5t36 14q20 2 32 -7q10 -7 6 -24.5t-13.5 -37t-20.5 -37t-15 -23.5q-8 -14 -16.5 -27t-17.5 -27q97 -27 179 -38.5t145.5 7.5t105 76.5t57.5 170.5q0 5 3.5 7.5
t8.5 2.5q11 -2 9 -12q-16 -119 -60.5 -181t-112 -83t-156 -9.5t-191.5 40.5q-36 -57 -77.5 -117t-85 -119t-87 -113.5t-83.5 -100.5q-4 -4 -7 -4q-5 -12 -21 -50t-35 -88.5t-35.5 -106.5t-23.5 -104t0 -80.5t37 -35.5q27 -3 67 34q30 27 65 70.5t69.5 93t67 100.5t58.5 94
t43.5 73.5t22.5 38.5q2 4 6.5 4.5t8.5 -1.5t4.5 -6.5t-1.5 -8.5q-11 -18 -31.5 -53t-47.5 -79.5t-59.5 -94.5t-66.5 -97.5t-68 -89t-65 -67.5q-18 -15 -36.5 -24.5t-36.5 -9.5q-44 0 -59.5 36t-9 97.5t31 142.5t61 170.5t81.5 182t93 176.5q6 11 17 29.5t24.5 41t29.5 48
t34 51.5q-49 14 -102.5 36t-107 40.5t-105.5 27t-97 -4t-81 -51t-59 -114.5q-2 -10 -13 -8q-10 3 -8 13zM35 279q36 43 73.5 92t75 100.5t72.5 103t67 100.5l-52 15q-26 -36 -45 -65.5t-25 -40.5q-14 -22 -33 -54.5t-40.5 -72t-45 -85t-47.5 -93.5zM335 694q10 15 19.5 30
t17.5 29q3 6 10.5 18.5t15.5 27t14.5 28t7.5 20.5q-8 4 -23 -7t-33.5 -31t-39 -46.5t-40.5 -53.5z" />
    <glyph glyph-name="u" unicode="u" horiz-adv-x="335" 
d="M24 241q-3 -5 -11 -24t-14 -40t-6.5 -37.5t12.5 -16.5q12 0 25 14.5t26.5 36.5t26.5 49t24.5 53t20.5 48t16 33q1 6 7 5t12 -7.5t10 -17t1 -22.5q-1 -1 -12 -27t-24 -63.5t-23.5 -78t-10.5 -69t14 -37.5t51 17q21 15 42.5 38.5t41.5 50.5t37.5 54.5t30.5 50.5q4 9 15 5
q4 -2 5 -6.5t-1 -8.5q-13 -23 -37 -60t-53.5 -73t-61 -63t-59.5 -29q-26 -2 -37.5 13.5t-13 42t4 60t14.5 68.5q-21 -40 -44.5 -69t-46.5 -30q-27 -1 -34.5 21t-4.5 51t12 56.5t14 38.5q3 7 9 4.5t11.5 -8.5t8.5 -13t2 -10z" />
    <glyph glyph-name="v" unicode="v" horiz-adv-x="509" 
d="M24 247q-5 -14 -14.5 -44.5t-20 -68.5t-18.5 -79t-11.5 -76t1 -60.5t20.5 -32.5t36 8t41 43t41 65t37 74t29 69.5t16 50.5q-14 21 -23.5 45t-11.5 51q-1 13 1.5 34.5t9 42.5t17.5 37.5t28 21.5q22 6 31.5 -11t8.5 -49t-10.5 -76t-25.5 -92q18 -22 41 -37.5t50 -25.5
t55.5 -14.5t56.5 -2.5q17 1 32.5 7t29.5 15q4 3 8 4.5t7 -2.5q2 -3 -1.5 -11t-6.5 -11q-17 -11 -31.5 -16.5t-35.5 -7.5q-57 -3 -115 15.5t-98 62.5q-21 -59 -47 -117t-54.5 -103t-58.5 -71t-58 -21q-28 4 -40 30.5t-13 65t6.5 83.5t17.5 87.5t21 77t17 50.5q3 7 9 6.5
t12 -3.5t10.5 -7.5t3.5 -6.5zM190 224q8 26 16 56.5t12.5 57t4 45.5t-9.5 23t-17 -6.5t-14 -25t-9.5 -28t-3.5 -16.5q-7 -57 21 -106z" />
    <glyph glyph-name="w" unicode="w" horiz-adv-x="642" 
d="M26 238q-5 -8 -14.5 -25.5t-20 -39t-20.5 -45.5t-14 -45t0 -37t19 -22q17 -7 36.5 7t39 40.5t38 61t35 69t29.5 63.5t20 44q1 3 3.5 7.5t4.5 5.5q7 3 13 0t9.5 -8.5t5 -12t0.5 -9.5q-4 -16 -10 -31t-6 -16q-5 -15 -19.5 -57.5t-32 -98t-34.5 -116t-26 -112t-7 -87
t22 -39.5q18 -4 40.5 18t45.5 60t46 87.5t43.5 100.5t36.5 99.5t26 83.5q-4 5 -6.5 10t-5.5 10q-11 20 -17.5 52t-5 64t12.5 59t35 36q18 7 27.5 0.5t13.5 -21t3.5 -34t-3 -38.5t-5.5 -34l-4 -20q-3 -12 -8.5 -32t-13.5 -46q20 -26 49 -41.5t62 -22t68.5 -3.5t69.5 15
q5 2 9 4.5t6 -1.5q2 -5 -3.5 -14.5t-10.5 -11.5q-23 -8 -41 -11t-40 -5q-54 -3 -100.5 14.5t-76.5 50.5q-13 -42 -30.5 -91.5t-38 -99.5t-43 -97t-45.5 -83t-46.5 -58t-45.5 -22q-26 0 -38 19.5t-14 53t4.5 77t17.5 92t25 98t27 94.5q-17 -32 -36 -61.5t-39 -50.5
t-40.5 -30.5t-40.5 -1.5q-22 9 -30.5 28t-8.5 43.5t7 51.5t17 52t20.5 45.5t16.5 32.5q4 6 11 5.5t13.5 -4.5t10.5 -10t2 -9zM343 213q8 29 15 59.5t11 56.5t3.5 44.5t-8.5 22.5q-6 3 -12.5 -2.5t-12 -14t-9 -17t-3.5 -10.5q-11 -38 -6 -73.5t22 -65.5z" />
    <glyph glyph-name="x" unicode="x" horiz-adv-x="523" 
d="M-12 255q10 16 35.5 48.5t54 66.5t55 62.5t40.5 35.5q3 1 8 -4.5t9 -14t5 -18t-3 -15.5q-18 -24 -37 -76.5t-36 -118.5q28 18 54.5 35t49.5 33q25 18 47.5 36t36 38.5t15 45t-14.5 55.5q-2 4 -1.5 8.5t4.5 6.5t8.5 1t6.5 -5q22 -41 17.5 -74t-25.5 -60t-53 -50t-65 -44
q-19 -13 -42 -27t-46 -30q-15 -65 -25.5 -132.5t-12.5 -126.5t5.5 -103t27.5 -60q16 -12 30 -9.5t39 21.5q29 23 62 61t66 83.5t64 93.5t57 90.5t44.5 75t26.5 46.5l13 22q2 5 6.5 5.5t8.5 -1.5t5 -6.5t-1 -8.5q-30 -52 -64.5 -111t-72 -118t-77.5 -113t-82 -96
q-53 -53 -89.5 -65.5t-59 4.5t-32.5 59.5t-10.5 100t7 124t20.5 133.5q-29 -23 -52.5 -47.5t-37.5 -50.5l-12 -31q-4 -11 -13 -8q-5 1 -7.5 4.5t-0.5 8.5l14 36q17 34 48 63.5t68 55.5q13 63 29.5 119t33.5 96q-18 -19 -37 -41t-36.5 -44t-32.5 -42t-25 -34q-2 -4 -6.5 -5
t-8.5 1q-8 6 -3 15z" />
    <glyph glyph-name="y" unicode="y" horiz-adv-x="364" 
d="M22 243q-2 -5 -10.5 -25.5t-15 -42.5t-8 -39t9.5 -17q13 0 28.5 17t31.5 43.5t32 58.5t29.5 62t24 54.5t15.5 36.5q2 4 8.5 2.5t12.5 -7.5t9.5 -16t-0.5 -21q-31 -82 -50 -160.5t-40 -159.5q49 25 82.5 46t60.5 45t51.5 55t56.5 78q2 4 6.5 4.5t8.5 -1.5t4.5 -6.5
t-1.5 -8.5q-36 -54 -63 -87.5t-56.5 -57.5t-66 -45t-90.5 -50q-26 -95 -52.5 -187.5t-57.5 -181.5q-4 -12 -15 -39.5t-26 -55t-32.5 -48t-34.5 -18.5q-23 3 -34.5 21.5t-15.5 46.5t-1.5 61t8.5 64.5t12.5 57t11.5 39.5q16 45 35 81.5t43 67.5t55 56.5t71 47.5l59 230
q-14 -27 -28.5 -53.5t-30 -47t-31 -33.5t-30.5 -13q-18 0 -26 10t-9.5 26.5t1.5 36.5t8 38.5t10.5 34.5t8.5 24t8.5 6t10.5 -8t8.5 -13.5t3.5 -8.5zM51 -14q-76 -47 -121 -117.5t-68 -157.5q-2 -8 -6 -27t-7.5 -43t-4.5 -50t1.5 -47.5t10.5 -36t24 -15.5q6 2 15 18.5
t18 36.5t16 38.5t9 24.5q34 91 61 185t52 191z" />
    <glyph glyph-name="z" unicode="z" horiz-adv-x="382" 
d="M-17 248q4 6 13 21.5t19.5 31.5t21 27.5t17.5 10.5q8 -1 12.5 -7.5t8 -13.5t9 -12.5t17 -5t31 8.5t50.5 28q11 12 23.5 15.5t20.5 0.5q9 -3 10.5 -7.5t-1.5 -9.5t-9 -9.5t-12 -8.5q-22 -21 -41 -50.5t-37 -58.5t-37.5 -54.5t-41.5 -37.5q42 -36 62 -87l8 6
q31 19 53.5 30.5t42 24.5t39 30t44.5 47q18 22 31.5 41t28.5 43q7 9 15 4q4 -2 5 -6.5t-1 -8.5q-18 -29 -38 -55.5t-43 -51.5q-24 -27 -46.5 -44t-44.5 -30t-43.5 -24.5t-43.5 -26.5q11 -33 14 -69t1 -72q-2 -49 -16.5 -104t-39 -107.5t-58 -97.5t-73.5 -74
q-24 -17 -43.5 -17t-33.5 12t-21 32.5t-5 44.5q3 46 24.5 110t55 129.5t75 124t82.5 92.5q-9 25 -24 48q-8 12 -13 17.5t-10 9.5t-10.5 7.5t-13.5 10.5q-7 6 -5 10.5t8.5 8.5t15.5 8.5t16 11.5t17 22.5t22.5 36t26 42.5t27.5 43q-28 -14 -50.5 -10.5t-43.5 34.5
q-6 -7 -13 -17t-13.5 -21t-12.5 -21.5t-10 -16.5q-7 -9 -15 -4q-9 7 -4 15zM95 -9l-13 -11l-23 -26q-18 -21 -40.5 -55t-46 -75t-44.5 -85.5t-35.5 -86.5t-19.5 -79t4 -62q9 -26 33.5 -17.5t54.5 41.5t60.5 86t52 115t28 128.5t-10.5 126.5z" />
    <glyph glyph-name="braceleft" unicode="{" horiz-adv-x="315" 
d="M346 796q-26 -3 -45 -23t-33 -52t-25 -72t-21 -82.5t-21.5 -84t-27 -76.5t-36.5 -60t-50 -34q23 -44 25.5 -93t-8.5 -98.5t-30 -98.5t-38 -94t-33.5 -84.5t-15.5 -69.5q0 -14 12 -17q11 -4 7 -13q-1 -5 -4.5 -7.5t-8.5 -0.5q-10 3 -15.5 7.5t-9.5 14.5q-7 18 0 51.5
t21 76t31.5 92t32.5 98t24 94t6 81.5q-2 25 -8 38t-10 19.5t-1.5 10.5t16.5 12q22 12 40 46.5t33 75.5t26 81.5t19 66.5q9 29 20 65t27.5 68.5t41 56t60.5 27.5q5 0 8 -3t2 -8q0 -11 -11 -11z" />
    <glyph glyph-name="bar" unicode="|" horiz-adv-x="165" 
d="M71 877q2 5 7.5 6t9.5 -1q5 -1 9 -5t3 -9q-3 -43 -4.5 -90.5t-1.5 -95.5t0.5 -95.5t0.5 -91.5q0 -184 -0.5 -373t7.5 -372v-29q1 -5 -4 -7.5t-10 -2.5q-5 -1 -10 3t-6 9v22.5t-0.5 13.5t-1 14.5t-0.5 27.5q-5 186 -5 372v373v80.5v86t1.5 85.5t4.5 79z" />
    <glyph glyph-name="braceright" unicode="}" horiz-adv-x="298" 
d="M-95 -244q26 3 45 23t33 52t25 72t21 82.5t21.5 84t27 76.5t36.5 60t50 34q-24 44 -26 93t9 98.5t30 98.5t38 94t33.5 84.5t15.5 69.5q0 14 -12 17q-11 4 -7 13q1 5 4.5 7.5t8.5 0.5q10 -3 15.5 -7.5t9.5 -14.5q6 -18 -0.5 -51.5t-20.5 -76t-31.5 -92t-32.5 -98t-24 -94
t-6 -81.5q2 -26 8 -38.5t10 -19t1.5 -10.5t-16.5 -12q-22 -12 -40 -46.5t-33 -75.5t-26.5 -82t-18.5 -66q-9 -29 -20 -65t-27.5 -68.5t-41 -56t-60.5 -27.5q-5 0 -8 3t-2 8q0 11 11 11z" />
    <glyph glyph-name="asciitilde" unicode="~" horiz-adv-x="342" 
d="M29 288q-6 -8 -13.5 -2.5t-2.5 13.5q28 25 56 26.5t55.5 -7.5t53 -21.5t48.5 -16t43 9.5t36 55q8 7 13.5 1.5t0.5 -15.5q-24 -45 -50 -59.5t-53 -12.5t-53.5 14.5t-51 22.5t-45.5 11t-37 -19z" />
    <glyph glyph-name="exclamdown" unicode="&#xa1;" horiz-adv-x="299" 
d="M-116.978 -199.95q43.998 94.9941 79.4951 176.489q35.498 81.4951 67.4961 155.491q31.998 73.9951 61.4961 143.491q29.498 69.4951 59.9971 139.991q30.498 70.4951 63.4961 145.991q32.9971 75.4951 71.9951 160.49q1 2 5.5 3.5q4.49902 1.49902 9.99902 2.49902
t10.499 0.5q5 -0.5 7 -1.5q5 -1.99902 8 -5.99902q2.99902 -4 0.999023 -9q-62.9961 -134.991 -119.992 -264.983q-56.9971 -129.992 -104.494 -247.485q-47.4971 -117.492 -85.4941 -218.486q-37.998 -100.994 -63.9961 -176.989q0 -2 -5.5 -5
q-5.49902 -2.99902 -11.999 -5.49902t-12.499 -4q-6 -1.5 -8 -1.5q-4.99902 0 -12.499 3.5t-21.499 8.49902zM366.993 793.989q-2 -3.99902 -5 -10.499q-2.99902 -6.5 -6.99902 -12.499q-4 -6 -9.5 -9q-5.49902 -3 -12.499 0q-5.99902 3 -5.99902 11.999q0 9 1.99902 18.999
q2 10 5.5 17.999q3.5 8 4.5 11q2 4.99902 7.49902 2.99902q5.5 -2 11 -6.99902q5.49902 -5 8.49902 -12q3 -6.99902 1 -11.999z" />
    <glyph glyph-name="cent" unicode="&#xa2;" horiz-adv-x="230" 
d="M63 392q3 4 9 3t9 -4q4 -2 7 -6t1 -8l-7 -40q8 -11 9.5 -29t0.5 -29q0 -5 -3.5 -7.5t-8.5 -1.5q-6 0 -8 5l-39 -233q1 0 1 0.5t1 0.5q24 6 50.5 31.5t51 58t45.5 65.5t34 53q2 4 6.5 5t8.5 -1q8 -6 3 -15q-14 -23 -37 -59t-50.5 -71t-57.5 -61t-58 -29h-2l-8 -52
q-2 -5 -6 -6t-9 1q-5 1 -8.5 6t-2.5 10q2 12 4 22.5t4 20.5q-26 7 -36.5 31.5t-11 58t8.5 71t22.5 70.5t31 57.5t33.5 31.5q1 0 1.5 0.5t1.5 0.5zM7 45q7 38 12 69.5t9.5 61.5t9.5 62t11 72q-14 -21 -29 -61t-24 -81.5t-8 -76.5t19 -46z" />
    <glyph glyph-name="sterling" unicode="&#xa3;" horiz-adv-x="571" 
d="M537 561q6 11 14.5 28t15.5 35.5t10 37t-0.5 33.5t-16.5 24.5t-38 10.5q-23 1 -45.5 -14.5t-44 -42.5t-42 -63t-39.5 -77t-36 -83.5t-31 -82.5l137 4q5 0 8 -5t4 -9q0 -5 -3 -10.5t-8 -5.5q-43 -2 -78.5 -2.5t-70.5 -1.5l-43 -130l-44 -120t-54 -116v-1q34 -16 74 -36
t79.5 -29t76 0.5t64.5 51.5q13 18 19.5 35t14.5 38q4 9 14 6q11 -4 7 -13l-11 -30q-19 -44 -42 -69t-49.5 -35.5t-56.5 -9t-61.5 11t-64 24.5t-65.5 30l-12 6q-12 -17 -30.5 -35.5t-40 -30.5t-42.5 -13t-37 19q-15 18 -14.5 40t15 38t42.5 22t69 -8l12 -4q24 42 46 94
t40 101t30 87.5t17 52.5q2 5 4 10.5t4 12.5l-108 -2q-5 -1 -7.5 4t-3.5 10q0 5 3 10t8 6l119 2q12 35 29.5 79t39.5 89t47.5 87t54.5 72.5t60.5 46.5t65.5 8q39 -9 50 -33t7 -54t-18 -60.5t-26 -51.5q-2 -4 -6.5 -5t-8.5 1q-9 7 -3 15zM81 -41q-47 17 -70.5 10.5t-30 -21.5
t-0.5 -32t18 -20q20 -5 41.5 13t41.5 50z" />
    <glyph glyph-name="yen" unicode="&#xa5;" horiz-adv-x="716" 
d="M409 -343q-32 -1 -58.5 -2t-51.5 -1l-35 -76l110 3q5 1 8 -4t4 -10q0 -5 -2.5 -10t-7.5 -6q-36 -1 -67.5 -2t-60.5 -1q-32 -63 -67.5 -115t-73.5 -88t-78.5 -52t-82.5 -6q-13 4 -19.5 6.5t-19.5 8.5q-9 5 -4 14q5 10 15 5l16.5 -7.5t16.5 -5.5q34 -8 68 7t67 47.5t64 80
t61 105.5q-30 -1 -62 -1t-69 -2q-5 0 -8 5t-4 10q0 5 3 10t8 5q42 2 77 2t70 1q8 18 17 36.5t17 38.5q-32 0 -64.5 -0.5t-73.5 -1.5q-5 -1 -8 4t-3 10q-1 5 2 10.5t8 5.5q45 2 81 2t71 1q29 69 55.5 143.5t49.5 148t43 144t37 132.5q-30 -74 -63.5 -148t-68 -139.5
t-69.5 -119t-68.5 -86.5t-65 -42t-58.5 14q-20 17 -24.5 52.5t1.5 81.5t18.5 97.5t27.5 99.5t29 88.5t22 64.5q7 21 22.5 64.5t32 97.5t30.5 111.5t18.5 107t-4.5 84.5t-38 43q-39 11 -72.5 -7.5t-61 -51t-48 -70.5t-34.5 -66q-2 -5 -6.5 -6t-8.5 1q-9 4 -5 14q16 33 39 74
t53 74.5t67 52t82 6.5q47 -13 61 -60.5t6 -117.5t-32 -155.5t-53.5 -173.5t-58.5 -173t-46.5 -153.5t-18 -114t27.5 -55.5q29 -11 64 16.5t72 80.5t75 125.5t74 151.5t68 159.5t58 148.5q5 19 9 34.5t6 26.5q3 13 12 49.5t21 85t25.5 101t27.5 98t26 76t20 34.5
q19 10 25 -7.5t2 -52t-16 -82t-27 -98.5t-32 -101.5t-31 -90.5t-23 -65t-10 -26l-38 -152q-9 -33 -26 -94.5t-41 -138.5t-54 -164t-66 -171q22 0 45 0.5t51 1.5q5 1 8 -4t3 -10q1 -5 -2 -10t-8 -6zM574 623q6 21 16.5 54t21.5 70t20 72t14 60q-13 -37 -32.5 -106t-39.5 -150
z" />
    <glyph glyph-name="section" unicode="&#xa7;" horiz-adv-x="626" 
d="M144 210q-23 -29 -51 -71t-49 -88.5t-29 -93.5t9 -85q14 -33 44 -37.5t64 14.5t68 58.5t57 94.5t29.5 122.5t-13.5 141.5q-11 39 -17 71.5t-4 62.5t13.5 59.5t35.5 63.5q-1 44 5 89t20 87t36 78.5t52 63.5q22 20 49 30t53.5 8.5t49 -16t35.5 -43.5q19 -42 12.5 -92
t-27.5 -99.5t-49.5 -94.5t-53.5 -76q-7 -8 -16 -1q-8 6 -1 15q15 19 33 45t35.5 55.5t32 61.5t22.5 63t7 60.5t-14 53.5q-14 25 -39 30t-54.5 -7.5t-59.5 -40.5t-54.5 -69t-39 -92.5t-13.5 -111.5v-2q2 -52 16 -104q11 -39 17 -71.5t4.5 -63t-13 -60.5t-35.5 -63
q2 -44 -3 -89t-18 -86.5t-34.5 -78t-51.5 -62.5q-23 -20 -52 -29.5t-57.5 -7.5t-53 16.5t-37.5 43.5q-18 42 -10.5 92t29 99.5t50.5 94t55 75.5q7 7 15 1q8 -8 1 -15zM303 487q-15 -24 -21.5 -45.5t-8 -43.5t2.5 -47t10 -56l7 -23q10 -37 15 -81q15 24 22 46t8 45t-2.5 48
t-10.5 55l-8 23q-5 18 -8.5 38t-5.5 41z" />
    <glyph glyph-name="dieresis" unicode="&#xa8;" horiz-adv-x="267" 
d="M168 444q8 -2 9.5 -10t-1.5 -16t-10.5 -14t-16.5 -4q-7 2 -8 10t2 16.5t10 14.5t15 3zM38 444q8 -2 9.5 -10t-1.5 -16t-10.5 -14t-16.5 -4q-7 2 -8 10t2 16.5t10 14.5t15 3z" />
    <glyph glyph-name="logicalnot" unicode="&#xac;" horiz-adv-x="462" 
d="M439 429q-3 0 -6 -0.5t-6 -0.5q0 -15 0.5 -39.5t-1.5 -44.5q-8 -5 -13 -3.5t-7 6.5v18v23v23v17q-43 -1 -93.5 -1.5t-101.5 -1t-99 -1t-86 -1.5q-5 -1 -8 4t-3 10q-1 5 2 10.5t8 5.5q42 1 96 1.5t110.5 1t110.5 1t96 2.5q5 1 8 -4t3 -10q1 -5 -2 -10t-8 -6z" />
    <glyph glyph-name="degree" unicode="&#xb0;" horiz-adv-x="172" 
d="M124 625q19 -3 26 -23t5 -48.5t-12 -61t-25.5 -59t-34.5 -43t-39 -13.5q-17 3 -23.5 23t-5 48.5t11 61t24 59t33.5 43t40 13.5zM121 608q-9 2 -20 -12.5t-21.5 -38t-19.5 -51t-14 -52t-5 -42t8 -19.5q7 -2 18 12.5t22 37.5t21 51t15.5 52.5t5 41.5t-9.5 20z" />
    <glyph glyph-name="plusminus" unicode="&#xb1;" horiz-adv-x="413" 
d="M378 278q-40 -5 -72 -8t-63 -6q-13 -51 -25.5 -102.5t-23.5 -102.5q-1 -5 -6.5 -7.5t-9.5 -1.5q-5 1 -9.5 4.5t-3.5 8.5q11 50 22.5 99t23.5 99l-119 -11q-5 -1 -8 3.5t-4 9.5t1.5 10.5t7.5 6.5l129 12q11 43 21 86t18 86q1 5 6.5 7.5t10.5 1.5q5 0 9.5 -3.5t3.5 -8.5
q-8 -42 -17.5 -83t-19.5 -83q29 3 58.5 5.5t66.5 7.5q5 1 8 -4t4 -9q1 -5 -1.5 -10.5t-7.5 -6.5zM151 1l-119 -11q-5 -1 -8 3.5t-4 9.5t1.5 10.5t7.5 6.5l161 15q29 3 58.5 5.5t66.5 7.5q5 1 8 -4t4 -9q1 -5 -1.5 -10.5t-7.5 -6.5q-20 -2 -43 -4.5t-45.5 -5t-43 -4.5
t-35.5 -3z" />
    <glyph glyph-name="twosuperior" unicode="&#xb2;" horiz-adv-x="188" 
d="M66 549q0 17 16 29.5t42 10.5q21 -2 24.5 -16.5t-1.5 -31.5t-14 -33.5t-13 -23.5q-3 -6 -10.5 -17.5t-17 -25t-20 -27.5t-19.5 -24q15 -6 26.5 -11t19 -6t10.5 4t2 20q-2 2 5 2.5t9 0.5q5 0 5 -4l3 -9q-1 -15 -10 -19t-22 -1.5t-27.5 7.5t-24.5 8h-1q-5 -5 -10.5 -8
t-8.5 -5q-10 -5 -15.5 -0.5t-5 11t8 11.5t23.5 2q2 2 13 17t24.5 35.5t27.5 44t22.5 43.5t8.5 33.5t-13 14.5q-21 2 -34 -8.5t-13 -23.5q0 -3 -5 -3t-5 3zM34 385q-7 0 -13 -2.5t-4 -7.5q3 -6 17 10z" />
    <glyph glyph-name="threesuperior" unicode="&#xb3;" horiz-adv-x="185" 
d="M74 539q4 19 22.5 33.5t44.5 11.5q16 -2 22 -11.5t5 -21.5t-7 -23.5t-12 -18.5l-9 -8q16 -32 8 -71.5t-32 -67.5q-7 -8 -16.5 -15t-21 -10.5t-24 -3t-24.5 8.5q-13 9 -17 22t-2.5 27.5t7 28.5t10.5 24q2 4 7 2q5 0 3 -5q-7 -14 -11.5 -26t-5.5 -27q-1 -12 3.5 -24.5
t18.5 -18.5l7.5 -3t10.5 0q27 5 43 28.5t23 51.5q8 28 8.5 49t-7.5 31q-1 1 2 2.5t10 9.5q6 6 9 16.5t2 21t-6.5 18t-16.5 6.5q-17 -2 -29 -13t-14 -24q0 -4 -6 -4q-5 0 -5 4z" />
    <glyph glyph-name="acute" unicode="&#xb4;" horiz-adv-x="77" 
d="M71 496q5 -9 -0.5 -25.5t-14.5 -33t-18 -27.5t-11 -8q0 1 3.5 16t7.5 33.5t5.5 35.5t-3.5 23q1 0 5.5 -2t10 -5t10 -5t5.5 -2z" />
    <glyph glyph-name="mu" unicode="&#xb5;" horiz-adv-x="627" 
d="M-197 -377q74 204 157.5 402.5t166.5 399.5q14 49 33 107t40 115.5t43.5 110.5t43 93.5t38 63.5t29.5 20q11 -2 9 -21.5t-9.5 -42.5t-16.5 -44t-11 -27q-37 -99 -76 -196t-80 -195l-8 -29q-4 -14 -11.5 -44t-16 -68.5t-17 -83t-15 -88.5t-8.5 -85t1.5 -72.5t15 -50.5
t33.5 -20q32 -1 61 38t57 102t55.5 142t55.5 158.5t57.5 152t62 121.5t68 68t76.5 -9l20 -18q8 -8 -1 -15q-3 -3 -7.5 -3t-7.5 3l-17 15q-29 20 -56 -0.5t-52.5 -68t-50 -115.5t-50.5 -143.5t-53.5 -151t-57.5 -138t-63.5 -105.5t-72.5 -52q-40 -10 -61.5 11t-29 60.5t-5 91
t10 102.5t17 95t15.5 68q-69 -165 -137 -329t-129 -332q-4 -9 -14 -6q-2 1 -7.5 2.5l-11 3t-10 3.5t-3.5 4zM235 626q19 46 36.5 91t34.5 91q4 11 13 35.5t16 46.5q-10 -18 -22 -47t-25 -64t-26.5 -74t-26.5 -79z" />
    <glyph glyph-name="paragraph" unicode="&#xb6;" horiz-adv-x="479" 
d="M465 856q-55 -132 -114 -262t-118.5 -260t-117 -262t-110.5 -268q-1 -2 -5.5 -3.5t-10.5 -2t-11.5 -0.5t-7.5 1q-11 4 -7 14q38 99 82.5 198.5t87.5 197.5l4 9q-7 0 -9 7q-15 49 -16 109t9.5 124t30.5 128t46.5 121t58 104t65 76t67.5 37t65 -13q25 -17 35 -44t10 -60
t-8 -69t-19.5 -70.5t-24 -65.5t-21.5 -53q-88 -207 -180 -408.5t-183 -407.5q-2 -4 -14.5 -5.5t-16.5 0.5q-5 2 -6.5 6t0.5 8q91 205 183 406.5t179 409.5q10 24 27 61.5t31.5 79.5t21.5 83.5t-3 73.5z" />
    <glyph glyph-name="periodcentered" unicode="&#xb7;" horiz-adv-x="96" 
d="M59 322q13 -3 15.5 -14.5t-2.5 -22.5t-16.5 -19t-26.5 -5q-12 2 -13.5 13t3.5 23t15.5 20.5t24.5 4.5z" />
    <glyph glyph-name="cedilla" unicode="&#xb8;" horiz-adv-x="170" 
d="M-5 1q2 11 11.5 10t9.5 -12q0 -9 -2.5 -17t-0.5 -17q37 3 55.5 -11.5t22 -36t-5 -44t-26 -34t-41.5 -7t-50 37.5q-1 5 1.5 8.5t6 4t7 -1.5t5.5 -7q21 -18 36.5 -17.5t24.5 11.5t12 28t-1 31.5t-14 21.5t-27 -1q-12 -6 -17 -2t-6.5 13t-1 21t0.5 21z" />
    <glyph glyph-name="onesuperior" unicode="&#xb9;" horiz-adv-x="137" 
d="M71 553q12 5 19.5 8.5t18.5 8.5q13 7 19 0t4 -12q-11 -21 -24 -45.5t-26 -50t-23 -50.5t-15 -47q-1 -2 -11 -2.5t-12 -0.5q-4 0 -4 4q2 8 4 13.5t5 13.5q16 41 37.5 84.5t42.5 83.5q-8 -4 -15 -7t-17 -6q-2 -1 -6 1q0 4 3 4z" />
    <glyph glyph-name="ordmasculine" unicode="&#xba;" horiz-adv-x="183" 
d="M139 647q21 -4 28.5 -30t5 -63.5t-13.5 -79.5t-27.5 -76.5t-36.5 -56t-42 -17.5q-19 3 -26 29.5t-5 63.5t12 79t25.5 77t36 56.5t43.5 17.5zM135 624q-10 3 -21.5 -16t-23 -49t-21 -66.5t-15 -68.5t-5.5 -54.5t9 -24.5q8 -2 19.5 17t23.5 49t23 66t17 67.5t5 54t-11 25.5
z" />
    <glyph glyph-name="onequarter" unicode="&#xbc;" horiz-adv-x="375" 
d="M363 902q-11 -35 -26.5 -74.5t-32 -79.5t-33.5 -79t-32 -74q-72 -172 -145 -343t-149 -341l-33 -71q-2 -5 -8.5 -6t-10.5 1q-5 2 -8 6t-1 9l12 26q78 165 151 339.5t145 344.5q17 40 36 84t38 88.5t36 88t31 84.5q1 5 6 7.5t10 1.5q5 0 10 -3.5t4 -8.5zM326 330
q-19 -35 -39 -73.5t-40 -76.5q12 -2 21 -4t12 -6q3 -3 3 -8q0 -6 -7 -6q-6 0 -6 6q-2 6 -27 8q-14 -28 -26.5 -55.5t-22.5 -53.5q-5 -11 -7.5 -20t-5.5 -20q0 -2 -7.5 -3.5t-9.5 -1.5q-6 0 -6 6q2 12 5.5 21t8.5 21q10 26 21.5 53t25.5 54q-18 1 -37 0.5t-33 -1.5l-1 -2
q-10 -11 -20 -11t-14 5t1 11t24 7h3q15 17 37 43t43 53.5t37.5 53t21.5 41.5q2 5 8 3q2 0 8 -5t5 -7q-5 -16 -22 -39.5t-39 -49t-44.5 -50t-38.5 -42.5q14 0 31.5 0.5t34.5 -0.5q20 40 40 78.5t40 74.5q1 3 8 3q2 -1 8.5 -3t5.5 -4zM71 553q12 5 19.5 8.5t18.5 8.5
q13 7 19 0t4 -12q-11 -21 -24 -45.5t-26 -50t-23 -50.5t-15 -47q-1 -2 -11 -2.5t-12 -0.5q-4 0 -4 4q2 8 4 13.5t5 13.5q16 41 37.5 84.5t42.5 83.5q-8 -4 -15 -7t-17 -6q-2 -1 -6 1q0 4 3 4zM130 168q-1 -1 -3 -1q2 0 3 1z" />
    <glyph glyph-name="onehalf" unicode="&#xbd;" horiz-adv-x="502" 
d="M495 877q-11 -35 -26.5 -74.5t-32 -79.5t-33.5 -79t-32 -74q-72 -172 -145 -343t-149 -341l-33 -71q-2 -5 -8.5 -6t-10.5 1q-5 2 -8 6t-1 9l12 26q78 165 151 339.5t145 344.5q17 40 36 84t38 88.5t36 88t31 84.5q1 5 6 7.5t10 1.5q5 0 10 -3.5t4 -8.5zM336 287
q0 17 16 29.5t42 10.5q21 -2 24.5 -16.5t-1.5 -31.5t-14 -33.5t-13 -23.5q-3 -6 -10.5 -17.5t-17 -25t-20 -27.5t-19.5 -24q15 -6 26.5 -11t19 -6t10.5 4t2 20q-2 2 5 2.5t9 0.5q5 0 5 -4l3 -9q-1 -15 -10 -19t-22 -1.5t-27.5 7.5t-24.5 8h-1q-5 -5 -10.5 -8t-8.5 -5
q-10 -5 -15.5 -0.5t-5 11t8 11.5t23.5 2q2 2 13 17t24.5 35.5t27.5 44t22.5 43.5t8.5 33.5t-13 14.5q-21 2 -34 -8.5t-13 -23.5q0 -3 -5 -3t-5 3zM211 553q12 5 19.5 8.5t18.5 8.5q13 7 19 0t4 -12q-11 -21 -24 -45.5t-26 -50t-23 -50.5t-15 -47q-1 -2 -11 -2.5t-12 -0.5
q-4 0 -4 4q2 8 4 13.5t5 13.5q16 41 37.5 84.5t42.5 83.5q-8 -4 -15 -7t-17 -6q-2 -1 -6 1q0 4 3 4zM304 123q-7 0 -13 -2.5t-4 -7.5q3 -6 17 10z" />
    <glyph glyph-name="threequarters" unicode="&#xbe;" horiz-adv-x="508" 
d="M488 847q-11 -35 -26.5 -74.5t-32 -79.5t-33.5 -79t-32 -74q-72 -172 -145 -343t-149 -341l-33 -71q-2 -5 -8.5 -6t-10.5 1q-5 2 -8 6t-1 9l12 26q78 165 151 339.5t145 344.5q17 40 36 84t38 88.5t36 88t31 84.5q1 5 6 7.5t10 1.5q5 0 10 -3.5t4 -8.5zM465 330
q-19 -35 -39 -73.5t-40 -76.5q12 -2 21 -4t12 -6q3 -3 3 -8q0 -6 -7 -6q-6 0 -6 6q-2 6 -27 8q-14 -28 -26.5 -55.5t-22.5 -53.5q-5 -11 -7.5 -20t-5.5 -20q0 -2 -7.5 -3.5t-9.5 -1.5q-6 0 -6 6q2 12 5.5 21t8.5 21q10 26 21.5 53t25.5 54q-18 1 -37 0.5t-33 -1.5l-1 -2
q-10 -11 -20 -11t-14 5t1 11t24 7h3q15 17 37 43t43 53.5t37.5 53t21.5 41.5q2 5 8 3q2 0 8 -5t5 -7q-5 -16 -22 -39.5t-39 -49t-44.5 -50t-38.5 -42.5q14 0 31.5 0.5t34.5 -0.5q20 40 40 78.5t40 74.5q1 3 8 3q2 -1 8.5 -3t5.5 -4zM113 539q4 19 22.5 33.5t44.5 11.5
q16 -2 22 -11.5t5 -21.5t-7 -23.5t-12 -18.5l-9 -8q16 -32 8 -71.5t-32 -67.5q-7 -8 -16.5 -15t-21 -10.5t-24 -3t-24.5 8.5q-13 9 -17 22t-2.5 27.5t7 28.5t10.5 24q2 4 7 2q5 0 3 -5q-7 -14 -11.5 -26t-5.5 -27q-1 -12 3.5 -24.5t18.5 -18.5l7.5 -3t10.5 0q27 5 43 28.5
t23 51.5q8 28 8.5 49t-7.5 31q-1 1 2 2.5t10 9.5q6 6 9 16.5t2 21t-6.5 18t-16.5 6.5q-17 -2 -29 -13t-14 -24q0 -4 -6 -4q-5 0 -5 4zM269 168q-1 -1 -3 -1q2 0 3 1z" />
    <glyph glyph-name="questiondown" unicode="&#xbf;" horiz-adv-x="555" 
d="M306.013 -0.958008q-2 -35.998 -12.499 -75.4961q-10.499 -39.4971 -28.998 -73.9951t-46.9971 -60.4961q-28.499 -25.999 -66.4961 -33.998q-51.9971 -11.999 -85.9951 6.49902q-33.998 18.499 -52.9961 52.9971q-18.999 34.498 -23.999 77.9951t-1 80.4951
q5 44.9971 19.999 89.4951q14.999 44.4971 36.498 85.9941q21.498 41.498 48.4961 78.9951q26.999 37.498 55.9971 68.4961q55.9971 59.9961 107.493 110.493q51.4971 50.4971 93.9941 103.994q42.498 53.4961 73.9961 117.992t49.4971 152.491q2 9.99902 2.99902 16.499
q1 6.49902 2 12.999q1 6.49902 2 12.999t2 16.499q0 5 6.5 7.5q6.49902 2.49902 11.499 1.49902q5 -0.999023 9.99902 -3.99902q5 -3 4 -8q-1 -9.99902 -2 -16.999q-1 -6.99902 -2 -13.499t-2 -12.999q-0.999023 -6.5 -2.99902 -16.499q-17.999 -90.9941 -50.4971 -156.49
t-75.9951 -120.493q-43.498 -54.9961 -95.9941 -105.993q-52.4971 -50.9971 -110.493 -112.993q-34.998 -37.998 -63.4971 -93.4941q-28.498 -55.4971 -46.4971 -115.493q-17.998 -59.9961 -23.998 -117.493q-6 -57.4961 2.5 -100.993q8.49902 -43.498 33.498 -66.4961
q24.998 -22.999 68.9951 -11.999q34.998 7.99902 60.4971 31.998q25.498 23.998 42.9971 55.4961t26.498 67.4961q9 35.998 10.999 68.9961q0 10.999 11 10.999q10.999 0 10.999 -10.999zM543.998 914.985q-2 -3.99902 -4.99902 -10.499q-3 -6.5 -7 -12.499
q-4 -6 -9.49902 -9q-5.5 -2.99902 -12.5 0q-5.99902 3 -5.99902 12q0 8.99902 2 18.998q1.99902 10 5.49902 17.999q3.5 8 4.5 11q2 4.99902 7.5 2.99902q5.49902 -1.99902 10.999 -6.99902q5.49902 -5 8.49902 -11.999q3 -7 1 -12z" />
    <glyph glyph-name="Agrave" unicode="&#xc0;" horiz-adv-x="647" 
d="M-274 395q21 24 50 56t62.5 58.5t70.5 41t73 4.5q21 -6 30.5 -26t10 -49.5t-6.5 -65.5t-17.5 -73.5t-23.5 -74.5t-25 -68l35 6q43 81 91.5 168t100 169.5t103 156t99.5 126.5t90.5 80.5t75.5 19.5q40 -10 54.5 -44.5t12 -83t-18.5 -105t-36.5 -110t-40.5 -99t-32 -71.5
q-11 -28 -27 -62t-34 -74q70 5 120.5 -3.5t67.5 -37.5q4 -9 -6 -14q-9 -4 -14 4q-15 24 -63 28.5t-117 -3.5q-27 -58 -55.5 -122.5t-55.5 -131t-50.5 -132.5t-40 -126.5t-23 -112.5t0.5 -91q2 -11 4 -18t4 -12.5t5 -11.5l8 -16q2 -4 1.5 -8.5t-5.5 -6.5q-8 -7 -15 2l-14 31
q-15 39 -12 94.5t18 120t39 135.5t52.5 141.5t58.5 137.5t56 124q-42 -5 -88 -12.5t-94 -16t-95.5 -17.5t-91.5 -16q-37 -72 -69.5 -137.5t-58 -119.5t-43 -93t-24.5 -57q-2 -4 -6.5 -11t-9.5 -14.5t-10.5 -15t-8.5 -13.5q-7 -12 -11 -12q-9 0 -10 12v1q-2 14 3.5 39.5
t14.5 56.5t20.5 64t22 61.5t19 49t10.5 26.5q6 16 23 55.5t37 92.5q-72 -8 -117 -2.5t-49 33.5q-1 5 2.5 8.5t8.5 3.5q5 1 8 -2t2 -8q3 -19 44.5 -19t109.5 11q20 54 38.5 111.5t28.5 106.5t7 82.5t-25 39.5q-32 9 -65.5 -6t-65 -40.5t-58 -55.5t-45.5 -51q-3 -4 -7.5 -4
t-7.5 3q-4 3 -3.5 7.5t3.5 7.5zM399 273q11 26 22 47.5t19 40.5q10 23 31 68.5t43.5 101t42.5 115t28.5 112t1.5 90.5t-38 51q-27 11 -63 -12t-79 -71.5t-90.5 -117t-96 -148.5t-96.5 -166.5t-91 -170.5q44 8 91 17t94 17.5t93 15t88 10.5zM-61 172l-21 -54
q-21 -53 -46 -113.5t-46 -122.5q7 16 20.5 45t32.5 67t42 84.5t50 97.5zM392 1094q1 0 5.5 2t10 5t10 5t5.5 2q-5 -6 -3.5 -23t5.5 -35.5t7.5 -33.5t3.5 -16q-2 -3 -11.5 8t-18.5 27.5t-14 33t0 25.5z" />
    <glyph glyph-name="Aacute" unicode="&#xc1;" horiz-adv-x="647" 
d="M-274 395q21 24 50 56t62.5 58.5t70.5 41t73 4.5q21 -6 30.5 -26t10 -49.5t-6.5 -65.5t-17.5 -73.5t-23.5 -74.5t-25 -68l35 6q43 81 91.5 168t100 169.5t103 156t99.5 126.5t90.5 80.5t75.5 19.5q40 -10 54.5 -44.5t12 -83t-18.5 -105t-36.5 -110t-40.5 -99t-32 -71.5
q-11 -28 -27 -62t-34 -74q70 5 120.5 -3.5t67.5 -37.5q4 -9 -6 -14q-9 -4 -14 4q-15 24 -63 28.5t-117 -3.5q-27 -58 -55.5 -122.5t-55.5 -131t-50.5 -132.5t-40 -126.5t-23 -112.5t0.5 -91q2 -11 4 -18t4 -12.5t5 -11.5l8 -16q2 -4 1.5 -8.5t-5.5 -6.5q-8 -7 -15 2l-14 31
q-15 39 -12 94.5t18 120t39 135.5t52.5 141.5t58.5 137.5t56 124q-42 -5 -88 -12.5t-94 -16t-95.5 -17.5t-91.5 -16q-37 -72 -69.5 -137.5t-58 -119.5t-43 -93t-24.5 -57q-2 -4 -6.5 -11t-9.5 -14.5t-10.5 -15t-8.5 -13.5q-7 -12 -11 -12q-9 0 -10 12v1q-2 14 3.5 39.5
t14.5 56.5t20.5 64t22 61.5t19 49t10.5 26.5q6 16 23 55.5t37 92.5q-72 -8 -117 -2.5t-49 33.5q-1 5 2.5 8.5t8.5 3.5q5 1 8 -2t2 -8q3 -19 44.5 -19t109.5 11q20 54 38.5 111.5t28.5 106.5t7 82.5t-25 39.5q-32 9 -65.5 -6t-65 -40.5t-58 -55.5t-45.5 -51q-3 -4 -7.5 -4
t-7.5 3q-4 3 -3.5 7.5t3.5 7.5zM399 273q11 26 22 47.5t19 40.5q10 23 31 68.5t43.5 101t42.5 115t28.5 112t1.5 90.5t-38 51q-27 11 -63 -12t-79 -71.5t-90.5 -117t-96 -148.5t-96.5 -166.5t-91 -170.5q44 8 91 17t94 17.5t93 15t88 10.5zM-61 172l-21 -54
q-21 -53 -46 -113.5t-46 -122.5q7 16 20.5 45t32.5 67t42 84.5t50 97.5zM569 1091q5 -9 -0.5 -25.5t-14.5 -33t-18 -27.5t-11 -8q0 1 3.5 16t7.5 33.5t5.5 35.5t-3.5 23q1 0 5.5 -2t10 -5t10 -5t5.5 -2z" />
    <glyph glyph-name="Acircumflex" unicode="&#xc2;" horiz-adv-x="647" 
d="M-274 395q21 24 50 56t62.5 58.5t70.5 41t73 4.5q21 -6 30.5 -26t10 -49.5t-6.5 -65.5t-17.5 -73.5t-23.5 -74.5t-25 -68l35 6q43 81 91.5 168t100 169.5t103 156t99.5 126.5t90.5 80.5t75.5 19.5q40 -10 54.5 -44.5t12 -83t-18.5 -105t-36.5 -110t-40.5 -99t-32 -71.5
q-11 -28 -27 -62t-34 -74q70 5 120.5 -3.5t67.5 -37.5q4 -9 -6 -14q-9 -4 -14 4q-15 24 -63 28.5t-117 -3.5q-27 -58 -55.5 -122.5t-55.5 -131t-50.5 -132.5t-40 -126.5t-23 -112.5t0.5 -91q2 -11 4 -18t4 -12.5t5 -11.5l8 -16q2 -4 1.5 -8.5t-5.5 -6.5q-8 -7 -15 2l-14 31
q-15 39 -12 94.5t18 120t39 135.5t52.5 141.5t58.5 137.5t56 124q-42 -5 -88 -12.5t-94 -16t-95.5 -17.5t-91.5 -16q-37 -72 -69.5 -137.5t-58 -119.5t-43 -93t-24.5 -57q-2 -4 -6.5 -11t-9.5 -14.5t-10.5 -15t-8.5 -13.5q-7 -12 -11 -12q-9 0 -10 12v1q-2 14 3.5 39.5
t14.5 56.5t20.5 64t22 61.5t19 49t10.5 26.5q6 16 23 55.5t37 92.5q-72 -8 -117 -2.5t-49 33.5q-1 5 2.5 8.5t8.5 3.5q5 1 8 -2t2 -8q3 -19 44.5 -19t109.5 11q20 54 38.5 111.5t28.5 106.5t7 82.5t-25 39.5q-32 9 -65.5 -6t-65 -40.5t-58 -55.5t-45.5 -51q-3 -4 -7.5 -4
t-7.5 3q-4 3 -3.5 7.5t3.5 7.5zM399 273q11 26 22 47.5t19 40.5q10 23 31 68.5t43.5 101t42.5 115t28.5 112t1.5 90.5t-38 51q-27 11 -63 -12t-79 -71.5t-90.5 -117t-96 -148.5t-96.5 -166.5t-91 -170.5q44 8 91 17t94 17.5t93 15t88 10.5zM-61 172l-21 -54
q-21 -53 -46 -113.5t-46 -122.5q7 16 20.5 45t32.5 67t42 84.5t50 97.5zM495 1111q12 -1 23 -16.5t18.5 -34.5t11 -34t-0.5 -14q-1 0 -7 11t-14.5 23.5t-18 23t-16.5 10.5t-18 -15t-22.5 -33t-21 -33t-14.5 -15q-3 1 5 21t21.5 44t28.5 43.5t25 18.5z" />
    <glyph glyph-name="Atilde" unicode="&#xc3;" horiz-adv-x="647" 
d="M-274 395q21 24 50 56t62.5 58.5t70.5 41t73 4.5q21 -6 30.5 -26t10 -49.5t-6.5 -65.5t-17.5 -73.5t-23.5 -74.5t-25 -68l35 6q43 81 91.5 168t100 169.5t103 156t99.5 126.5t90.5 80.5t75.5 19.5q40 -10 54.5 -44.5t12 -83t-18.5 -105t-36.5 -110t-40.5 -99t-32 -71.5
q-11 -28 -27 -62t-34 -74q70 5 120.5 -3.5t67.5 -37.5q4 -9 -6 -14q-9 -4 -14 4q-15 24 -63 28.5t-117 -3.5q-27 -58 -55.5 -122.5t-55.5 -131t-50.5 -132.5t-40 -126.5t-23 -112.5t0.5 -91q2 -11 4 -18t4 -12.5t5 -11.5l8 -16q2 -4 1.5 -8.5t-5.5 -6.5q-8 -7 -15 2l-14 31
q-15 39 -12 94.5t18 120t39 135.5t52.5 141.5t58.5 137.5t56 124q-42 -5 -88 -12.5t-94 -16t-95.5 -17.5t-91.5 -16q-37 -72 -69.5 -137.5t-58 -119.5t-43 -93t-24.5 -57q-2 -4 -6.5 -11t-9.5 -14.5t-10.5 -15t-8.5 -13.5q-7 -12 -11 -12q-9 0 -10 12v1q-2 14 3.5 39.5
t14.5 56.5t20.5 64t22 61.5t19 49t10.5 26.5q6 16 23 55.5t37 92.5q-72 -8 -117 -2.5t-49 33.5q-1 5 2.5 8.5t8.5 3.5q5 1 8 -2t2 -8q3 -19 44.5 -19t109.5 11q20 54 38.5 111.5t28.5 106.5t7 82.5t-25 39.5q-32 9 -65.5 -6t-65 -40.5t-58 -55.5t-45.5 -51q-3 -4 -7.5 -4
t-7.5 3q-4 3 -3.5 7.5t3.5 7.5zM399 273q11 26 22 47.5t19 40.5q10 23 31 68.5t43.5 101t42.5 115t28.5 112t1.5 90.5t-38 51q-27 11 -63 -12t-79 -71.5t-90.5 -117t-96 -148.5t-96.5 -166.5t-91 -170.5q44 8 91 17t94 17.5t93 15t88 10.5zM-61 172l-21 -54
q-21 -53 -46 -113.5t-46 -122.5q7 16 20.5 45t32.5 67t42 84.5t50 97.5zM390 1011q-8 -7 -14.5 -2t-1.5 13q28 25 49 30t38 -1t31 -16.5t28 -16.5t29 -1t34 30q8 7 15 0.5t-1 -14.5q-24 -26 -42 -32.5t-34 -2.5t-30 13.5t-29.5 15.5t-32.5 4t-39 -20z" />
    <glyph glyph-name="Adieresis" unicode="&#xc4;" horiz-adv-x="647" 
d="M-274 395q21 24 50 56t62.5 58.5t70.5 41t73 4.5q21 -6 30.5 -26t10 -49.5t-6.5 -65.5t-17.5 -73.5t-23.5 -74.5t-25 -68l35 6q43 81 91.5 168t100 169.5t103 156t99.5 126.5t90.5 80.5t75.5 19.5q40 -10 54.5 -44.5t12 -83t-18.5 -105t-36.5 -110t-40.5 -99t-32 -71.5
q-11 -28 -27 -62t-34 -74q70 5 120.5 -3.5t67.5 -37.5q4 -9 -6 -14q-9 -4 -14 4q-15 24 -63 28.5t-117 -3.5q-27 -58 -55.5 -122.5t-55.5 -131t-50.5 -132.5t-40 -126.5t-23 -112.5t0.5 -91q2 -11 4 -18t4 -12.5t5 -11.5l8 -16q2 -4 1.5 -8.5t-5.5 -6.5q-8 -7 -15 2l-14 31
q-15 39 -12 94.5t18 120t39 135.5t52.5 141.5t58.5 137.5t56 124q-42 -5 -88 -12.5t-94 -16t-95.5 -17.5t-91.5 -16q-37 -72 -69.5 -137.5t-58 -119.5t-43 -93t-24.5 -57q-2 -4 -6.5 -11t-9.5 -14.5t-10.5 -15t-8.5 -13.5q-7 -12 -11 -12q-9 0 -10 12v1q-2 14 3.5 39.5
t14.5 56.5t20.5 64t22 61.5t19 49t10.5 26.5q6 16 23 55.5t37 92.5q-72 -8 -117 -2.5t-49 33.5q-1 5 2.5 8.5t8.5 3.5q5 1 8 -2t2 -8q3 -19 44.5 -19t109.5 11q20 54 38.5 111.5t28.5 106.5t7 82.5t-25 39.5q-32 9 -65.5 -6t-65 -40.5t-58 -55.5t-45.5 -51q-3 -4 -7.5 -4
t-7.5 3q-4 3 -3.5 7.5t3.5 7.5zM399 273q11 26 22 47.5t19 40.5q10 23 31 68.5t43.5 101t42.5 115t28.5 112t1.5 90.5t-38 51q-27 11 -63 -12t-79 -71.5t-90.5 -117t-96 -148.5t-96.5 -166.5t-91 -170.5q44 8 91 17t94 17.5t93 15t88 10.5zM-61 172l-21 -54
q-21 -53 -46 -113.5t-46 -122.5q7 16 20.5 45t32.5 67t42 84.5t50 97.5zM557 1048q8 -2 9.5 -10t-1.5 -16t-10.5 -14t-16.5 -4q-7 2 -8 10t2 16.5t10 14.5t15 3zM427 1048q8 -2 9.5 -10t-1.5 -16t-10.5 -14t-16.5 -4q-7 2 -8 10t2 16.5t10 14.5t15 3z" />
    <glyph glyph-name="Aring" unicode="&#xc5;" horiz-adv-x="647" 
d="M-274 395q21 24 50 56t62.5 58.5t70.5 41t73 4.5q21 -6 30.5 -26t10 -49.5t-6.5 -65.5t-17.5 -73.5t-23.5 -74.5t-25 -68l35 6q43 81 91.5 168t100 169.5t103 156t99.5 126.5t90.5 80.5t75.5 19.5q40 -10 54.5 -44.5t12 -83t-18.5 -105t-36.5 -110t-40.5 -99t-32 -71.5
q-11 -28 -27 -62t-34 -74q70 5 120.5 -3.5t67.5 -37.5q4 -9 -6 -14q-9 -4 -14 4q-15 24 -63 28.5t-117 -3.5q-27 -58 -55.5 -122.5t-55.5 -131t-50.5 -132.5t-40 -126.5t-23 -112.5t0.5 -91q2 -11 4 -18t4 -12.5t5 -11.5l8 -16q2 -4 1.5 -8.5t-5.5 -6.5q-8 -7 -15 2l-14 31
q-15 39 -12 94.5t18 120t39 135.5t52.5 141.5t58.5 137.5t56 124q-42 -5 -88 -12.5t-94 -16t-95.5 -17.5t-91.5 -16q-37 -72 -69.5 -137.5t-58 -119.5t-43 -93t-24.5 -57q-2 -4 -6.5 -11t-9.5 -14.5t-10.5 -15t-8.5 -13.5q-7 -12 -11 -12q-9 0 -10 12v1q-2 14 3.5 39.5
t14.5 56.5t20.5 64t22 61.5t19 49t10.5 26.5q6 16 23 55.5t37 92.5q-72 -8 -117 -2.5t-49 33.5q-1 5 2.5 8.5t8.5 3.5q5 1 8 -2t2 -8q3 -19 44.5 -19t109.5 11q20 54 38.5 111.5t28.5 106.5t7 82.5t-25 39.5q-32 9 -65.5 -6t-65 -40.5t-58 -55.5t-45.5 -51q-3 -4 -7.5 -4
t-7.5 3q-4 3 -3.5 7.5t3.5 7.5zM399 273q11 26 22 47.5t19 40.5q10 23 31 68.5t43.5 101t42.5 115t28.5 112t1.5 90.5t-38 51q-27 11 -63 -12t-79 -71.5t-90.5 -117t-96 -148.5t-96.5 -166.5t-91 -170.5q44 8 91 17t94 17.5t93 15t88 10.5zM-61 172l-21 -54
q-21 -53 -46 -113.5t-46 -122.5q7 16 20.5 45t32.5 67t42 84.5t50 97.5zM560 1123q24 -7 28.5 -29.5t-5 -45.5t-30 -39.5t-46.5 -10.5q-14 3 -19.5 14.5t-5 27t6.5 32.5t16.5 30t24.5 19.5t30 1.5zM552 1104q-17 5 -30 -7t-19.5 -28.5t-4.5 -32.5t16 -19q18 -4 32.5 7
t21.5 27.5t3.5 32t-19.5 20.5z" />
    <glyph glyph-name="AE" unicode="&#xc6;" horiz-adv-x="1270" 
d="M-274 395q21 24 50 56t62.5 58.5t70.5 41t73 4.5q21 -6 30.5 -26t10 -49.5t-6.5 -65.5t-17.5 -73.5t-23.5 -74.5t-25 -68l35 6q43 81 91.5 168t100 169.5t103 156t99.5 126.5t90.5 80.5t75.5 19.5q40 -10 54.5 -44.5t12 -83t-18.5 -105t-36.5 -110t-40.5 -99t-32 -71.5
q-11 -28 -27 -62t-34 -74q70 5 120.5 -3.5t67.5 -37.5q4 -9 -6 -14q-9 -4 -14 4q-15 24 -63 28.5t-117 -3.5q-27 -58 -55.5 -122.5t-55.5 -131t-50.5 -132.5t-40 -126.5t-23 -112.5t0.5 -91q2 -11 4 -18t4 -12.5t5 -11.5l8 -16q2 -4 1.5 -8.5t-5.5 -6.5q-8 -7 -15 2l-14 31
q-15 39 -12 94.5t18 120t39 135.5t52.5 141.5t58.5 137.5t56 124q-42 -5 -88 -12.5t-94 -16t-95.5 -17.5t-91.5 -16q-37 -72 -69.5 -137.5t-58 -119.5t-43 -93t-24.5 -57q-2 -4 -6.5 -11t-9.5 -14.5t-10.5 -15t-8.5 -13.5q-7 -12 -11 -12q-9 0 -10 12v1q-2 14 3.5 39.5
t14.5 56.5t20.5 64t22 61.5t19 49t10.5 26.5q6 16 23 55.5t37 92.5q-72 -8 -117 -2.5t-49 33.5q-1 5 2.5 8.5t8.5 3.5q5 1 8 -2t2 -8q3 -19 44.5 -19t109.5 11q20 54 38.5 111.5t28.5 106.5t7 82.5t-25 39.5q-32 9 -65.5 -6t-65 -40.5t-58 -55.5t-45.5 -51q-3 -4 -7.5 -4
t-7.5 3q-4 3 -3.5 7.5t3.5 7.5zM399 273q11 26 22 47.5t19 40.5q10 23 31 68.5t43.5 101t42.5 115t28.5 112t1.5 90.5t-38 51q-27 11 -63 -12t-79 -71.5t-90.5 -117t-96 -148.5t-96.5 -166.5t-91 -170.5q44 8 91 17t94 17.5t93 15t88 10.5zM-61 172l-21 -54
q-21 -53 -46 -113.5t-46 -122.5q7 16 20.5 45t32.5 67t42 84.5t50 97.5zM537 436q8 35 29.5 56.5t52 33t67 15.5t75 5t77.5 1t73 4q-11 52 -3.5 104.5t36.5 108.5q17 32 51 68t75.5 61t86 32t83.5 -17q34 -22 39.5 -57t-7 -73t-36.5 -73.5t-49 -58.5q-52 -48 -108.5 -74.5
t-119.5 -37.5q9 -38 25 -69q10 -23 14 -31t-2 -11.5t-23 -6t-47 -14.5q-50 -20 -93 -55t-77 -80.5t-59 -98t-38.5 -107t-15 -109t10.5 -102.5q15 -60 46 -86.5t69.5 -25t80 28t76.5 71.5q41 51 71 111.5t54 120.5q5 10 15 7q9 -3 5 -14q-22 -54 -47.5 -107t-59.5 -102
q-21 -30 -51.5 -61t-66.5 -51.5t-75 -25t-76 18.5q-46 29 -67.5 88.5t-20 134t25 154t67 148t107 117.5t144.5 61q-23 47 -35 92q-45 -6 -94 -6q-30 0 -71.5 0.5t-81 -6.5t-70.5 -26t-41 -59q0 -5 -4 -7.5t-8 -1.5q-5 0 -7.5 3.5t-1.5 8.5zM954 554q12 2 20 4q43 10 91 33
t89 55.5t70 74t34 90.5q4 42 -12.5 63t-44.5 25t-61 -6.5t-62 -31.5q-40 -29 -67 -64.5t-42 -75t-19 -82.5t4 -85z" />
    <glyph glyph-name="Ccedilla" unicode="&#xc7;" horiz-adv-x="833" 
d="M-199 472q8 30 21 47.5t32 26t43 9.5t54 0q66 -4 123 -11t114 -9q33 61 71.5 118.5t79.5 106.5t83 87t83 59q31 16 61.5 19t55.5 -6.5t41.5 -33t18.5 -59.5q3 -53 -19.5 -98.5t-60 -82t-84 -63t-92.5 -40.5q-57 -18 -107.5 -24t-98.5 -5q-51 -93 -93 -193t-67.5 -194
t-29.5 -175.5t21 -137.5q17 -38 44.5 -56.5t59.5 -20.5t65 11t61 39q27 25 50 57.5t42.5 68.5t35.5 73.5t29 71.5q2 5 6 6.5t8 -0.5q11 -4 6 -14q-12 -30 -28 -67.5t-36.5 -76t-45.5 -75t-55 -63.5t-64.5 -42t-73.5 -11q-48 5 -78.5 28.5t-48.5 58t-25 77.5t-6 86.5t7 84.5
t14 73q9 38 24.5 84t35.5 96.5t45 104.5t53 107q-54 3 -108.5 9.5t-117.5 9.5q-25 1 -45.5 0.5t-36.5 -6.5t-27.5 -19.5t-18.5 -38.5q-2 -11 -12 -9q-11 2 -9 12zM232 535q45 -1 90.5 5t97.5 22q42 13 85.5 37.5t79 58t57 76t18.5 90.5q-2 39 -18.5 57.5t-40.5 22t-52 -6.5
t-54 -28q-30 -21 -63 -54.5t-66.5 -77t-67.5 -95t-66 -107.5zM124 -280q2 11 11.5 10t9.5 -12q0 -9 -2.5 -17t-0.5 -17q37 3 55.5 -11.5t22 -36t-5 -44t-26 -34t-41.5 -7t-50 37.5q-1 5 1.5 8.5t6 4t7 -1.5t5.5 -7q21 -18 36.5 -17.5t24.5 11.5t12 28t-1 31.5t-14 21.5
t-27 -1q-12 -6 -17 -2t-6.5 13t-1 21t0.5 21z" />
    <glyph glyph-name="Egrave" unicode="&#xc8;" horiz-adv-x="623" 
d="M-110 436q8 35 29.5 56.5t52 33t67 15.5t75 5t77.5 1t73 4q-11 52 -3.5 104.5t36.5 108.5q17 32 51 68t75.5 61t86 32t83.5 -17q34 -22 39.5 -57t-7 -73t-36.5 -73.5t-49 -58.5q-52 -48 -108.5 -74.5t-119.5 -37.5q9 -38 25 -69q10 -23 14 -31t-2 -11.5t-23 -6t-47 -14.5
q-50 -20 -93 -55t-77 -80.5t-59 -98t-38.5 -107t-15 -109t10.5 -102.5q15 -60 46 -86.5t69.5 -25t80 28t76.5 71.5q41 51 71 111.5t54 120.5q5 10 15 7q9 -3 5 -14q-22 -54 -47.5 -107t-59.5 -102q-21 -30 -51.5 -61t-66.5 -51.5t-75 -25t-76 18.5q-46 29 -67.5 88.5
t-20 134t25 154t67 148t107 117.5t144.5 61q-23 47 -35 92q-45 -6 -94 -6q-30 0 -71.5 0.5t-81 -6.5t-70.5 -26t-41 -59q0 -5 -4 -7.5t-8 -1.5q-5 0 -7.5 3.5t-1.5 8.5zM307 554q12 2 20 4q43 10 91 33t89 55.5t70 74t34 90.5q4 42 -12.5 63t-44.5 25t-61 -6.5t-62 -31.5
q-40 -29 -67 -64.5t-42 -75t-19 -82.5t4 -85zM429 1091q1 0 5.5 2t10 5t10 5t5.5 2q-5 -6 -3.5 -23t5.5 -35.5t7.5 -33.5t3.5 -16q-2 -3 -11.5 8t-18.5 27.5t-14 33t0 25.5z" />
    <glyph glyph-name="Eacute" unicode="&#xc9;" horiz-adv-x="623" 
d="M-110 436q8 35 29.5 56.5t52 33t67 15.5t75 5t77.5 1t73 4q-11 52 -3.5 104.5t36.5 108.5q17 32 51 68t75.5 61t86 32t83.5 -17q34 -22 39.5 -57t-7 -73t-36.5 -73.5t-49 -58.5q-52 -48 -108.5 -74.5t-119.5 -37.5q9 -38 25 -69q10 -23 14 -31t-2 -11.5t-23 -6t-47 -14.5
q-50 -20 -93 -55t-77 -80.5t-59 -98t-38.5 -107t-15 -109t10.5 -102.5q15 -60 46 -86.5t69.5 -25t80 28t76.5 71.5q41 51 71 111.5t54 120.5q5 10 15 7q9 -3 5 -14q-22 -54 -47.5 -107t-59.5 -102q-21 -30 -51.5 -61t-66.5 -51.5t-75 -25t-76 18.5q-46 29 -67.5 88.5
t-20 134t25 154t67 148t107 117.5t144.5 61q-23 47 -35 92q-45 -6 -94 -6q-30 0 -71.5 0.5t-81 -6.5t-70.5 -26t-41 -59q0 -5 -4 -7.5t-8 -1.5q-5 0 -7.5 3.5t-1.5 8.5zM307 554q12 2 20 4q43 10 91 33t89 55.5t70 74t34 90.5q4 42 -12.5 63t-44.5 25t-61 -6.5t-62 -31.5
q-40 -29 -67 -64.5t-42 -75t-19 -82.5t4 -85zM552 1099q5 -9 -0.5 -25.5t-14.5 -33t-18 -27.5t-11 -8q0 1 3.5 16t7.5 33.5t5.5 35.5t-3.5 23q1 0 5.5 -2t10 -5t10 -5t5.5 -2z" />
    <glyph glyph-name="Ecircumflex" unicode="&#xca;" horiz-adv-x="623" 
d="M-110 436q8 35 29.5 56.5t52 33t67 15.5t75 5t77.5 1t73 4q-11 52 -3.5 104.5t36.5 108.5q17 32 51 68t75.5 61t86 32t83.5 -17q34 -22 39.5 -57t-7 -73t-36.5 -73.5t-49 -58.5q-52 -48 -108.5 -74.5t-119.5 -37.5q9 -38 25 -69q10 -23 14 -31t-2 -11.5t-23 -6t-47 -14.5
q-50 -20 -93 -55t-77 -80.5t-59 -98t-38.5 -107t-15 -109t10.5 -102.5q15 -60 46 -86.5t69.5 -25t80 28t76.5 71.5q41 51 71 111.5t54 120.5q5 10 15 7q9 -3 5 -14q-22 -54 -47.5 -107t-59.5 -102q-21 -30 -51.5 -61t-66.5 -51.5t-75 -25t-76 18.5q-46 29 -67.5 88.5
t-20 134t25 154t67 148t107 117.5t144.5 61q-23 47 -35 92q-45 -6 -94 -6q-30 0 -71.5 0.5t-81 -6.5t-70.5 -26t-41 -59q0 -5 -4 -7.5t-8 -1.5q-5 0 -7.5 3.5t-1.5 8.5zM307 554q12 2 20 4q43 10 91 33t89 55.5t70 74t34 90.5q4 42 -12.5 63t-44.5 25t-61 -6.5t-62 -31.5
q-40 -29 -67 -64.5t-42 -75t-19 -82.5t4 -85zM501 1135q12 -1 23 -16.5t18.5 -34.5t11 -34t-0.5 -14q-1 0 -7 11t-14.5 23.5t-18 23t-16.5 10.5t-18 -15t-22.5 -33t-21 -33t-14.5 -15q-3 1 5 21t21.5 44t28.5 43.5t25 18.5z" />
    <glyph glyph-name="Edieresis" unicode="&#xcb;" horiz-adv-x="623" 
d="M-110 436q8 35 29.5 56.5t52 33t67 15.5t75 5t77.5 1t73 4q-11 52 -3.5 104.5t36.5 108.5q17 32 51 68t75.5 61t86 32t83.5 -17q34 -22 39.5 -57t-7 -73t-36.5 -73.5t-49 -58.5q-52 -48 -108.5 -74.5t-119.5 -37.5q9 -38 25 -69q10 -23 14 -31t-2 -11.5t-23 -6t-47 -14.5
q-50 -20 -93 -55t-77 -80.5t-59 -98t-38.5 -107t-15 -109t10.5 -102.5q15 -60 46 -86.5t69.5 -25t80 28t76.5 71.5q41 51 71 111.5t54 120.5q5 10 15 7q9 -3 5 -14q-22 -54 -47.5 -107t-59.5 -102q-21 -30 -51.5 -61t-66.5 -51.5t-75 -25t-76 18.5q-46 29 -67.5 88.5
t-20 134t25 154t67 148t107 117.5t144.5 61q-23 47 -35 92q-45 -6 -94 -6q-30 0 -71.5 0.5t-81 -6.5t-70.5 -26t-41 -59q0 -5 -4 -7.5t-8 -1.5q-5 0 -7.5 3.5t-1.5 8.5zM307 554q12 2 20 4q43 10 91 33t89 55.5t70 74t34 90.5q4 42 -12.5 63t-44.5 25t-61 -6.5t-62 -31.5
q-40 -29 -67 -64.5t-42 -75t-19 -82.5t4 -85zM560 1043q8 -2 9.5 -10t-1.5 -16t-10.5 -14t-16.5 -4q-7 2 -8 10t2 16.5t10 14.5t15 3zM430 1043q8 -2 9.5 -10t-1.5 -16t-10.5 -14t-16.5 -4q-7 2 -8 10t2 16.5t10 14.5t15 3z" />
    <glyph glyph-name="Igrave" unicode="&#xcc;" horiz-adv-x="765" 
d="M312 711q17 34 47 72t67.5 70t79.5 52.5t83 19.5q39 -1 59.5 -21t28 -51.5t4 -71.5t-11.5 -80q-9 -41 -27.5 -112t-45.5 -158.5t-61 -183.5t-73.5 -185.5t-84 -166t-91 -124.5t-95 -60t-97.5 26q-39 30 -58 75.5t-23.5 98t4.5 109.5t26 111t40.5 101t48.5 81
q21 28 47 53.5t56.5 42.5t64.5 23.5t72 -2.5l28 -8q5 -2 6.5 -6t-0.5 -8q-4 -11 -14 -6l-25 7q-60 14 -115 -16t-99 -87t-74 -132t-40.5 -151t1 -143.5t50.5 -109.5q43 -46 87.5 -37t88.5 56t87 125t82 170.5t73 191.5t61.5 189t46.5 162.5t28 112.5q7 31 9.5 60.5t-3 52
t-20 36.5t-41.5 14q-38 1 -77 -19t-74 -50t-63 -65t-43 -66q-5 -9 -15 -6q-4 2 -5.5 6t0.5 8zM476 1091q1 0 5.5 2t10 5t10 5t5.5 2q-5 -6 -3.5 -23t5.5 -35.5t7.5 -33.5t3.5 -16q-2 -3 -11.5 8t-18.5 27.5t-14 33t0 25.5z" />
    <glyph glyph-name="Iacute" unicode="&#xcd;" horiz-adv-x="765" 
d="M312 711q17 34 47 72t67.5 70t79.5 52.5t83 19.5q39 -1 59.5 -21t28 -51.5t4 -71.5t-11.5 -80q-9 -41 -27.5 -112t-45.5 -158.5t-61 -183.5t-73.5 -185.5t-84 -166t-91 -124.5t-95 -60t-97.5 26q-39 30 -58 75.5t-23.5 98t4.5 109.5t26 111t40.5 101t48.5 81
q21 28 47 53.5t56.5 42.5t64.5 23.5t72 -2.5l28 -8q5 -2 6.5 -6t-0.5 -8q-4 -11 -14 -6l-25 7q-60 14 -115 -16t-99 -87t-74 -132t-40.5 -151t1 -143.5t50.5 -109.5q43 -46 87.5 -37t88.5 56t87 125t82 170.5t73 191.5t61.5 189t46.5 162.5t28 112.5q7 31 9.5 60.5t-3 52
t-20 36.5t-41.5 14q-38 1 -77 -19t-74 -50t-63 -65t-43 -66q-5 -9 -15 -6q-4 2 -5.5 6t0.5 8zM634 1091q5 -9 -0.5 -25.5t-14.5 -33t-18 -27.5t-11 -8q0 1 3.5 16t7.5 33.5t5.5 35.5t-3.5 23q1 0 5.5 -2t10 -5t10 -5t5.5 -2z" />
    <glyph glyph-name="Icircumflex" unicode="&#xce;" horiz-adv-x="765" 
d="M312 711q17 34 47 72t67.5 70t79.5 52.5t83 19.5q39 -1 59.5 -21t28 -51.5t4 -71.5t-11.5 -80q-9 -41 -27.5 -112t-45.5 -158.5t-61 -183.5t-73.5 -185.5t-84 -166t-91 -124.5t-95 -60t-97.5 26q-39 30 -58 75.5t-23.5 98t4.5 109.5t26 111t40.5 101t48.5 81
q21 28 47 53.5t56.5 42.5t64.5 23.5t72 -2.5l28 -8q5 -2 6.5 -6t-0.5 -8q-4 -11 -14 -6l-25 7q-60 14 -115 -16t-99 -87t-74 -132t-40.5 -151t1 -143.5t50.5 -109.5q43 -46 87.5 -37t88.5 56t87 125t82 170.5t73 191.5t61.5 189t46.5 162.5t28 112.5q7 31 9.5 60.5t-3 52
t-20 36.5t-41.5 14q-38 1 -77 -19t-74 -50t-63 -65t-43 -66q-5 -9 -15 -6q-4 2 -5.5 6t0.5 8zM610 1128q12 -1 23 -16.5t18.5 -34.5t11 -34t-0.5 -14q-1 0 -7 11t-14.5 23.5t-18 23t-16.5 10.5t-18 -15t-22.5 -33t-21 -33t-14.5 -15q-3 1 5 21t21.5 44t28.5 43.5t25 18.5z
" />
    <glyph glyph-name="Idieresis" unicode="&#xcf;" horiz-adv-x="765" 
d="M312 711q17 34 47 72t67.5 70t79.5 52.5t83 19.5q39 -1 59.5 -21t28 -51.5t4 -71.5t-11.5 -80q-9 -41 -27.5 -112t-45.5 -158.5t-61 -183.5t-73.5 -185.5t-84 -166t-91 -124.5t-95 -60t-97.5 26q-39 30 -58 75.5t-23.5 98t4.5 109.5t26 111t40.5 101t48.5 81
q21 28 47 53.5t56.5 42.5t64.5 23.5t72 -2.5l28 -8q5 -2 6.5 -6t-0.5 -8q-4 -11 -14 -6l-25 7q-60 14 -115 -16t-99 -87t-74 -132t-40.5 -151t1 -143.5t50.5 -109.5q43 -46 87.5 -37t88.5 56t87 125t82 170.5t73 191.5t61.5 189t46.5 162.5t28 112.5q7 31 9.5 60.5t-3 52
t-20 36.5t-41.5 14q-38 1 -77 -19t-74 -50t-63 -65t-43 -66q-5 -9 -15 -6q-4 2 -5.5 6t0.5 8zM649 1046q8 -2 9.5 -10t-1.5 -16t-10.5 -14t-16.5 -4q-7 2 -8 10t2 16.5t10 14.5t15 3zM519 1046q8 -2 9.5 -10t-1.5 -16t-10.5 -14t-16.5 -4q-7 2 -8 10t2 16.5t10 14.5t15 3z
" />
    <glyph glyph-name="Eth" unicode="&#xd0;" horiz-adv-x="783" 
d="M477 379q-32 -1 -58.5 -2t-51.5 -1.5t-49 -1t-50 -0.5q-36 -72 -72 -150t-69 -155t-61 -151.5t-49 -139.5q-1 -4 -5.5 -10.5t-10 -14t-10.5 -15t-7 -13.5h-1q-5 -12 -10 -12q-8 0 -11 12v1q-3 14 1 39.5t10.5 56.5t15.5 64t17.5 61.5t15 49t8.5 26.5q5 16 19.5 58.5
t31 97.5t31.5 115t22 111.5t2.5 88t-28.5 42.5q-33 9 -65.5 -6t-62 -40.5t-54 -55.5t-41.5 -51q-3 -4 -7.5 -4t-7.5 3q-4 3 -4 7.5t3 7.5q19 24 45.5 56t58.5 58.5t67.5 41t72.5 4.5q28 -8 38.5 -38t9 -72.5t-11.5 -92t-23 -95.5t-25 -83.5t-18 -55.5q-17 -54 -37 -115
t-37 -124q20 55 46 117.5t54.5 127t58.5 128t58 120.5q-9 0 -17.5 -0.5t-18.5 -0.5q-5 -1 -8 4t-3 10q-1 5 2 10.5t8 5.5q14 0 26.5 0.5t25.5 0.5q24 49 45 89t37 69q10 19 33 59t54 87.5t66.5 94.5t72.5 79.5t71.5 42.5t63.5 -17q23 -22 31.5 -64t5 -97.5t-16 -120
t-30.5 -131.5t-39 -132.5t-41.5 -122.5t-38 -102t-28.5 -70q-8 -20 -26.5 -61t-44 -92.5t-57 -110t-66.5 -114t-72.5 -103t-75.5 -78t-74.5 -39t-69.5 14.5q-21 15 -29.5 42.5t-8 62.5t7.5 73.5t17 75t21 67.5t19 51q2 4 6 5.5t9 -0.5q10 -4 5 -14q-6 -15 -18 -49t-22.5 -75
t-17.5 -84t-4 -78t19.5 -55.5t52.5 -15.5q33 4 73 42t84 101t89.5 146.5t89.5 177.5t84 194t73 197t57.5 186.5t36 162t8.5 123.5t-24 71q-23 21 -52 8.5t-60.5 -45.5t-63 -79t-58 -91t-46.5 -82t-28 -52q-19 -33 -38 -70t-39 -76q47 1 90.5 1.5t101.5 2.5q5 1 8 -4t3 -10
q1 -5 -2 -10t-8 -6z" />
    <glyph glyph-name="Ntilde" unicode="&#xd1;" horiz-adv-x="900" 
d="M-43 391q19 25 45.5 57t58.5 58t67.5 40.5t72.5 4.5q28 -8 38 -38t8.5 -72.5t-11.5 -92t-22.5 -95.5t-25 -83.5t-17.5 -55.5q-14 -45 -31 -95.5t-32 -103.5q19 52 41.5 108.5t46 113t48.5 112t47.5 105t43 91t36.5 71.5q13 25 38 71.5t57 98.5t70.5 103t79.5 85t82 45
t79 -17q31 -23 40.5 -67t4 -99t-21.5 -116t-36 -117.5t-40 -104t-32 -74.5q-21 -45 -52.5 -112t-66.5 -145t-69.5 -161.5t-59.5 -161.5t-37 -146t-3 -115l9 -29q4 -11 -6 -14q-10 -5 -14 6l-10 33q-9 47 1 111.5t32.5 138t53.5 151.5t63 151t62 136t50 107q12 25 33.5 74.5
t44.5 111t43.5 128t30 126t3.5 105.5t-35 65q-30 20 -66.5 5.5t-76.5 -54.5t-82 -102t-84.5 -137t-83.5 -159t-78.5 -167.5t-70 -163t-58 -146t-43 -115.5t-24.5 -72q-2 -8 -12 -24.5t-15 -28.5v-1q-5 -12 -11 -12q-7 0 -10 12v1q-3 14 0.5 40t10.5 57t16 63.5t17.5 61
t15 49t8.5 26.5q5 16 19.5 58.5t31 97.5t31.5 115.5t22 112t2 88t-29 42.5q-33 9 -65.5 -6t-61.5 -41t-53.5 -56t-41.5 -51q-7 -8 -16 -1q-3 3 -3 7.5t3 7.5zM669 1016q-8 -7 -14.5 -2t-1.5 13q28 25 49 30t38 -1t31 -16.5t28 -16.5t29 -1t34 30q8 7 15 0.5t-1 -14.5
q-24 -26 -42 -32.5t-34 -2.5t-30 13.5t-29.5 15.5t-32.5 4t-39 -20z" />
    <glyph glyph-name="Ograve" unicode="&#xd2;" 
d="M204 429q16 66 38.5 135.5t54 132.5t72.5 115.5t93 84.5q42 26 73 27.5t52.5 -15.5t32.5 -50t12 -76q2 -64 -15.5 -156t-49.5 -196.5t-75.5 -212t-93 -203t-103 -170t-105.5 -112.5q-36 -26 -67.5 -30.5t-55 9.5t-37.5 44t-16 72q-3 53 13 126t43 154t62 164t72 157z
M192 291l4 24t4 25q-6 -13 -20 -45.5t-31.5 -78t-36 -99t-34 -108t-25 -105t-8.5 -90.5t14.5 -64.5t45.5 -26.5t72 28q31 23 70 77t80.5 128.5t82.5 163.5t77 181.5t63.5 183.5t42 169.5t13.5 138.5t-23 91q-14 20 -41 20.5t-69 -25.5q-41 -26 -74.5 -65.5t-61 -87.5
t-49.5 -102t-38 -109q34 60 62 100q10 14 14.5 20.5t8.5 10.5t9 8.5t16 14.5q9 5 15 -4q2 -4 8.5 -8t2.5 -6q-9 -8 -13 -12t-7 -8l-7.5 -10l-13.5 -18q-24 -34 -51 -80.5t-54 -100.5q-9 -36 -15.5 -70t-11.5 -64q-2 -11 -12 -9q-11 2 -9 12zM517 1095q1 0 5.5 2t10 5t10 5
t5.5 2q-5 -6 -3.5 -23t5.5 -35.5t7.5 -33.5t3.5 -16q-2 -3 -11.5 8t-18.5 27.5t-14 33t0 25.5z" />
    <glyph glyph-name="Oacute" unicode="&#xd3;" 
d="M204 429q16 66 38.5 135.5t54 132.5t72.5 115.5t93 84.5q42 26 73 27.5t52.5 -15.5t32.5 -50t12 -76q2 -64 -15.5 -156t-49.5 -196.5t-75.5 -212t-93 -203t-103 -170t-105.5 -112.5q-36 -26 -67.5 -30.5t-55 9.5t-37.5 44t-16 72q-3 53 13 126t43 154t62 164t72 157z
M192 291l4 24t4 25q-6 -13 -20 -45.5t-31.5 -78t-36 -99t-34 -108t-25 -105t-8.5 -90.5t14.5 -64.5t45.5 -26.5t72 28q31 23 70 77t80.5 128.5t82.5 163.5t77 181.5t63.5 183.5t42 169.5t13.5 138.5t-23 91q-14 20 -41 20.5t-69 -25.5q-41 -26 -74.5 -65.5t-61 -87.5
t-49.5 -102t-38 -109q34 60 62 100q10 14 14.5 20.5t8.5 10.5t9 8.5t16 14.5q9 5 15 -4q2 -4 8.5 -8t2.5 -6q-9 -8 -13 -12t-7 -8l-7.5 -10l-13.5 -18q-24 -34 -51 -80.5t-54 -100.5q-9 -36 -15.5 -70t-11.5 -64q-2 -11 -12 -9q-11 2 -9 12zM593 1099q5 -9 -0.5 -25.5
t-14.5 -33t-18 -27.5t-11 -8q0 1 3.5 16t7.5 33.5t5.5 35.5t-3.5 23q1 0 5.5 -2t10 -5t10 -5t5.5 -2z" />
    <glyph glyph-name="Ocircumflex" unicode="&#xd4;" 
d="M204 429q16 66 38.5 135.5t54 132.5t72.5 115.5t93 84.5q42 26 73 27.5t52.5 -15.5t32.5 -50t12 -76q2 -64 -15.5 -156t-49.5 -196.5t-75.5 -212t-93 -203t-103 -170t-105.5 -112.5q-36 -26 -67.5 -30.5t-55 9.5t-37.5 44t-16 72q-3 53 13 126t43 154t62 164t72 157z
M192 291l4 24t4 25q-6 -13 -20 -45.5t-31.5 -78t-36 -99t-34 -108t-25 -105t-8.5 -90.5t14.5 -64.5t45.5 -26.5t72 28q31 23 70 77t80.5 128.5t82.5 163.5t77 181.5t63.5 183.5t42 169.5t13.5 138.5t-23 91q-14 20 -41 20.5t-69 -25.5q-41 -26 -74.5 -65.5t-61 -87.5
t-49.5 -102t-38 -109q34 60 62 100q10 14 14.5 20.5t8.5 10.5t9 8.5t16 14.5q9 5 15 -4q2 -4 8.5 -8t2.5 -6q-9 -8 -13 -12t-7 -8l-7.5 -10l-13.5 -18q-24 -34 -51 -80.5t-54 -100.5q-9 -36 -15.5 -70t-11.5 -64q-2 -11 -12 -9q-11 2 -9 12zM575 1125q12 -1 23 -16.5
t18.5 -34.5t11 -34t-0.5 -14q-1 0 -7 11t-14.5 23.5t-18 23t-16.5 10.5t-18 -15t-22.5 -33t-21 -33t-14.5 -15q-3 1 5 21t21.5 44t28.5 43.5t25 18.5z" />
    <glyph glyph-name="Otilde" unicode="&#xd5;" 
d="M204 429q16 66 38.5 135.5t54 132.5t72.5 115.5t93 84.5q42 26 73 27.5t52.5 -15.5t32.5 -50t12 -76q2 -64 -15.5 -156t-49.5 -196.5t-75.5 -212t-93 -203t-103 -170t-105.5 -112.5q-36 -26 -67.5 -30.5t-55 9.5t-37.5 44t-16 72q-3 53 13 126t43 154t62 164t72 157z
M192 291l4 24t4 25q-6 -13 -20 -45.5t-31.5 -78t-36 -99t-34 -108t-25 -105t-8.5 -90.5t14.5 -64.5t45.5 -26.5t72 28q31 23 70 77t80.5 128.5t82.5 163.5t77 181.5t63.5 183.5t42 169.5t13.5 138.5t-23 91q-14 20 -41 20.5t-69 -25.5q-41 -26 -74.5 -65.5t-61 -87.5
t-49.5 -102t-38 -109q34 60 62 100q10 14 14.5 20.5t8.5 10.5t9 8.5t16 14.5q9 5 15 -4q2 -4 8.5 -8t2.5 -6q-9 -8 -13 -12t-7 -8l-7.5 -10l-13.5 -18q-24 -34 -51 -80.5t-54 -100.5q-9 -36 -15.5 -70t-11.5 -64q-2 -11 -12 -9q-11 2 -9 12zM440 1013q-8 -7 -14.5 -2
t-1.5 13q28 25 49 30t38 -1t31 -16.5t28 -16.5t29 -1t34 30q8 7 15 0.5t-1 -14.5q-24 -26 -42 -32.5t-34 -2.5t-30 13.5t-29.5 15.5t-32.5 4t-39 -20z" />
    <glyph glyph-name="Odieresis" unicode="&#xd6;" 
d="M204 429q16 66 38.5 135.5t54 132.5t72.5 115.5t93 84.5q42 26 73 27.5t52.5 -15.5t32.5 -50t12 -76q2 -64 -15.5 -156t-49.5 -196.5t-75.5 -212t-93 -203t-103 -170t-105.5 -112.5q-36 -26 -67.5 -30.5t-55 9.5t-37.5 44t-16 72q-3 53 13 126t43 154t62 164t72 157z
M192 291l4 24t4 25q-6 -13 -20 -45.5t-31.5 -78t-36 -99t-34 -108t-25 -105t-8.5 -90.5t14.5 -64.5t45.5 -26.5t72 28q31 23 70 77t80.5 128.5t82.5 163.5t77 181.5t63.5 183.5t42 169.5t13.5 138.5t-23 91q-14 20 -41 20.5t-69 -25.5q-41 -26 -74.5 -65.5t-61 -87.5
t-49.5 -102t-38 -109q34 60 62 100q10 14 14.5 20.5t8.5 10.5t9 8.5t16 14.5q9 5 15 -4q2 -4 8.5 -8t2.5 -6q-9 -8 -13 -12t-7 -8l-7.5 -10l-13.5 -18q-24 -34 -51 -80.5t-54 -100.5q-9 -36 -15.5 -70t-11.5 -64q-2 -11 -12 -9q-11 2 -9 12zM627 1046q8 -2 9.5 -10t-1.5 -16
t-10.5 -14t-16.5 -4q-7 2 -8 10t2 16.5t10 14.5t15 3zM497 1046q8 -2 9.5 -10t-1.5 -16t-10.5 -14t-16.5 -4q-7 2 -8 10t2 16.5t10 14.5t15 3z" />
    <glyph glyph-name="multiply" unicode="&#xd7;" horiz-adv-x="361" 
d="M342 465q-34 -37 -69 -73l-70 -72q4 -47 8 -93t9 -97q1 -5 -4 -8.5t-10 -3.5q-5 -1 -10 1.5t-6 7.5q-3 44 -6 85t-7 82q-31 -31 -61.5 -62.5t-60.5 -63.5q-3 -3 -9.5 -2t-9.5 4q-4 3 -6 8.5t1 8.5q35 38 71 74t71 72q-4 43 -7.5 87t-6.5 93q-1 5 4 8.5t10 4.5q5 0 10 -2
t6 -7q2 -43 5 -81.5t6 -75.5l118 123q3 4 9 3t10 -3q3 -3 5.5 -8.5t-0.5 -9.5z" />
    <glyph glyph-name="Oslash" unicode="&#xd8;" 
d="M204 429q16 66 38.5 135.5t54 132.5t72.5 115.5t93 84.5q42 26 73 27.5t52.5 -15.5t32.5 -50t12 -76q2 -64 -15.5 -156t-49.5 -196.5t-75.5 -212t-93 -203t-103 -170t-105.5 -112.5q-36 -26 -67.5 -30.5t-55 9.5t-37.5 44t-16 72q-3 53 13 126t43 154t62 164t72 157z
M192 291l4 24t4 25q-6 -13 -20 -45.5t-31.5 -78t-36 -99t-34 -108t-25 -105t-8.5 -90.5t14.5 -64.5t45.5 -26.5t72 28q31 23 70 77t80.5 128.5t82.5 163.5t77 181.5t63.5 183.5t42 169.5t13.5 138.5t-23 91q-14 20 -41 20.5t-69 -25.5q-41 -26 -74.5 -65.5t-61 -87.5
t-49.5 -102t-38 -109q34 60 62 100q10 14 14.5 20.5t8.5 10.5t9 8.5t16 14.5q9 5 15 -4q2 -4 8.5 -8t2.5 -6q-9 -8 -13 -12t-7 -8l-7.5 -10l-13.5 -18q-24 -34 -51 -80.5t-54 -100.5q-9 -36 -15.5 -70t-11.5 -64q-2 -11 -12 -9q-11 2 -9 12zM645.639 984.161
q-14.7344 -43.8223 -35.4971 -93.2793q-20.7637 -49.457 -42.8652 -99.54q-22.1025 -50.083 -44.875 -98.9141t-42.8652 -92.6533q-96.4463 -215.357 -194.233 -429.462q-97.7861 -214.105 -199.591 -426.958l-44.2051 -88.8975q-2.67871 -6.25977 -11.3857 -7.51172
t-14.0654 1.25195q-6.69727 2.50391 -10.7158 7.51172q-4.01855 5.00879 -1.33984 11.2695l16.0742 32.5537q104.484 206.593 202.271 425.079q97.7861 218.487 194.233 431.34q22.7715 50.083 48.2227 105.175q25.4521 55.0908 50.9033 110.809t48.2227 110.183
q22.7725 54.4648 41.5264 105.801q1.33887 6.25977 8.03711 9.38965q6.69727 3.13086 13.3955 1.87891q6.69727 0 13.3955 -4.38281q6.69727 -4.38184 5.35742 -10.6426z" />
    <glyph glyph-name="Ugrave" unicode="&#xd9;" horiz-adv-x="697" 
d="M61 533q21 32 49.5 73t63 75t74.5 52.5t84 6.5q36 -11 47.5 -44t5 -82t-28.5 -111.5t-51.5 -130.5t-64.5 -139.5t-68 -139.5t-60.5 -129t-44 -109t-17.5 -79t20 -39q25 -10 60 12.5t75.5 67.5t84.5 107t87.5 131.5t85 141.5t76.5 136q35 80 68.5 158.5t66.5 156.5
q4 9 14.5 32.5t23.5 54t27.5 63.5t27.5 61t23 46t14 19q16 4 17.5 -13t-5 -45.5t-19 -64t-26 -68t-24 -57l-13.5 -31.5q-6 -14 -20.5 -43.5t-35.5 -70.5t-47.5 -92t-56.5 -107q-5 -13 -22.5 -56t-42.5 -104t-54.5 -135t-59 -150t-57.5 -148.5t-49 -129.5t-32.5 -94t-9.5 -42
q3 -3 2 -7.5t-5 -7.5t-8.5 -3t-6.5 4q-7 12 -1.5 44.5t16.5 69.5t23.5 71.5t18.5 51.5q42 117 88.5 235.5t95.5 237.5q-39 -67 -79 -131.5t-80.5 -120.5t-79 -100.5t-73 -71.5t-64.5 -33t-52 15q-17 17 -16 52.5t13.5 81.5t32.5 97.5t42 99.5t41.5 88.5t30.5 64.5
q10 21 32 64.5t46.5 97t47.5 111.5t34.5 107.5t7.5 84.5t-32 43q-38 11 -74 -7.5t-67.5 -51t-58 -71t-45.5 -66.5q-5 -9 -13 -5q-11 5 -3 15zM777 829q-17 -45 -42.5 -101t-47.5 -105q11 23 23.5 49.5t24.5 53.5t22.5 53.5t19.5 49.5zM357 1095q1 0 5.5 2t10 5t10 5t5.5 2
q-5 -6 -3.5 -23t5.5 -35.5t7.5 -33.5t3.5 -16q-2 -3 -11.5 8t-18.5 27.5t-14 33t0 25.5z" />
    <glyph glyph-name="Uacute" unicode="&#xda;" horiz-adv-x="697" 
d="M61 533q21 32 49.5 73t63 75t74.5 52.5t84 6.5q36 -11 47.5 -44t5 -82t-28.5 -111.5t-51.5 -130.5t-64.5 -139.5t-68 -139.5t-60.5 -129t-44 -109t-17.5 -79t20 -39q25 -10 60 12.5t75.5 67.5t84.5 107t87.5 131.5t85 141.5t76.5 136q35 80 68.5 158.5t66.5 156.5
q4 9 14.5 32.5t23.5 54t27.5 63.5t27.5 61t23 46t14 19q16 4 17.5 -13t-5 -45.5t-19 -64t-26 -68t-24 -57l-13.5 -31.5q-6 -14 -20.5 -43.5t-35.5 -70.5t-47.5 -92t-56.5 -107q-5 -13 -22.5 -56t-42.5 -104t-54.5 -135t-59 -150t-57.5 -148.5t-49 -129.5t-32.5 -94t-9.5 -42
q3 -3 2 -7.5t-5 -7.5t-8.5 -3t-6.5 4q-7 12 -1.5 44.5t16.5 69.5t23.5 71.5t18.5 51.5q42 117 88.5 235.5t95.5 237.5q-39 -67 -79 -131.5t-80.5 -120.5t-79 -100.5t-73 -71.5t-64.5 -33t-52 15q-17 17 -16 52.5t13.5 81.5t32.5 97.5t42 99.5t41.5 88.5t30.5 64.5
q10 21 32 64.5t46.5 97t47.5 111.5t34.5 107.5t7.5 84.5t-32 43q-38 11 -74 -7.5t-67.5 -51t-58 -71t-45.5 -66.5q-5 -9 -13 -5q-11 5 -3 15zM777 829q-17 -45 -42.5 -101t-47.5 -105q11 23 23.5 49.5t24.5 53.5t22.5 53.5t19.5 49.5zM603 1091q5 -9 -0.5 -25.5t-14.5 -33
t-18 -27.5t-11 -8q0 1 3.5 16t7.5 33.5t5.5 35.5t-3.5 23q1 0 5.5 -2t10 -5t10 -5t5.5 -2z" />
    <glyph glyph-name="Ucircumflex" unicode="&#xdb;" horiz-adv-x="697" 
d="M61 533q21 32 49.5 73t63 75t74.5 52.5t84 6.5q36 -11 47.5 -44t5 -82t-28.5 -111.5t-51.5 -130.5t-64.5 -139.5t-68 -139.5t-60.5 -129t-44 -109t-17.5 -79t20 -39q25 -10 60 12.5t75.5 67.5t84.5 107t87.5 131.5t85 141.5t76.5 136q35 80 68.5 158.5t66.5 156.5
q4 9 14.5 32.5t23.5 54t27.5 63.5t27.5 61t23 46t14 19q16 4 17.5 -13t-5 -45.5t-19 -64t-26 -68t-24 -57l-13.5 -31.5q-6 -14 -20.5 -43.5t-35.5 -70.5t-47.5 -92t-56.5 -107q-5 -13 -22.5 -56t-42.5 -104t-54.5 -135t-59 -150t-57.5 -148.5t-49 -129.5t-32.5 -94t-9.5 -42
q3 -3 2 -7.5t-5 -7.5t-8.5 -3t-6.5 4q-7 12 -1.5 44.5t16.5 69.5t23.5 71.5t18.5 51.5q42 117 88.5 235.5t95.5 237.5q-39 -67 -79 -131.5t-80.5 -120.5t-79 -100.5t-73 -71.5t-64.5 -33t-52 15q-17 17 -16 52.5t13.5 81.5t32.5 97.5t42 99.5t41.5 88.5t30.5 64.5
q10 21 32 64.5t46.5 97t47.5 111.5t34.5 107.5t7.5 84.5t-32 43q-38 11 -74 -7.5t-67.5 -51t-58 -71t-45.5 -66.5q-5 -9 -13 -5q-11 5 -3 15zM777 829q-17 -45 -42.5 -101t-47.5 -105q11 23 23.5 49.5t24.5 53.5t22.5 53.5t19.5 49.5zM498 1126q12 -1 23 -16.5t18.5 -34.5
t11 -34t-0.5 -14q-1 0 -7 11t-14.5 23.5t-18 23t-16.5 10.5t-18 -15t-22.5 -33t-21 -33t-14.5 -15q-3 1 5 21t21.5 44t28.5 43.5t25 18.5z" />
    <glyph glyph-name="Udieresis" unicode="&#xdc;" horiz-adv-x="697" 
d="M61 533q21 32 49.5 73t63 75t74.5 52.5t84 6.5q36 -11 47.5 -44t5 -82t-28.5 -111.5t-51.5 -130.5t-64.5 -139.5t-68 -139.5t-60.5 -129t-44 -109t-17.5 -79t20 -39q25 -10 60 12.5t75.5 67.5t84.5 107t87.5 131.5t85 141.5t76.5 136q35 80 68.5 158.5t66.5 156.5
q4 9 14.5 32.5t23.5 54t27.5 63.5t27.5 61t23 46t14 19q16 4 17.5 -13t-5 -45.5t-19 -64t-26 -68t-24 -57l-13.5 -31.5q-6 -14 -20.5 -43.5t-35.5 -70.5t-47.5 -92t-56.5 -107q-5 -13 -22.5 -56t-42.5 -104t-54.5 -135t-59 -150t-57.5 -148.5t-49 -129.5t-32.5 -94t-9.5 -42
q3 -3 2 -7.5t-5 -7.5t-8.5 -3t-6.5 4q-7 12 -1.5 44.5t16.5 69.5t23.5 71.5t18.5 51.5q42 117 88.5 235.5t95.5 237.5q-39 -67 -79 -131.5t-80.5 -120.5t-79 -100.5t-73 -71.5t-64.5 -33t-52 15q-17 17 -16 52.5t13.5 81.5t32.5 97.5t42 99.5t41.5 88.5t30.5 64.5
q10 21 32 64.5t46.5 97t47.5 111.5t34.5 107.5t7.5 84.5t-32 43q-38 11 -74 -7.5t-67.5 -51t-58 -71t-45.5 -66.5q-5 -9 -13 -5q-11 5 -3 15zM777 829q-17 -45 -42.5 -101t-47.5 -105q11 23 23.5 49.5t24.5 53.5t22.5 53.5t19.5 49.5zM584 1051q8 -2 9.5 -10t-1.5 -16
t-10.5 -14t-16.5 -4q-7 2 -8 10t2 16.5t10 14.5t15 3zM454 1051q8 -2 9.5 -10t-1.5 -16t-10.5 -14t-16.5 -4q-7 2 -8 10t2 16.5t10 14.5t15 3z" />
    <glyph glyph-name="Yacute" unicode="&#xdd;" horiz-adv-x="716" 
d="M25 537q20 33 48.5 74t63 74.5t74.5 52t83 6.5q36 -10 48 -43t5.5 -82.5t-28 -111.5t-50.5 -130.5t-63 -140t-66.5 -139t-60 -129t-43 -109t-16 -79t20.5 -39.5q28 -11 66.5 16.5t83 80.5t92.5 125.5t95 151.5t90 159.5t78 148.5q8 19 14 34.5t10 26.5q5 13 19 49.5
t32.5 85t39.5 101t41 98t36 76t25 34.5q21 10 24 -7.5t-5.5 -52t-27 -82t-40.5 -98.5t-45.5 -101.5t-43.5 -90.5l-32.5 -65t-13.5 -26l-59 -152q-14 -34 -39.5 -96t-60.5 -140.5t-78 -166.5t-91 -173t-100 -161.5t-105 -131.5t-106.5 -82.5t-103.5 -14.5q-12 4 -18.5 6.5
t-19.5 8.5q-2 2 -3 6t1 8q7 10 16 5q10 -5 15.5 -7.5t16.5 -5.5q51 -12 107.5 28t115 114t116 174t111 209t101 218t84.5 201q-41 -74 -84 -148t-86.5 -139.5t-86 -119t-80.5 -86.5t-71 -42t-57 14q-17 17 -16 52.5t13 81.5t31.5 97.5t40.5 99.5t40.5 88.5t30.5 64.5
q10 21 31.5 64.5t45.5 97.5t46.5 111.5t33.5 107t7 84.5t-33 43q-38 11 -73.5 -7.5t-67 -51t-57.5 -70.5t-44 -66q-7 -10 -16 -5q-3 2 -3.5 6t1.5 8zM646 623q9 21 24 54t31 70t30 72t22 60q-9 -18 -21 -45.5t-26 -61t-29 -71.5t-31 -78zM478 1096q5 -9 -0.5 -25.5
t-14.5 -33t-18 -27.5t-11 -8q0 1 3.5 16t7.5 33.5t5.5 35.5t-3.5 23q1 0 5.5 -2t10 -5t10 -5t5.5 -2z" />
    <glyph glyph-name="germandbls" unicode="&#xdf;" horiz-adv-x="669" 
d="M-156 -368q7 41 28 104.5t49.5 138.5t62 155t66 154.5t61.5 137.5t49 103q9 18 24.5 50t37 72t46.5 85t53 89t57.5 83t58 67t56 42t51.5 7q46 -12 73 -46.5t34.5 -78t-5.5 -89.5t-46 -82q-26 -27 -56.5 -45.5t-64.5 -30.5t-70 -18.5t-72 -10.5q67 -32 104.5 -83.5
t45.5 -134.5q4 -40 -1.5 -86.5t-20 -94.5t-36.5 -94t-51 -85t-64.5 -67.5t-75.5 -41.5q-49 -16 -85.5 -5t-60 39.5t-33.5 70.5t-6 87q5 53 20 101.5t35 96.5q4 10 14 5q10 -4 5 -14q-9 -23 -20 -54t-19.5 -65.5t-13 -70.5t-0.5 -68t19 -57.5t44 -39.5q37 -18 77 -5.5
t78 46.5t71 84.5t55.5 109t32 120.5t0 117.5t-40.5 101.5t-89 72q-15 4 -26 8q-9 4 -14 9t3 13l10 2q16 2 48 5t70 13.5t77.5 30t72.5 54.5q29 31 44 71.5t13 79t-21.5 68.5t-58.5 41q-24 6 -56.5 -21.5t-71.5 -80.5t-82 -126.5t-87.5 -158.5t-88.5 -177.5t-84.5 -183.5
t-76 -175.5t-62 -154.5t-43.5 -120t-21 -71q-2 -10 -12 -10q-5 1 -8 4t-2 8z" />
    <glyph glyph-name="agrave" unicode="&#xe0;" horiz-adv-x="303" 
d="M90 300q13 29 18 42t7 15q8 3 14.5 0t10.5 -10t5 -16.5t-1 -17.5q-3 -3 -14.5 -30.5t-24.5 -65t-22.5 -77t-9.5 -67t14.5 -35.5t50.5 19q21 16 42.5 40t41.5 51t37.5 54t30.5 50q2 4 6.5 5t8.5 -1t5 -6.5t-1 -8.5q-13 -23 -37 -60t-53 -73t-61 -63t-60 -29
q-24 -2 -35.5 12t-14.5 37.5t1.5 54.5t12.5 64q-17 -32 -32.5 -55t-29.5 -24q-22 -1 -31 17.5t-8 45.5t11.5 56.5t27.5 52t39.5 32t47.5 -4.5zM73 287q-9 6 -20.5 -3.5t-22.5 -26.5t-20.5 -39t-15 -41.5t-5 -33.5t8.5 -16q7 3 17.5 19.5t22.5 39.5t23.5 49.5t21.5 49.5
q-6 -2 -10 2zM107 496q1 0 5.5 2t10 5t10 5t5.5 2q-5 -6 -3.5 -23t5.5 -35.5t7.5 -33.5t3.5 -16q-2 -3 -11.5 8t-18.5 27.5t-14 33t0 25.5z" />
    <glyph glyph-name="aacute" unicode="&#xe1;" horiz-adv-x="303" 
d="M90 300q13 29 18 42t7 15q8 3 14.5 0t10.5 -10t5 -16.5t-1 -17.5q-3 -3 -14.5 -30.5t-24.5 -65t-22.5 -77t-9.5 -67t14.5 -35.5t50.5 19q21 16 42.5 40t41.5 51t37.5 54t30.5 50q2 4 6.5 5t8.5 -1t5 -6.5t-1 -8.5q-13 -23 -37 -60t-53 -73t-61 -63t-60 -29
q-24 -2 -35.5 12t-14.5 37.5t1.5 54.5t12.5 64q-17 -32 -32.5 -55t-29.5 -24q-22 -1 -31 17.5t-8 45.5t11.5 56.5t27.5 52t39.5 32t47.5 -4.5zM73 287q-9 6 -20.5 -3.5t-22.5 -26.5t-20.5 -39t-15 -41.5t-5 -33.5t8.5 -16q7 3 17.5 19.5t22.5 39.5t23.5 49.5t21.5 49.5
q-6 -2 -10 2zM167 496q5 -9 -0.5 -25.5t-14.5 -33t-18 -27.5t-11 -8q0 1 3.5 16t7.5 33.5t5.5 35.5t-3.5 23q1 0 5.5 -2t10 -5t10 -5t5.5 -2z" />
    <glyph glyph-name="acircumflex" unicode="&#xe2;" horiz-adv-x="303" 
d="M90 300q13 29 18 42t7 15q8 3 14.5 0t10.5 -10t5 -16.5t-1 -17.5q-3 -3 -14.5 -30.5t-24.5 -65t-22.5 -77t-9.5 -67t14.5 -35.5t50.5 19q21 16 42.5 40t41.5 51t37.5 54t30.5 50q2 4 6.5 5t8.5 -1t5 -6.5t-1 -8.5q-13 -23 -37 -60t-53 -73t-61 -63t-60 -29
q-24 -2 -35.5 12t-14.5 37.5t1.5 54.5t12.5 64q-17 -32 -32.5 -55t-29.5 -24q-22 -1 -31 17.5t-8 45.5t11.5 56.5t27.5 52t39.5 32t47.5 -4.5zM73 287q-9 6 -20.5 -3.5t-22.5 -26.5t-20.5 -39t-15 -41.5t-5 -33.5t8.5 -16q7 3 17.5 19.5t22.5 39.5t23.5 49.5t21.5 49.5
q-6 -2 -10 2zM141 519q12 -1 23 -16.5t18.5 -34.5t11 -34t-0.5 -14q-1 0 -7 11t-14.5 23.5t-18 23t-16.5 10.5t-18 -15t-22.5 -33t-21 -33t-14.5 -15q-3 1 5 21t21.5 44t28.5 43.5t25 18.5z" />
    <glyph glyph-name="atilde" unicode="&#xe3;" horiz-adv-x="303" 
d="M90 300q13 29 18 42t7 15q8 3 14.5 0t10.5 -10t5 -16.5t-1 -17.5q-3 -3 -14.5 -30.5t-24.5 -65t-22.5 -77t-9.5 -67t14.5 -35.5t50.5 19q21 16 42.5 40t41.5 51t37.5 54t30.5 50q2 4 6.5 5t8.5 -1t5 -6.5t-1 -8.5q-13 -23 -37 -60t-53 -73t-61 -63t-60 -29
q-24 -2 -35.5 12t-14.5 37.5t1.5 54.5t12.5 64q-17 -32 -32.5 -55t-29.5 -24q-22 -1 -31 17.5t-8 45.5t11.5 56.5t27.5 52t39.5 32t47.5 -4.5zM73 287q-9 6 -20.5 -3.5t-22.5 -26.5t-20.5 -39t-15 -41.5t-5 -33.5t8.5 -16q7 3 17.5 19.5t22.5 39.5t23.5 49.5t21.5 49.5
q-6 -2 -10 2zM51 417q-8 -7 -14.5 -2t-1.5 13q28 25 49 30t38 -1t31 -16.5t28 -16.5t29 -1t34 30q8 7 15 0.5t-1 -14.5q-24 -26 -42 -32.5t-34 -2.5t-30 13.5t-29.5 15.5t-32.5 4t-39 -20z" />
    <glyph glyph-name="adieresis" unicode="&#xe4;" horiz-adv-x="303" 
d="M90 300q13 29 18 42t7 15q8 3 14.5 0t10.5 -10t5 -16.5t-1 -17.5q-3 -3 -14.5 -30.5t-24.5 -65t-22.5 -77t-9.5 -67t14.5 -35.5t50.5 19q21 16 42.5 40t41.5 51t37.5 54t30.5 50q2 4 6.5 5t8.5 -1t5 -6.5t-1 -8.5q-13 -23 -37 -60t-53 -73t-61 -63t-60 -29
q-24 -2 -35.5 12t-14.5 37.5t1.5 54.5t12.5 64q-17 -32 -32.5 -55t-29.5 -24q-22 -1 -31 17.5t-8 45.5t11.5 56.5t27.5 52t39.5 32t47.5 -4.5zM73 287q-9 6 -20.5 -3.5t-22.5 -26.5t-20.5 -39t-15 -41.5t-5 -33.5t8.5 -16q7 3 17.5 19.5t22.5 39.5t23.5 49.5t21.5 49.5
q-6 -2 -10 2zM180 444q8 -2 9.5 -10t-1.5 -16t-10.5 -14t-16.5 -4q-7 2 -8 10t2 16.5t10 14.5t15 3zM50 444q8 -2 9.5 -10t-1.5 -16t-10.5 -14t-16.5 -4q-7 2 -8 10t2 16.5t10 14.5t15 3z" />
    <glyph glyph-name="aring" unicode="&#xe5;" horiz-adv-x="303" 
d="M90 300q13 29 18 42t7 15q8 3 14.5 0t10.5 -10t5 -16.5t-1 -17.5q-3 -3 -14.5 -30.5t-24.5 -65t-22.5 -77t-9.5 -67t14.5 -35.5t50.5 19q21 16 42.5 40t41.5 51t37.5 54t30.5 50q2 4 6.5 5t8.5 -1t5 -6.5t-1 -8.5q-13 -23 -37 -60t-53 -73t-61 -63t-60 -29
q-24 -2 -35.5 12t-14.5 37.5t1.5 54.5t12.5 64q-17 -32 -32.5 -55t-29.5 -24q-22 -1 -31 17.5t-8 45.5t11.5 56.5t27.5 52t39.5 32t47.5 -4.5zM73 287q-9 6 -20.5 -3.5t-22.5 -26.5t-20.5 -39t-15 -41.5t-5 -33.5t8.5 -16q7 3 17.5 19.5t22.5 39.5t23.5 49.5t21.5 49.5
q-6 -2 -10 2zM147 525q24 -7 28.5 -29.5t-5 -45.5t-30 -39.5t-46.5 -10.5q-14 3 -19.5 14.5t-5 27t6.5 32.5t16.5 30t24.5 19.5t30 1.5zM139 506q-17 5 -30 -7t-19.5 -28.5t-4.5 -32.5t16 -19q18 -4 32.5 7t21.5 27.5t3.5 32t-19.5 20.5z" />
    <glyph glyph-name="ae" unicode="&#xe6;" horiz-adv-x="511" 
d="M90 300q13 29 18 42t7 15q8 3 14.5 0t10.5 -10t5 -16.5t-1 -17.5q-3 -3 -14.5 -30.5t-24.5 -65t-22.5 -77t-9.5 -67t14.5 -35.5t50.5 19q21 16 42.5 40t41.5 51t37.5 54t30.5 50q2 4 6.5 5t8.5 -1t5 -6.5t-1 -8.5q-13 -23 -37 -60t-53 -73t-61 -63t-60 -29
q-24 -2 -35.5 12t-14.5 37.5t1.5 54.5t12.5 64q-17 -32 -32.5 -55t-29.5 -24q-22 -1 -31 17.5t-8 45.5t11.5 56.5t27.5 52t39.5 32t47.5 -4.5zM73 287q-9 6 -20.5 -3.5t-22.5 -26.5t-20.5 -39t-15 -41.5t-5 -33.5t8.5 -16q7 3 17.5 19.5t22.5 39.5t23.5 49.5t21.5 49.5
q-6 -2 -10 2zM272 115q0 -29 6 -49.5t25 -22.5q10 -1 24.5 6t33.5 23.5t41.5 43.5t48.5 67q11 17 22.5 34.5t22.5 34.5q2 4 6.5 5t8.5 -2q4 -2 5 -6t-2 -8q-17 -28 -34.5 -55.5t-37.5 -53.5q-43 -60 -77 -86t-69 -25q-26 1 -40 23t-16.5 54.5t7 71t30.5 72.5q8 13 20.5 20
t24 7t20.5 -6t11 -17q3 -18 -5 -36.5t-20.5 -36t-27.5 -32.5t-26 -25q-1 -1 -2 -1zM274 145q9 9 19.5 21t20 25.5t15 26t3.5 23.5q-1 5 -4.5 4.5t-7.5 -3.5t-8 -7t-5 -6q-12 -17 -21 -39t-12 -45z" />
    <glyph glyph-name="ccedilla" unicode="&#xe7;" horiz-adv-x="230" 
d="M71 282q2 28 -2 36.5t-10 3.5q-10 -9 -23 -35t-24 -59.5t-18 -69t-6.5 -63t11.5 -43.5t36 -9q24 6 50.5 31.5t51 58t45.5 65.5t34 53q2 4 6.5 5t8.5 -1q8 -6 3 -15q-14 -23 -37 -59t-50.5 -71t-57.5 -61t-58 -29q-36 -3 -53.5 17.5t-21.5 54t4 74t22 77t32.5 64
t36.5 35.5q15 7 24 1t13 -17t4.5 -24.5t-0.5 -22.5q0 -5 -3.5 -7.5t-8.5 -1.5q-4 0 -7 3.5t-2 8.5zM0 27q2 11 11.5 10t9.5 -12q0 -9 -2.5 -17t-0.5 -17q37 3 55.5 -11.5t22 -36t-5 -44t-26 -34t-41.5 -7t-50 37.5q-1 5 1.5 8.5t6 4t7 -1.5t5.5 -7q21 -18 36.5 -17.5
t24.5 11.5t12 28t-1 31.5t-14 21.5t-27 -1q-12 -6 -17 -2t-6.5 13t-1 21t0.5 21z" />
    <glyph glyph-name="egrave" unicode="&#xe8;" horiz-adv-x="208" 
d="M-31 115q0 -29 6 -49.5t25 -22.5q10 -1 24.5 6t33.5 23.5t41.5 43.5t48.5 67q11 17 22.5 34.5t22.5 34.5q2 4 6.5 5t8.5 -2q4 -2 5 -6t-2 -8q-17 -28 -34.5 -55.5t-37.5 -53.5q-43 -60 -77 -86t-69 -25q-26 1 -40 23t-16.5 54.5t7 71t30.5 72.5q8 13 20.5 20t24 7
t20.5 -6t11 -17q3 -18 -5 -36.5t-20.5 -36t-27.5 -32.5t-26 -25q-1 -1 -2 -1zM-29 145q9 9 19.5 21t20 25.5t15 26t3.5 23.5q-1 5 -4.5 4.5t-7.5 -3.5t-8 -7t-5 -6q-12 -17 -21 -39t-12 -45zM88 496q1 0 5.5 2t10 5t10 5t5.5 2q-5 -6 -3.5 -23t5.5 -35.5t7.5 -33.5t3.5 -16
q-2 -3 -11.5 8t-18.5 27.5t-14 33t0 25.5z" />
    <glyph glyph-name="eacute" unicode="&#xe9;" horiz-adv-x="208" 
d="M-31 115q0 -29 6 -49.5t25 -22.5q10 -1 24.5 6t33.5 23.5t41.5 43.5t48.5 67q11 17 22.5 34.5t22.5 34.5q2 4 6.5 5t8.5 -2q4 -2 5 -6t-2 -8q-17 -28 -34.5 -55.5t-37.5 -53.5q-43 -60 -77 -86t-69 -25q-26 1 -40 23t-16.5 54.5t7 71t30.5 72.5q8 13 20.5 20t24 7
t20.5 -6t11 -17q3 -18 -5 -36.5t-20.5 -36t-27.5 -32.5t-26 -25q-1 -1 -2 -1zM-29 145q9 9 19.5 21t20 25.5t15 26t3.5 23.5q-1 5 -4.5 4.5t-7.5 -3.5t-8 -7t-5 -6q-12 -17 -21 -39t-12 -45zM119 496q5 -9 -0.5 -25.5t-14.5 -33t-18 -27.5t-11 -8q0 1 3.5 16t7.5 33.5
t5.5 35.5t-3.5 23q1 0 5.5 -2t10 -5t10 -5t5.5 -2z" />
    <glyph glyph-name="ecircumflex" unicode="&#xea;" horiz-adv-x="208" 
d="M-31 115q0 -29 6 -49.5t25 -22.5q10 -1 24.5 6t33.5 23.5t41.5 43.5t48.5 67q11 17 22.5 34.5t22.5 34.5q2 4 6.5 5t8.5 -2q4 -2 5 -6t-2 -8q-17 -28 -34.5 -55.5t-37.5 -53.5q-43 -60 -77 -86t-69 -25q-26 1 -40 23t-16.5 54.5t7 71t30.5 72.5q8 13 20.5 20t24 7
t20.5 -6t11 -17q3 -18 -5 -36.5t-20.5 -36t-27.5 -32.5t-26 -25q-1 -1 -2 -1zM-29 145q9 9 19.5 21t20 25.5t15 26t3.5 23.5q-1 5 -4.5 4.5t-7.5 -3.5t-8 -7t-5 -6q-12 -17 -21 -39t-12 -45zM117 519q12 -1 23 -16.5t18.5 -34.5t11 -34t-0.5 -14q-1 0 -7 11t-14.5 23.5
t-18 23t-16.5 10.5t-18 -15t-22.5 -33t-21 -33t-14.5 -15q-3 1 5 21t21.5 44t28.5 43.5t25 18.5z" />
    <glyph glyph-name="edieresis" unicode="&#xeb;" horiz-adv-x="208" 
d="M-31 115q0 -29 6 -49.5t25 -22.5q10 -1 24.5 6t33.5 23.5t41.5 43.5t48.5 67q11 17 22.5 34.5t22.5 34.5q2 4 6.5 5t8.5 -2q4 -2 5 -6t-2 -8q-17 -28 -34.5 -55.5t-37.5 -53.5q-43 -60 -77 -86t-69 -25q-26 1 -40 23t-16.5 54.5t7 71t30.5 72.5q8 13 20.5 20t24 7
t20.5 -6t11 -17q3 -18 -5 -36.5t-20.5 -36t-27.5 -32.5t-26 -25q-1 -1 -2 -1zM-29 145q9 9 19.5 21t20 25.5t15 26t3.5 23.5q-1 5 -4.5 4.5t-7.5 -3.5t-8 -7t-5 -6q-12 -17 -21 -39t-12 -45zM177 444q8 -2 9.5 -10t-1.5 -16t-10.5 -14t-16.5 -4q-7 2 -8 10t2 16.5t10 14.5
t15 3zM47 444q8 -2 9.5 -10t-1.5 -16t-10.5 -14t-16.5 -4q-7 2 -8 10t2 16.5t10 14.5t15 3z" />
    <glyph glyph-name="igrave" unicode="&#xec;" horiz-adv-x="215" 
d="M26 244q-4 -7 -12.5 -24t-18 -38t-18.5 -44.5t-14.5 -44t-5 -35.5t9.5 -20q5 -3 13 -1.5t16 4.5t15.5 7t12.5 7q27 16 54 43t51 56t42.5 56t29.5 43q7 7 15 3q9 -7 3 -15q-18 -27 -43.5 -62t-55.5 -68t-62.5 -58.5t-63.5 -33.5q-33 -8 -48 3t-18 33.5t3.5 52.5t17 59
t22 53.5t17.5 35.5q1 2 -1.5 6.5t-5.5 9t-5.5 7.5t-0.5 2t10.5 -6.5t18 -11.5t16.5 -11.5t6 -7.5zM92 496q1 0 5.5 2t10 5t10 5t5.5 2q-5 -6 -3.5 -23t5.5 -35.5t7.5 -33.5t3.5 -16q-2 -3 -11.5 8t-18.5 27.5t-14 33t0 25.5z" />
    <glyph glyph-name="iacute" unicode="&#xed;" horiz-adv-x="215" 
d="M26 244q-4 -7 -12.5 -24t-18 -38t-18.5 -44.5t-14.5 -44t-5 -35.5t9.5 -20q5 -3 13 -1.5t16 4.5t15.5 7t12.5 7q27 16 54 43t51 56t42.5 56t29.5 43q7 7 15 3q9 -7 3 -15q-18 -27 -43.5 -62t-55.5 -68t-62.5 -58.5t-63.5 -33.5q-33 -8 -48 3t-18 33.5t3.5 52.5t17 59
t22 53.5t17.5 35.5q1 2 -1.5 6.5t-5.5 9t-5.5 7.5t-0.5 2t10.5 -6.5t18 -11.5t16.5 -11.5t6 -7.5zM123 496q5 -9 -0.5 -25.5t-14.5 -33t-18 -27.5t-11 -8q0 1 3.5 16t7.5 33.5t5.5 35.5t-3.5 23q1 0 5.5 -2t10 -5t10 -5t5.5 -2z" />
    <glyph glyph-name="icircumflex" unicode="&#xee;" horiz-adv-x="215" 
d="M26 244q-4 -7 -12.5 -24t-18 -38t-18.5 -44.5t-14.5 -44t-5 -35.5t9.5 -20q5 -3 13 -1.5t16 4.5t15.5 7t12.5 7q27 16 54 43t51 56t42.5 56t29.5 43q7 7 15 3q9 -7 3 -15q-18 -27 -43.5 -62t-55.5 -68t-62.5 -58.5t-63.5 -33.5q-33 -8 -48 3t-18 33.5t3.5 52.5t17 59
t22 53.5t17.5 35.5q1 2 -1.5 6.5t-5.5 9t-5.5 7.5t-0.5 2t10.5 -6.5t18 -11.5t16.5 -11.5t6 -7.5zM121 519q12 -1 23 -16.5t18.5 -34.5t11 -34t-0.5 -14q-1 0 -7 11t-14.5 23.5t-18 23t-16.5 10.5t-18 -15t-22.5 -33t-21 -33t-14.5 -15q-3 1 5 21t21.5 44t28.5 43.5t25 18.5
z" />
    <glyph glyph-name="idieresis" unicode="&#xef;" horiz-adv-x="215" 
d="M26 244q-4 -7 -12.5 -24t-18 -38t-18.5 -44.5t-14.5 -44t-5 -35.5t9.5 -20q5 -3 13 -1.5t16 4.5t15.5 7t12.5 7q27 16 54 43t51 56t42.5 56t29.5 43q7 7 15 3q9 -7 3 -15q-18 -27 -43.5 -62t-55.5 -68t-62.5 -58.5t-63.5 -33.5q-33 -8 -48 3t-18 33.5t3.5 52.5t17 59
t22 53.5t17.5 35.5q1 2 -1.5 6.5t-5.5 9t-5.5 7.5t-0.5 2t10.5 -6.5t18 -11.5t16.5 -11.5t6 -7.5zM180 444q8 -2 9.5 -10t-1.5 -16t-10.5 -14t-16.5 -4q-7 2 -8 10t2 16.5t10 14.5t15 3zM50 444q8 -2 9.5 -10t-1.5 -16t-10.5 -14t-16.5 -4q-7 2 -8 10t2 16.5t10 14.5t15 3z
" />
    <glyph glyph-name="ntilde" unicode="&#xf1;" horiz-adv-x="589" 
d="M27 258q-10 -26 -18.5 -51t-15.5 -51q19 26 38.5 56.5t35.5 52.5q11 15 33.5 45.5t51.5 65.5t62.5 68.5t66.5 55t63 25t53 -22.5q17 -20 9.5 -60.5t-30.5 -93.5t-56 -115t-66.5 -124.5t-63 -122t-44 -108t-10.5 -82t38 -43.5q23 -7 58 22t76 78t83 110t79 119t64.5 104.5
t39.5 66.5q2 4 6.5 5t8.5 -1t5 -6.5t-1 -8.5q-14 -23 -43 -72.5t-67 -109t-81.5 -121t-86 -110.5t-81.5 -77t-67 -19q-47 14 -58 52t1.5 91.5t42.5 118t66.5 130t72.5 129t60 115t30 87t-17 45.5q-24 10 -56.5 -9t-64.5 -49t-58 -61t-37 -44q-4 -5 -13 -17.5t-21.5 -30
t-27.5 -37.5t-30 -41q-35 -48 -77 -108q-8 -5 -19 -2t-12 11q-1 13 5.5 38t14.5 49.5t15 44t8 21.5q2 4 13.5 6t15.5 0q11 -4 6 -14zM221 602q-8 -7 -14.5 -2t-1.5 13q28 25 49 30t38 -1t31 -16.5t28 -16.5t29 -1t34 30q8 7 15 0.5t-1 -14.5q-24 -26 -42 -32.5t-34 -2.5
t-30 13.5t-29.5 15.5t-32.5 4t-39 -20z" />
    <glyph glyph-name="ograve" unicode="&#xf2;" horiz-adv-x="308" 
d="M120 213q22 -14 46.5 -17.5t47.5 2t44 20.5t35 38q5 9 15 4q9 -5 4 -14q-22 -36 -54 -56t-76 -18q-44 3 -72 20q-7 -14 -18.5 -32t-26.5 -32.5t-33 -23t-37 -2.5q-20 6 -27.5 24.5t-6.5 43.5t11 52t25.5 50t36.5 38t44 16q11 19 27 22q18 4 26.5 -7t9.5 -30.5t-5 -45.5
t-16 -52zM66 297q-18 -11 -35 -38t-27 -56t-10.5 -52.5t13.5 -27.5q13 -4 26.5 5t25.5 23.5t21 30t13 24.5q-21 21 -25 44t-2 47zM101 228q8 22 12.5 43t5 35.5t-3.5 20t-12 -3.5q-1 -1 -1 -2q8 -6 2 -13q-2 -4 -6.5 -8.5t-7.5 -3.5q-3 -16 -1.5 -35t12.5 -33zM138 496
q1 0 5.5 2t10 5t10 5t5.5 2q-5 -6 -3.5 -23t5.5 -35.5t7.5 -33.5t3.5 -16q-2 -3 -11.5 8t-18.5 27.5t-14 33t0 25.5z" />
    <glyph glyph-name="oacute" unicode="&#xf3;" horiz-adv-x="308" 
d="M120 213q22 -14 46.5 -17.5t47.5 2t44 20.5t35 38q5 9 15 4q9 -5 4 -14q-22 -36 -54 -56t-76 -18q-44 3 -72 20q-7 -14 -18.5 -32t-26.5 -32.5t-33 -23t-37 -2.5q-20 6 -27.5 24.5t-6.5 43.5t11 52t25.5 50t36.5 38t44 16q11 19 27 22q18 4 26.5 -7t9.5 -30.5t-5 -45.5
t-16 -52zM66 297q-18 -11 -35 -38t-27 -56t-10.5 -52.5t13.5 -27.5q13 -4 26.5 5t25.5 23.5t21 30t13 24.5q-21 21 -25 44t-2 47zM101 228q8 22 12.5 43t5 35.5t-3.5 20t-12 -3.5q-1 -1 -1 -2q8 -6 2 -13q-2 -4 -6.5 -8.5t-7.5 -3.5q-3 -16 -1.5 -35t12.5 -33zM169 496
q5 -9 -0.5 -25.5t-14.5 -33t-18 -27.5t-11 -8q0 1 3.5 16t7.5 33.5t5.5 35.5t-3.5 23q1 0 5.5 -2t10 -5t10 -5t5.5 -2z" />
    <glyph glyph-name="ocircumflex" unicode="&#xf4;" horiz-adv-x="308" 
d="M120 213q22 -14 46.5 -17.5t47.5 2t44 20.5t35 38q5 9 15 4q9 -5 4 -14q-22 -36 -54 -56t-76 -18q-44 3 -72 20q-7 -14 -18.5 -32t-26.5 -32.5t-33 -23t-37 -2.5q-20 6 -27.5 24.5t-6.5 43.5t11 52t25.5 50t36.5 38t44 16q11 19 27 22q18 4 26.5 -7t9.5 -30.5t-5 -45.5
t-16 -52zM66 297q-18 -11 -35 -38t-27 -56t-10.5 -52.5t13.5 -27.5q13 -4 26.5 5t25.5 23.5t21 30t13 24.5q-21 21 -25 44t-2 47zM101 228q8 22 12.5 43t5 35.5t-3.5 20t-12 -3.5q-1 -1 -1 -2q8 -6 2 -13q-2 -4 -6.5 -8.5t-7.5 -3.5q-3 -16 -1.5 -35t12.5 -33zM167 519
q12 -1 23 -16.5t18.5 -34.5t11 -34t-0.5 -14q-1 0 -7 11t-14.5 23.5t-18 23t-16.5 10.5t-18 -15t-22.5 -33t-21 -33t-14.5 -15q-3 1 5 21t21.5 44t28.5 43.5t25 18.5z" />
    <glyph glyph-name="otilde" unicode="&#xf5;" horiz-adv-x="308" 
d="M120 213q22 -14 46.5 -17.5t47.5 2t44 20.5t35 38q5 9 15 4q9 -5 4 -14q-22 -36 -54 -56t-76 -18q-44 3 -72 20q-7 -14 -18.5 -32t-26.5 -32.5t-33 -23t-37 -2.5q-20 6 -27.5 24.5t-6.5 43.5t11 52t25.5 50t36.5 38t44 16q11 19 27 22q18 4 26.5 -7t9.5 -30.5t-5 -45.5
t-16 -52zM66 297q-18 -11 -35 -38t-27 -56t-10.5 -52.5t13.5 -27.5q13 -4 26.5 5t25.5 23.5t21 30t13 24.5q-21 21 -25 44t-2 47zM101 228q8 22 12.5 43t5 35.5t-3.5 20t-12 -3.5q-1 -1 -1 -2q8 -6 2 -13q-2 -4 -6.5 -8.5t-7.5 -3.5q-3 -16 -1.5 -35t12.5 -33zM57 417
q-8 -7 -14.5 -2t-1.5 13q28 25 49 30t38 -1t31 -16.5t28 -16.5t29 -1t34 30q8 7 15 0.5t-1 -14.5q-24 -26 -42 -32.5t-34 -2.5t-30 13.5t-29.5 15.5t-32.5 4t-39 -20z" />
    <glyph glyph-name="odieresis" unicode="&#xf6;" horiz-adv-x="308" 
d="M120 213q22 -14 46.5 -17.5t47.5 2t44 20.5t35 38q5 9 15 4q9 -5 4 -14q-22 -36 -54 -56t-76 -18q-44 3 -72 20q-7 -14 -18.5 -32t-26.5 -32.5t-33 -23t-37 -2.5q-20 6 -27.5 24.5t-6.5 43.5t11 52t25.5 50t36.5 38t44 16q11 19 27 22q18 4 26.5 -7t9.5 -30.5t-5 -45.5
t-16 -52zM66 297q-18 -11 -35 -38t-27 -56t-10.5 -52.5t13.5 -27.5q13 -4 26.5 5t25.5 23.5t21 30t13 24.5q-21 21 -25 44t-2 47zM101 228q8 22 12.5 43t5 35.5t-3.5 20t-12 -3.5q-1 -1 -1 -2q8 -6 2 -13q-2 -4 -6.5 -8.5t-7.5 -3.5q-3 -16 -1.5 -35t12.5 -33zM227 444
q8 -2 9.5 -10t-1.5 -16t-10.5 -14t-16.5 -4q-7 2 -8 10t2 16.5t10 14.5t15 3zM97 444q8 -2 9.5 -10t-1.5 -16t-10.5 -14t-16.5 -4q-7 2 -8 10t2 16.5t10 14.5t15 3z" />
    <glyph glyph-name="divide" unicode="&#xf7;" horiz-adv-x="463" 
d="M166 145q2 4 5 10.5t7 12.5t9.5 9t12.5 0q6 -3 6 -12t-2 -19t-5.5 -18t-4.5 -11q-2 -5 -7.5 -3t-11 7t-8.5 12t-1 12zM269 447q2 4 5 10.5t7 12.5t9.5 9t12.5 0q6 -3 6 -12t-2 -19t-5.5 -18t-4.5 -11q-2 -5 -7.5 -3t-11 7t-8.5 12t-1 12zM438 299q-42 -2 -96 -2.5
t-110.5 -1t-110.5 -1t-96 -1.5q-5 -1 -8 4t-3 10q-1 5 2 10.5t8 5.5q42 1 96 1.5t110.5 1t110.5 1t96 2.5q5 1 8 -4t3 -10q1 -5 -2 -10t-8 -6z" />
    <glyph glyph-name="oslash" unicode="&#xf8;" horiz-adv-x="308" 
d="M120 213q22 -14 46.5 -17.5t47.5 2t44 20.5t35 38q5 9 15 4q9 -5 4 -14q-22 -36 -54 -56t-76 -18q-44 3 -72 20q-7 -14 -18.5 -32t-26.5 -32.5t-33 -23t-37 -2.5q-20 6 -27.5 24.5t-6.5 43.5t11 52t25.5 50t36.5 38t44 16q11 19 27 22q18 4 26.5 -7t9.5 -30.5t-5 -45.5
t-16 -52zM66 297q-18 -11 -35 -38t-27 -56t-10.5 -52.5t13.5 -27.5q13 -4 26.5 5t25.5 23.5t21 30t13 24.5q-21 21 -25 44t-2 47zM101 228q8 22 12.5 43t5 35.5t-3.5 20t-12 -3.5q-1 -1 -1 -2q8 -6 2 -13q-2 -4 -6.5 -8.5t-7.5 -3.5q-3 -16 -1.5 -35t12.5 -33z
M161.217 395.981q-4.89648 -11.666 -11.7959 -24.832t-14.2441 -26.498q-7.34473 -13.333 -14.9121 -26.332q-7.56641 -12.999 -14.2441 -24.665q-32.0488 -57.3301 -64.543 -114.326q-32.4951 -56.9971 -66.3242 -113.66l-14.6895 -23.665q-0.890625 -1.66699 -3.78418 -2
q-2.89258 -0.333008 -4.67383 0.333008q-2.22559 0.666992 -3.56055 2q-1.33594 1.33398 -0.445312 3l5.3418 8.66602q34.7197 54.9971 67.2139 113.16q32.4951 58.1631 64.5439 114.826q7.56738 13.332 16.0254 27.998q8.45703 14.666 16.9141 29.498
q8.45801 14.833 16.0254 29.332q7.56641 14.499 13.7988 28.165q0.445312 1.66602 2.6709 2.5q2.22559 0.833008 4.45117 0.5q2.22559 0 4.45117 -1.16699t1.78027 -2.83301z" />
    <glyph glyph-name="ugrave" unicode="&#xf9;" horiz-adv-x="335" 
d="M24 241q-3 -5 -11 -24t-14 -40t-6.5 -37.5t12.5 -16.5q12 0 25 14.5t26.5 36.5t26.5 49t24.5 53t20.5 48t16 33q1 6 7 5t12 -7.5t10 -17t1 -22.5q-1 -1 -12 -27t-24 -63.5t-23.5 -78t-10.5 -69t14 -37.5t51 17q21 15 42.5 38.5t41.5 50.5t37.5 54.5t30.5 50.5q4 9 15 5
q4 -2 5 -6.5t-1 -8.5q-13 -23 -37 -60t-53.5 -73t-61 -63t-59.5 -29q-26 -2 -37.5 13.5t-13 42t4 60t14.5 68.5q-21 -40 -44.5 -69t-46.5 -30q-27 -1 -34.5 21t-4.5 51t12 56.5t14 38.5q3 7 9 4.5t11.5 -8.5t8.5 -13t2 -10zM152 496q1 0 5.5 2t10 5t10 5t5.5 2
q-5 -6 -3.5 -23t5.5 -35.5t7.5 -33.5t3.5 -16q-2 -3 -11.5 8t-18.5 27.5t-14 33t0 25.5z" />
    <glyph glyph-name="uacute" unicode="&#xfa;" horiz-adv-x="335" 
d="M24 241q-3 -5 -11 -24t-14 -40t-6.5 -37.5t12.5 -16.5q12 0 25 14.5t26.5 36.5t26.5 49t24.5 53t20.5 48t16 33q1 6 7 5t12 -7.5t10 -17t1 -22.5q-1 -1 -12 -27t-24 -63.5t-23.5 -78t-10.5 -69t14 -37.5t51 17q21 15 42.5 38.5t41.5 50.5t37.5 54.5t30.5 50.5q4 9 15 5
q4 -2 5 -6.5t-1 -8.5q-13 -23 -37 -60t-53.5 -73t-61 -63t-59.5 -29q-26 -2 -37.5 13.5t-13 42t4 60t14.5 68.5q-21 -40 -44.5 -69t-46.5 -30q-27 -1 -34.5 21t-4.5 51t12 56.5t14 38.5q3 7 9 4.5t11.5 -8.5t8.5 -13t2 -10zM183 496q5 -9 -0.5 -25.5t-14.5 -33t-18 -27.5
t-11 -8q0 1 3.5 16t7.5 33.5t5.5 35.5t-3.5 23q1 0 5.5 -2t10 -5t10 -5t5.5 -2z" />
    <glyph glyph-name="ucircumflex" unicode="&#xfb;" horiz-adv-x="335" 
d="M24 241q-3 -5 -11 -24t-14 -40t-6.5 -37.5t12.5 -16.5q12 0 25 14.5t26.5 36.5t26.5 49t24.5 53t20.5 48t16 33q1 6 7 5t12 -7.5t10 -17t1 -22.5q-1 -1 -12 -27t-24 -63.5t-23.5 -78t-10.5 -69t14 -37.5t51 17q21 15 42.5 38.5t41.5 50.5t37.5 54.5t30.5 50.5q4 9 15 5
q4 -2 5 -6.5t-1 -8.5q-13 -23 -37 -60t-53.5 -73t-61 -63t-59.5 -29q-26 -2 -37.5 13.5t-13 42t4 60t14.5 68.5q-21 -40 -44.5 -69t-46.5 -30q-27 -1 -34.5 21t-4.5 51t12 56.5t14 38.5q3 7 9 4.5t11.5 -8.5t8.5 -13t2 -10zM181 519q12 -1 23 -16.5t18.5 -34.5t11 -34
t-0.5 -14q-1 0 -7 11t-14.5 23.5t-18 23t-16.5 10.5t-18 -15t-22.5 -33t-21 -33t-14.5 -15q-3 1 5 21t21.5 44t28.5 43.5t25 18.5z" />
    <glyph glyph-name="udieresis" unicode="&#xfc;" horiz-adv-x="335" 
d="M24 241q-3 -5 -11 -24t-14 -40t-6.5 -37.5t12.5 -16.5q12 0 25 14.5t26.5 36.5t26.5 49t24.5 53t20.5 48t16 33q1 6 7 5t12 -7.5t10 -17t1 -22.5q-1 -1 -12 -27t-24 -63.5t-23.5 -78t-10.5 -69t14 -37.5t51 17q21 15 42.5 38.5t41.5 50.5t37.5 54.5t30.5 50.5q4 9 15 5
q4 -2 5 -6.5t-1 -8.5q-13 -23 -37 -60t-53.5 -73t-61 -63t-59.5 -29q-26 -2 -37.5 13.5t-13 42t4 60t14.5 68.5q-21 -40 -44.5 -69t-46.5 -30q-27 -1 -34.5 21t-4.5 51t12 56.5t14 38.5q3 7 9 4.5t11.5 -8.5t8.5 -13t2 -10zM240 444q8 -2 9.5 -10t-1.5 -16t-10.5 -14
t-16.5 -4q-7 2 -8 10t2 16.5t10 14.5t15 3zM110 444q8 -2 9.5 -10t-1.5 -16t-10.5 -14t-16.5 -4q-7 2 -8 10t2 16.5t10 14.5t15 3z" />
    <glyph glyph-name="yacute" unicode="&#xfd;" horiz-adv-x="364" 
d="M22 243q-2 -5 -10.5 -25.5t-15 -42.5t-8 -39t9.5 -17q13 0 28.5 17t31.5 43.5t32 58.5t29.5 62t24 54.5t15.5 36.5q2 4 8.5 2.5t12.5 -7.5t9.5 -16t-0.5 -21q-31 -82 -50 -160.5t-40 -159.5q49 25 82.5 46t60.5 45t51.5 55t56.5 78q2 4 6.5 4.5t8.5 -1.5t4.5 -6.5
t-1.5 -8.5q-36 -54 -63 -87.5t-56.5 -57.5t-66 -45t-90.5 -50q-26 -95 -52.5 -187.5t-57.5 -181.5q-4 -12 -15 -39.5t-26 -55t-32.5 -48t-34.5 -18.5q-23 3 -34.5 21.5t-15.5 46.5t-1.5 61t8.5 64.5t12.5 57t11.5 39.5q16 45 35 81.5t43 67.5t55 56.5t71 47.5l59 230
q-14 -27 -28.5 -53.5t-30 -47t-31 -33.5t-30.5 -13q-18 0 -26 10t-9.5 26.5t1.5 36.5t8 38.5t10.5 34.5t8.5 24t8.5 6t10.5 -8t8.5 -13.5t3.5 -8.5zM51 -14q-76 -47 -121 -117.5t-68 -157.5q-2 -8 -6 -27t-7.5 -43t-4.5 -50t1.5 -47.5t10.5 -36t24 -15.5q6 2 15 18.5
t18 36.5t16 38.5t9 24.5q34 91 61 185t52 191zM197 496q5 -9 -0.5 -25.5t-14.5 -33t-18 -27.5t-11 -8q0 1 3.5 16t7.5 33.5t5.5 35.5t-3.5 23q1 0 5.5 -2t10 -5t10 -5t5.5 -2z" />
    <glyph glyph-name="ydieresis" unicode="&#xff;" horiz-adv-x="364" 
d="M22 243q-2 -5 -10.5 -25.5t-15 -42.5t-8 -39t9.5 -17q13 0 28.5 17t31.5 43.5t32 58.5t29.5 62t24 54.5t15.5 36.5q2 4 8.5 2.5t12.5 -7.5t9.5 -16t-0.5 -21q-31 -82 -50 -160.5t-40 -159.5q49 25 82.5 46t60.5 45t51.5 55t56.5 78q2 4 6.5 4.5t8.5 -1.5t4.5 -6.5
t-1.5 -8.5q-36 -54 -63 -87.5t-56.5 -57.5t-66 -45t-90.5 -50q-26 -95 -52.5 -187.5t-57.5 -181.5q-4 -12 -15 -39.5t-26 -55t-32.5 -48t-34.5 -18.5q-23 3 -34.5 21.5t-15.5 46.5t-1.5 61t8.5 64.5t12.5 57t11.5 39.5q16 45 35 81.5t43 67.5t55 56.5t71 47.5l59 230
q-14 -27 -28.5 -53.5t-30 -47t-31 -33.5t-30.5 -13q-18 0 -26 10t-9.5 26.5t1.5 36.5t8 38.5t10.5 34.5t8.5 24t8.5 6t10.5 -8t8.5 -13.5t3.5 -8.5zM51 -14q-76 -47 -121 -117.5t-68 -157.5q-2 -8 -6 -27t-7.5 -43t-4.5 -50t1.5 -47.5t10.5 -36t24 -15.5q6 2 15 18.5
t18 36.5t16 38.5t9 24.5q34 91 61 185t52 191zM255 444q8 -2 9.5 -10t-1.5 -16t-10.5 -14t-16.5 -4q-7 2 -8 10t2 16.5t10 14.5t15 3zM125 444q8 -2 9.5 -10t-1.5 -16t-10.5 -14t-16.5 -4q-7 2 -8 10t2 16.5t10 14.5t15 3z" />
    <glyph glyph-name="dotlessi" unicode="&#x131;" horiz-adv-x="215" 
d="M26 244q-4 -7 -12.5 -24t-18 -38t-18.5 -44.5t-14.5 -44t-5 -35.5t9.5 -20q5 -3 13 -1.5t16 4.5t15.5 7t12.5 7q27 16 54 43t51 56t42.5 56t29.5 43q7 7 15 3q9 -7 3 -15q-18 -27 -43.5 -62t-55.5 -68t-62.5 -58.5t-63.5 -33.5q-33 -8 -48 3t-18 33.5t3.5 52.5t17 59
t22 53.5t17.5 35.5q1 2 -1.5 6.5t-5.5 9t-5.5 7.5t-0.5 2t10.5 -6.5t18 -11.5t16.5 -11.5t6 -7.5z" />
    <glyph glyph-name="Scaron" unicode="&#x160;" horiz-adv-x="680" 
d="M569 497q27 32 50 69t37 76.5t17 80.5t-11 82q-15 46 -46.5 67.5t-70.5 24t-81.5 -13.5t-80.5 -45q-52 -40 -87 -89.5t-53.5 -105t-22.5 -115t6 -119.5q7 -45 19 -92.5t23.5 -96t19.5 -98t7.5 -98t-12.5 -96.5t-40 -93q-34 -55 -80.5 -83t-93.5 -32t-89 15.5t-67 58
t-27 95t30 128.5q23 53 56 92t75 76q8 7 16 -1q6 -7 -2 -15q-34 -29 -60.5 -58.5t-49.5 -68.5q-37 -65 -44 -118t7 -92t45 -61.5t69.5 -26t80.5 15t78 61.5q53 63 66 137t5 151.5t-27 153t-29 141.5q-10 63 -6.5 128t22.5 126t54.5 115.5t90.5 96.5q43 33 91.5 47t93.5 8
t81 -33.5t54 -78.5q15 -44 12.5 -88t-17.5 -86t-39.5 -81.5t-53.5 -74.5q-3 -3 -7.5 -3.5t-7.5 2.5q-4 3 -4 7.5t3 7.5zM498 1004q-12 1 -23 16.5t-18.5 34.5t-11 34t0.5 14q1 0 7 -11t14.5 -23.5t17.5 -23t17 -10.5q7 0 18 15t22 33t21 33t15 15q3 -1 -5 -21t-21.5 -44
t-28.5 -43.5t-25 -18.5z" />
    <glyph glyph-name="scaron" unicode="&#x161;" horiz-adv-x="301" 
d="M20 258q1 -1 1 -4q8 -28 17 -55t20 -54q53 42 111.5 69t128.5 35q9 0 11 -11q0 -11 -10 -11q-68 -7 -125 -34.5t-108 -69.5q13 -33 24.5 -66.5t18 -67.5t6.5 -70t-10 -73q-11 -43 -35 -67.5t-52.5 -32.5t-57.5 -0.5t-51 28.5t-32.5 53.5t-2 75.5t40 94.5t94.5 109.5
l19 17q-21 54 -38 107.5t-14 104.5q1 12 7.5 29.5t17 32t25 23t31.5 4.5q24 -7 25 -29t-9.5 -48.5t-26.5 -51.5t-26 -38zM37 103l-13 -12q-76 -70 -105 -129t-28 -101.5t24.5 -67.5t53.5 -28.5t59.5 17.5t42.5 70q9 34 9 66t-5.5 62.5t-15.5 61t-22 61.5zM15 287
q9 13 20 31.5t18.5 36t8.5 31t-10 17.5q-17 0 -26 -11.5t-12 -28.5t-2.5 -37.5t3.5 -38.5zM25 489q-12 1 -23 16.5t-18.5 34.5t-11 34t0.5 14q1 0 7 -11t14.5 -23.5t17.5 -23t17 -10.5q7 0 18 15t22 33t21 33t15 15q3 -1 -5 -21t-21.5 -44t-28.5 -43.5t-25 -18.5z" />
    <glyph glyph-name="Ydieresis" unicode="&#x178;" horiz-adv-x="716" 
d="M25 537q20 33 48.5 74t63 74.5t74.5 52t83 6.5q36 -10 48 -43t5.5 -82.5t-28 -111.5t-50.5 -130.5t-63 -140t-66.5 -139t-60 -129t-43 -109t-16 -79t20.5 -39.5q28 -11 66.5 16.5t83 80.5t92.5 125.5t95 151.5t90 159.5t78 148.5q8 19 14 34.5t10 26.5q5 13 19 49.5
t32.5 85t39.5 101t41 98t36 76t25 34.5q21 10 24 -7.5t-5.5 -52t-27 -82t-40.5 -98.5t-45.5 -101.5t-43.5 -90.5l-32.5 -65t-13.5 -26l-59 -152q-14 -34 -39.5 -96t-60.5 -140.5t-78 -166.5t-91 -173t-100 -161.5t-105 -131.5t-106.5 -82.5t-103.5 -14.5q-12 4 -18.5 6.5
t-19.5 8.5q-2 2 -3 6t1 8q7 10 16 5q10 -5 15.5 -7.5t16.5 -5.5q51 -12 107.5 28t115 114t116 174t111 209t101 218t84.5 201q-41 -74 -84 -148t-86.5 -139.5t-86 -119t-80.5 -86.5t-71 -42t-57 14q-17 17 -16 52.5t13 81.5t31.5 97.5t40.5 99.5t40.5 88.5t30.5 64.5
q10 21 31.5 64.5t45.5 97.5t46.5 111.5t33.5 107t7 84.5t-33 43q-38 11 -73.5 -7.5t-67 -51t-57.5 -70.5t-44 -66q-7 -10 -16 -5q-3 2 -3.5 6t1.5 8zM646 623q9 21 24 54t31 70t30 72t22 60q-9 -18 -21 -45.5t-26 -61t-29 -71.5t-31 -78zM503 1042q8 -2 9.5 -10t-1.5 -16
t-10.5 -14t-16.5 -4q-7 2 -8 10t2 16.5t10 14.5t15 3zM373 1042q8 -2 9.5 -10t-1.5 -16t-10.5 -14t-16.5 -4q-7 2 -8 10t2 16.5t10 14.5t15 3z" />
    <glyph glyph-name="Zcaron" unicode="&#x17d;" horiz-adv-x="711" 
d="M161 599q10 22 22.5 52t28 63t33 66t37.5 61.5t42.5 49.5t46.5 30q39 13 69 8.5t60.5 -11t67 -8t88.5 19.5l4 5q2 4 14 23t27 36.5t30.5 26t25.5 -7.5q8 -14 0 -29t-23 -29t-32.5 -25t-28.5 -16q-32 -60 -62.5 -120t-64 -118.5t-73 -114.5t-90.5 -108q37 -34 49 -99.5
t3 -147.5t-36 -174.5t-68 -181.5t-93.5 -167.5t-111 -133.5t-122 -78.5t-126.5 -2.5q-45 15 -71 47.5t-37.5 75.5t-10.5 93t10.5 100t25 96t32.5 82q23 48 54 94t69 85t84 68t99 43l34 7q5 1 8.5 -1.5t3.5 -7.5q-2 -10 -10 -12l-33 -7q-50 -13 -93.5 -41t-80 -65.5
t-65.5 -81.5t-50 -89q-16 -33 -30.5 -76t-23.5 -90t-11 -94.5t7.5 -88.5t33 -71.5t64.5 -44.5q55 -18 111 5.5t109 76.5t101 128t86.5 160t66.5 172.5t40 165.5t7 139t-32 92l-9 9q-23 -24 -45 -38t-39 -14q-19 0 -28.5 12t-10.5 28t6 32.5t22 25.5t37.5 7t52.5 -23
q40 46 76 99.5t70.5 109.5t68 114t66.5 113q-49 -16 -84.5 -14t-65 8.5t-57 10.5t-60.5 -7q-22 -8 -42.5 -28t-39 -48t-35.5 -60t-31.5 -64t-26 -60.5t-20.5 -48.5q-6 -9 -15 -6q-9 4 -5 13zM347 450q-18 13 -35 16.5t-29 -1.5t-16.5 -17t1.5 -29q8 -21 29 -10t50 41z
M691 947q18 11 33.5 25.5t12.5 27.5q-9 -1 -20.5 -16t-25.5 -37zM440 1001q-12 1 -23 16.5t-18.5 34.5t-11 34t0.5 14q1 0 7 -11t14.5 -23.5t17.5 -23t17 -10.5q7 0 18 15t22 33t21 33t15 15q3 -1 -5 -21t-21.5 -44t-28.5 -43.5t-25 -18.5z" />
    <glyph glyph-name="zcaron" unicode="&#x17e;" horiz-adv-x="382" 
d="M-17 248q4 6 13 21.5t19.5 31.5t21 27.5t17.5 10.5q8 -1 12.5 -7.5t8 -13.5t9 -12.5t17 -5t31 8.5t50.5 28q11 12 23.5 15.5t20.5 0.5q9 -3 10.5 -7.5t-1.5 -9.5t-9 -9.5t-12 -8.5q-22 -21 -41 -50.5t-37 -58.5t-37.5 -54.5t-41.5 -37.5q42 -36 62 -87l8 6
q31 19 53.5 30.5t42 24.5t39 30t44.5 47q18 22 31.5 41t28.5 43q7 9 15 4q4 -2 5 -6.5t-1 -8.5q-18 -29 -38 -55.5t-43 -51.5q-24 -27 -46.5 -44t-44.5 -30t-43.5 -24.5t-43.5 -26.5q11 -33 14 -69t1 -72q-2 -49 -16.5 -104t-39 -107.5t-58 -97.5t-73.5 -74
q-24 -17 -43.5 -17t-33.5 12t-21 32.5t-5 44.5q3 46 24.5 110t55 129.5t75 124t82.5 92.5q-9 25 -24 48q-8 12 -13 17.5t-10 9.5t-10.5 7.5t-13.5 10.5q-7 6 -5 10.5t8.5 8.5t15.5 8.5t16 11.5t17 22.5t22.5 36t26 42.5t27.5 43q-28 -14 -50.5 -10.5t-43.5 34.5
q-6 -7 -13 -17t-13.5 -21t-12.5 -21.5t-10 -16.5q-7 -9 -15 -4q-9 7 -4 15zM95 -9l-13 -11l-23 -26q-18 -21 -40.5 -55t-46 -75t-44.5 -85.5t-35.5 -86.5t-19.5 -79t4 -62q9 -26 33.5 -17.5t54.5 41.5t60.5 86t52 115t28 128.5t-10.5 126.5zM177 405q-12 1 -23 16.5
t-18.5 34.5t-11 34t0.5 14q1 0 7 -11t14.5 -23.5t17.5 -23t17 -10.5q7 0 18 15t22 33t21 33t15 15q3 -1 -5 -21t-21.5 -44t-28.5 -43.5t-25 -18.5z" />
    <glyph glyph-name="circumflex" unicode="&#x2c6;" horiz-adv-x="143" 
d="M79 519q12 -1 23 -16.5t18.5 -34.5t11 -34t-0.5 -14q-1 0 -7 11t-14.5 23.5t-18 23t-16.5 10.5t-18 -15t-22.5 -33t-21 -33t-14.5 -15q-3 1 5 21t21.5 44t28.5 43.5t25 18.5z" />
    <glyph glyph-name="caron" unicode="&#x2c7;" horiz-adv-x="179" 
d="M55 405q-12 1 -23 16.5t-18.5 34.5t-11 34t0.5 14q1 0 7 -11t14.5 -23.5t17.5 -23t17 -10.5q7 0 18 15t22 33t21 33t15 15q3 -1 -5 -21t-21.5 -44t-28.5 -43.5t-25 -18.5z" />
    <glyph glyph-name="dotaccent" unicode="&#x2d9;" horiz-adv-x="116" 
d="M66 604q8 -2 9.5 -10t-1.5 -16t-10.5 -14t-16.5 -4q-7 2 -8 10t2 16.5t10 14.5t15 3z" />
    <glyph glyph-name="ring" unicode="&#x2da;" horiz-adv-x="137" 
d="M73 525q24 -7 28.5 -29.5t-5 -45.5t-30 -39.5t-46.5 -10.5q-14 3 -19.5 14.5t-5 27t6.5 32.5t16.5 30t24.5 19.5t30 1.5zM65 506q-17 5 -30 -7t-19.5 -28.5t-4.5 -32.5t16 -19q18 -4 32.5 7t21.5 27.5t3.5 32t-19.5 20.5z" />
    <glyph glyph-name="ogonek" unicode="&#x2db;" horiz-adv-x="180" 
d="M157 -40q-35 7 -58.5 -2t-37.5 -25t-18 -34.5t0.5 -30.5t18 -13t34.5 17q3 10 12 8t8 -12q-26 -33 -48 -37t-35 9t-15 36.5t12 46.5t46 39.5t87 14.5z" />
    <glyph glyph-name="tilde" unicode="&#x2dc;" horiz-adv-x="260" 
d="M32 417q-8 -7 -14.5 -2t-1.5 13q28 25 49 30t38 -1t31 -16.5t28 -16.5t29 -1t34 30q8 7 15 0.5t-1 -14.5q-24 -26 -42 -32.5t-34 -2.5t-30 13.5t-29.5 15.5t-32.5 4t-39 -20z" />
    <glyph glyph-name="hungarumlaut" unicode="&#x2dd;" horiz-adv-x="284" 
d="M88 642q8 -6 8.5 -24t-2.5 -36t-8 -31.5t-8 -11.5q-1 1 -2.5 16.5t-4 34t-7 35.5t-10.5 20q1 1 6 0.5t11 -1.5t11.5 -1.5zM239 695q8 -6 8.5 -24t-2.5 -36t-8 -31.5t-8 -11.5q-1 1 -2.5 16t-4 34t-7 35.5t-10.5 20.5q1 1 6 0.5t11 -1.5t11.5 -1.5z" />
    <glyph glyph-name="endash" unicode="&#x2013;" horiz-adv-x="435" 
d="M396 260q-42 -2 -89 -2.5t-94.5 -1t-94.5 -1t-89 -1.5q-5 -1 -8 4t-3 10q-1 5 2 10.5t8 5.5q42 1 89 1.5t94.5 1t94.5 1t89 2.5q5 1 8 -4t3 -10q1 -5 -2 -10t-8 -6z" />
    <glyph glyph-name="emdash" unicode="&#x2014;" horiz-adv-x="621" 
d="M582 259q-28 -1 -71 -1.5t-93.5 -1t-104 -1t-104 -1t-93.5 -1t-71 -0.5q-5 -1 -8 4t-3 10q-1 5 2 10.5t8 5.5q28 1 71 1.5t93.5 0.5t104 0.5t104 1t93.5 1t71 1.5q5 1 8 -4t3 -10q1 -5 -2 -10t-8 -6z" />
    <glyph glyph-name="quoteleft" unicode="&#x2018;" horiz-adv-x="142" 
d="M89 523q5 -6 2 -13t-9 -12.5t-13.5 -7.5t-12.5 4q-4 6 0 16t10.5 20t12.5 16t7 3t-2.5 -11t5.5 -15z" />
    <glyph glyph-name="quoteright" unicode="&#x2019;" horiz-adv-x="94" 
d="M38 579q-5 6 -2 13t9 12.5t13.5 7.5t12.5 -4q4 -6 0 -16t-10.5 -20t-12.5 -16t-7 -3t2.5 11t-5.5 15z" />
    <glyph glyph-name="quotesinglbase" unicode="&#x201a;" horiz-adv-x="106" 
d="M23 79q-5 6 -2 13t9 12.5t13.5 7.5t12.5 -4q4 -6 0 -16t-10.5 -20t-12.5 -16t-7 -3t2.5 11t-5.5 15z" />
    <glyph glyph-name="quotedblleft" unicode="&#x201c;" horiz-adv-x="219" 
d="M64 529q5 -6 2 -13t-9 -12.5t-13.5 -7.5t-12.5 4q-4 6 0 16t10.5 20t12.5 16t7 3t-2.5 -11t5.5 -15zM194 529q5 -6 2 -13t-9 -12.5t-13.5 -7.5t-12.5 4q-4 6 0 16t10.5 20t12.5 16t7 3t-2.5 -11t5.5 -15z" />
    <glyph glyph-name="quotedblright" unicode="&#x201d;" horiz-adv-x="251" 
d="M179 571q-5 6 -2 13t9 12.5t13.5 7.5t12.5 -4q4 -6 0 -16t-10.5 -20t-12.5 -16t-7 -3t2.5 11t-5.5 15zM49 571q-5 6 -2 13t9 12.5t13.5 7.5t12.5 -4q4 -6 0 -16t-10.5 -20t-12.5 -16t-7 -3t2.5 11t-5.5 15z" />
    <glyph glyph-name="quotedblbase" unicode="&#x201e;" horiz-adv-x="215" 
d="M172 79q-5 6 -2 13t9 12.5t13.5 7.5t12.5 -4q4 -6 0 -16t-10.5 -20t-12.5 -16t-7 -3t2.5 11t-5.5 15zM42 79q-5 6 -2 13t9 12.5t13.5 7.5t12.5 -4q4 -6 0 -16t-10.5 -20t-12.5 -16t-7 -3t2.5 11t-5.5 15z" />
    <glyph glyph-name="bullet" unicode="&#x2022;" horiz-adv-x="238" 
d="M147 374q18 -5 26 -18.5t7.5 -30.5t-7.5 -34.5t-19.5 -31.5t-29.5 -21t-36 -3q-15 3 -21.5 16t-6 30.5t7.5 36t18.5 33t27 21.5t33.5 2z" />
    <glyph glyph-name="ellipsis" unicode="&#x2026;" horiz-adv-x="588" 
d="M21 64q2 4 5 10.5t7 12.5t9.5 9t12.5 0q6 -3 6 -12t-2 -19t-5.5 -18t-4.5 -11q-2 -5 -7.5 -3t-11 7t-8.5 12t-1 12zM217 64q2 4 5 10.5t7 12.5t9.5 9t12.5 0q6 -3 6 -12t-2 -19t-5.5 -18t-4.5 -11q-2 -5 -7.5 -3t-11 7t-8.5 12t-1 12zM413 64q2 4 5 10.5t7 12.5t9.5 9
t12.5 0q6 -3 6 -12t-2 -19t-5.5 -18t-4.5 -11q-2 -5 -7.5 -3t-11 7t-8.5 12t-1 12z" />
    <glyph glyph-name="perthousand" unicode="&#x2030;" horiz-adv-x="468" 
d="M419 873q-11 -35 -26.5 -74.5t-32 -79.5t-33.5 -79t-32 -74q-72 -172 -145 -343t-149 -341l-33 -71q-2 -5 -8.5 -6t-10.5 1q-5 2 -8 6t-1 9l12 26q78 165 151 339.5t145 344.5q17 40 36 84t38 88.5t36 88t31 84.5q1 5 6 7.5t10 1.5q5 0 10 -3.5t4 -8.5zM197 717
q21 -4 28.5 -30t5 -63.5t-13.5 -79.5t-27.5 -76.5t-37 -56t-41.5 -17.5q-19 3 -26 29.5t-5 63.5t12 79t25.5 77t36 56.5t43.5 17.5zM422 297q21 -4 28.5 -30t5 -63.5t-13.5 -79.5t-27.5 -76.5t-37 -56t-41.5 -17.5q-19 3 -26 29.5t-5 63.5t12 79t25.5 77t36 56.5t43.5 17.5z
M260 297q21 -4 28.5 -30t5 -63.5t-13.5 -79.5t-27.5 -76.5t-37 -56t-41.5 -17.5q-19 3 -26 29.5t-5 63.5t12 79t25.5 77t36 56.5t43.5 17.5zM256 274q-10 3 -21.5 -16t-23 -49t-21 -66.5t-15 -68.5t-5.5 -54.5t9 -24.5q8 -2 19.5 17t23.5 49t23 66t17 67.5t5 54t-11 25.5z
M193 694q-10 3 -21.5 -16t-23 -49t-21 -66.5t-15 -68.5t-5.5 -54t9 -25q8 -2 19.5 17t23.5 49t23 66t17 67.5t5 54t-11 25.5zM418 274q-10 3 -21.5 -16t-23 -49t-21 -66.5t-15 -68.5t-5.5 -54.5t9 -24.5q8 -2 19.5 17t23.5 49t23 66t17 67.5t5 54t-11 25.5z" />
    <glyph glyph-name="guilsinglleft" unicode="&#x2039;" horiz-adv-x="556" 
d="M552 485q-34 -34 -86 -77.5t-111 -86t-119.5 -80.5t-112.5 -62q47 -6 86.5 -15t76 -23t71.5 -33t74 -45q2 -2 3 -8t1.5 -13t0 -13t-1.5 -8q-7 -9 -15 -3q-46 31 -88 58.5t-86 47t-92.5 29t-106.5 3.5v1q-9 0 -11.5 2.5t-1.5 6t4 7t6 4.5l13 3q60 15 126 56t129 92
t120 105t99 95q9 7 16 -1q1 -2 3 -8t3.5 -13t1.5 -13.5t-2 -7.5z" />
    <glyph glyph-name="guilsinglright" unicode="&#x203a;" horiz-adv-x="611" 
d="M28 61q34 34 86 77.5t111 86t119.5 80.5t112.5 62q-47 6 -86.5 15t-76 23t-71.5 33t-74 45q-2 1 -3 7.5t-1.5 13.5t0 13t1.5 8q7 9 15 3q46 -31 88 -58.5t86 -47t92 -29t107 -3.5v-1q9 0 11.5 -2.5t1.5 -6t-4 -7t-6 -4.5l-13 -3q-60 -15 -126 -56t-129 -92t-120 -105
t-99 -95q-9 -7 -16 1q-2 1 -3.5 7.5t-3 13.5t-1.5 13t2 8z" />
    <glyph glyph-name="fraction" unicode="&#x2044;" horiz-adv-x="395" 
d="M419 873q-11 -35 -26.5 -74.5t-32 -79.5t-33.5 -79t-32 -74q-72 -172 -145 -343t-149 -341l-33 -71q-2 -5 -8.5 -6t-10.5 1q-5 2 -8 6t-1 9l12 26q78 165 151 339.5t145 344.5q17 40 36 84t38 88.5t36 88t31 84.5q1 5 6 7.5t10 1.5q5 0 10 -3.5t4 -8.5z" />
    <glyph glyph-name="Euro" unicode="&#x20ac;" horiz-adv-x="502" 
d="M362 496q20 3 40.5 30t35 62t19 71t-7.5 58q-13 26 -48 23q-29 -2 -61 -29.5t-63.5 -72.5t-61.5 -103.5t-55 -122.5q35 0 71 0.5t81 2.5q5 1 8 -4t4 -10q0 -5 -3 -10t-8 -6l-164 -4q-8 -19 -14 -37.5t-12 -37.5q36 0 73.5 0.5t82.5 2.5q5 1 8 -4t3 -10q1 -5 -2 -10t-8 -6
l-167 -4q-21 -73 -33 -140t-10 -118t18.5 -79.5t52.5 -24.5q30 3 52.5 24t38 49.5t24 60.5t10.5 58l1 26q0 11 11 11q10 0 10 -11v-27q-2 -32 -13.5 -69.5t-31.5 -70t-48.5 -54t-65.5 -19.5q-42 2 -63.5 34.5t-26.5 86t5 121.5t31 142l-91 -2q-5 0 -8 5t-3 10t2.5 10t7.5 5
q29 1 53.5 1.5t47.5 0.5q6 19 12 37.5t14 37.5q-20 0 -40.5 -0.5t-43.5 -0.5q-5 -1 -8 4t-3 10t2.5 10.5t7.5 5.5l97 2q27 68 60.5 130.5t70 110.5t74 77.5t73.5 32.5t54.5 -16t22.5 -50t-4 -67.5t-24.5 -69.5t-39 -56.5t-46.5 -27.5q-5 -1 -8 2t-3 8q-1 5 2 8t8 3z" />
    <glyph glyph-name="minus" unicode="&#x2212;" horiz-adv-x="474" 
d="M444 299q-42 -2 -96 -2.5t-110.5 -1t-110.5 -1t-96 -1.5q-5 -1 -8 4t-3 10q-1 5 2 10.5t8 5.5q42 1 96 1.5t110.5 1t110.5 1t96 2.5q5 1 8 -4t3 -10q1 -5 -2 -10t-8 -6z" />
    <glyph glyph-name="m_1" unicode="&#xe000;" horiz-adv-x="762" 
d="M24 258q-3 -17 -7.5 -36.5t-9.5 -39.5q14 25 31.5 54t37 58t40.5 54t41 42t39 22.5t35 -5.5q20 -15 18 -47.5t-15.5 -73.5t-34 -85.5t-37.5 -82.5q25 40 58.5 91.5t71 103t77 98t76.5 76t69.5 36.5t55.5 -20q18 -21 10.5 -62t-30.5 -94t-56 -115t-67 -124.5t-63 -121.5
t-44 -107t-11 -81.5t38 -43.5q23 -7 58 22t75.5 77.5t83 110t79 119t64.5 104t40 66.5q2 4 6.5 5t8.5 -1t5 -6.5t-1 -8.5q-10 -17 -29.5 -49.5t-44.5 -73.5t-55 -87.5t-62 -91t-65 -85t-63.5 -69.5t-58 -43.5t-48.5 -8.5q-41 12 -51.5 48t0.5 86.5t38.5 112.5t60.5 126
t67.5 126t60.5 114t37.5 89.5t-0.5 52.5q-15 18 -38 12.5t-49.5 -25.5t-54 -50t-51.5 -60t-42 -54.5t-25 -34.5q-5 -7 -18.5 -27.5t-31 -47.5t-37.5 -57.5t-36.5 -55.5t-28 -42t-13.5 -17q-6 -2 -13 -0.5t-9 5.5q-3 11 7 40.5t25.5 67t33.5 78.5t31 77t18 61t-5 31
q-14 8 -33 -5.5t-41 -38.5t-44 -57.5t-40.5 -63.5t-32.5 -56t-19 -34q-2 -2 -5.5 -11t-9.5 -14q-4 -4 -15 -5t-16 4q-3 3 -0.5 19.5t7 38t9.5 43.5t9 37q-59 -13 -120.5 9t-127 61.5t-136 87.5t-146.5 87t-158 60t-171 6q-57 -10 -108 -37t-89.5 -66.5t-62 -91t-27.5 -109.5
q0 -5 -2.5 -8.5t-7.5 -3.5q-11 0 -11 11q4 62 28.5 116.5t65 97.5t93.5 71.5t114 39.5q69 13 135 3t128 -34t120.5 -58t114 -70t106.5 -69.5t99 -56t92.5 -30.5t85.5 8q5 -1 8.5 0t7.5 -1q10 -2 8 -12z" />
    <glyph glyph-name="s_1" unicode="&#xe001;" horiz-adv-x="301" 
d="M20 258q1 -1 1 -4q8 -28 17 -55t20 -54q40 27 87 50.5t97.5 40t103.5 23.5t105 1q53 -7 112.5 -24.5t123 -37.5t129.5 -37.5t133.5 -25t134.5 0t132 38.5q52 25 94 64t68.5 88t36.5 104.5t-2 113.5q-5 10 6 14t14 -8q12 -62 2.5 -120.5t-36.5 -110.5t-70.5 -94t-98.5 -69
q-66 -32 -134 -40.5t-136.5 -1.5t-135.5 24t-131.5 37t-124 38t-111.5 26q-56 8 -111.5 1t-106.5 -24.5t-95.5 -42t-77.5 -50.5q13 -33 24.5 -66.5t18 -67.5t6.5 -70t-10 -73q-11 -43 -35 -67.5t-52.5 -32.5t-57.5 -0.5t-51 28.5t-32.5 53.5t-2 75.5t40 94.5t94.5 109.5
l19 17q-21 54 -38 107.5t-14 104.5q1 12 7.5 29.5t17 32t25 23t31.5 4.5q24 -7 25 -29t-9.5 -48.5t-26.5 -51.5t-26 -38zM37 103l-13 -12q-76 -70 -105 -129t-28 -101.5t24.5 -67.5t53.5 -28.5t59.5 17.5t42.5 70q9 34 9 66t-5.5 62.5t-15.5 61t-22 61.5zM15 287
q9 13 20 31.5t18.5 36t8.5 31t-10 17.5q-17 0 -26 -11.5t-12 -28.5t-2.5 -37.5t3.5 -38.5z" />
  </font>
</defs>
</svg>
